<svg xmlns="http://www.w3.org/2000/svg" viewBox="0 0 536.91 563.35"><defs><style>.cls-1{fill:#fff;}</style></defs><path class="cls-1" d="M532.75,331.76l-1.46-2H353.2l-1.45,2c-1.12,1.53-24.26,33.53-30.15,68.21V272.64H425.2V237.38H321.6V136H287.15V237.38H183.28v35.26H287.15v19.28c-40.91,13-148.8,47.2-178.31,56.72-53.31,17.2-81.49,50-81.49,94.77,0,42.68,43.87,56.52,60.05,60.18-.61,6.93-4.68,52.77-4.68,52.77h109.7l11.81,143H406.08l7.54-91.28h86.73l4-36-6,1.82c-5.13,1.37-20.42,4.21-29.46,1-10.69-3.75-11.52-25.68-11.52-32.32v-1.76c0-9.27-.08-23.28,6.73-35.49,5.88-10.52,23.8-16.65,39.6-22.06l8.12-2.82c33.81-12.17,52.44-35.32,52.44-65.21C564.26,375.3,534,333.52,532.75,331.76ZM91.1,469.71,91,471.07l-1.34-.26L88,470.48c-14.44-2.76-27.8-8.52-27.8-31.83,0-27.82,17.43-40.54,36.26-50.15l2-1Zm281.58,10.77,8.12,2.83c12.66,4.33,26.67,9.12,34.77,16.27l-61.76,78.8c-3.77-8.14-19.62-42.3-32.21-69.46V428.79C326.44,452.13,344.16,470.22,372.68,480.48ZM120.79,519.85l12.88-145.19,89.6-28.5-.7,2.26a179.42,179.42,0,0,0-6.44,30.34,119.12,119.12,0,0,0-.51,13.21c0,27.82,3.49,84.18,6.41,126.56l.1,1.32H210.64l-23.73-30.27,2.5,30.27Zm122.28,36.51h14.59l-9.6-144.56c-1.47-23.17-.83-54.74,10.64-73.64,4.35-7.16,16.27-18.69,28.45-29.5V512.3l-30.64,66.08-17.25-22ZM376,666.62H234.35c-.63-7.3-4.35-50.27-6.31-72.91l33.6,42.45,43.52-90.1c7.93,16.41,43.51,90.1,43.51,90.1l33.61-42.45C380.32,616.34,376.6,659.32,376,666.62Zm51.16-125.77v1.76c0,6.47-.79,27.47-10.73,32l5.48-66.33C427.19,519.75,427.16,532.31,427.13,540.85Zm78.37-90.11c-16.82,10-39.88,15.68-63.25,15.68-24.43,0-47.15-5.56-64-15.66-16.63-10-25.79-23.66-25.79-38.49,0-27.75,13.76-45.48,18-50.27H514c4.23,4.79,18,22.52,18,50.27C532,427,522.59,440.62,505.5,450.74Z" transform="translate(-27.35 -136.04)"/></svg>