<svg width="245" height="46" viewBox="0 0 245 46" fill="none" xmlns="http://www.w3.org/2000/svg">
<g clip-path="url(#clip0_914_101)">
<path d="M32.0046 17.662L31.9122 17.5378H20.6346L20.5427 17.662C20.4718 17.7571 19.0065 19.7452 18.6335 21.8997V13.9891H25.194V11.7985H18.6335V5.5H16.4519V11.7985H9.87432V13.9891H16.4519V15.1869C13.8613 15.9945 7.02911 18.1193 5.16038 18.7107C1.78451 19.7793 0 21.8171 0 24.5985C0 27.2501 2.77808 28.11 3.80269 28.3374C3.76406 28.7679 3.50632 31.6158 3.50632 31.6158H10.4531L11.201 40.5H23.9832L24.4607 34.829H29.9529L30.2062 32.5924L29.8262 32.7055C29.5014 32.7906 28.5331 32.9671 27.9607 32.7676C27.2837 32.5347 27.2312 31.1722 27.2312 30.7597V30.6503C27.2312 30.0744 27.2261 29.204 27.6573 28.4455C28.0297 27.7919 29.1645 27.411 30.165 27.0749L30.6792 26.8997C32.8202 26.1436 34 24.7054 34 22.8484C34 20.367 32.0838 17.7714 32.0046 17.662ZM4.03699 26.2325L4.03066 26.317L3.9458 26.3008L3.84068 26.2803C2.92626 26.1088 2.08024 25.751 2.08024 24.3028C2.08024 22.5744 3.184 21.7842 4.37641 21.1871L4.50306 21.125L4.03699 26.2325ZM21.8681 26.9016L22.3823 27.0774C23.184 27.3464 24.0712 27.644 24.5842 28.0882L20.6732 32.9838C20.4344 32.4781 19.4307 30.3559 18.6335 28.6685V23.6902C18.94 25.1403 20.0621 26.2642 21.8681 26.9016V26.9016ZM5.91712 29.3475L6.73275 20.3273L12.4067 18.5567L12.3624 18.6971C12.1712 19.3127 12.0348 19.9433 11.9546 20.582C11.9283 20.8548 11.9175 21.1288 11.9223 21.4027C11.9223 23.1311 12.1433 26.6326 12.3282 29.2655L12.3345 29.3475H11.6069L10.1042 27.4669L10.2625 29.3475H5.91712ZM13.6605 31.6158H14.5845L13.9765 22.6347C13.8834 21.1952 13.924 19.2338 14.6503 18.0596C14.9258 17.6148 15.6806 16.8985 16.4519 16.2269V28.8785L14.5116 32.9838L13.4193 31.617L13.6605 31.6158ZM22.0784 38.466H13.1083C13.0684 38.0124 12.8329 35.3428 12.7088 33.9363L14.8365 36.5736L17.5924 30.9759C18.0946 31.9954 20.3477 36.5736 20.3477 36.5736L22.4761 33.9363C22.3519 35.3422 22.1164 38.0124 22.0784 38.466ZM25.3181 30.6522V30.7616C25.3181 31.1635 25.2681 32.4682 24.6386 32.7496L24.9856 28.6287C25.32 29.3413 25.3181 30.1216 25.3162 30.6522H25.3181ZM30.2809 25.0539C29.2158 25.6752 27.7555 26.0281 26.2756 26.0281C24.7285 26.0281 23.2898 25.6827 22.2228 25.0552C21.1697 24.4339 20.5896 23.5852 20.5896 22.6639C20.5896 20.9399 21.461 19.8383 21.7295 19.5408H30.8173C31.0851 19.8383 31.9571 20.9399 31.9571 22.6639C31.9571 23.579 31.3612 24.4252 30.279 25.0539H30.2809Z" fill="white"/>
<path d="M43.771 7.204V9.044H47.658V16.243H43.426V18.129H47.819C46.761 19.233 45.22 20.153 43.15 20.889L44.277 22.729C45.68 22.039 46.899 21.28 47.911 20.429V22.269H52.442V24.086H44.576V26.11H62.263V24.086H54.558V22.269H59.043V20.383C60.101 21.28 61.412 22.062 62.999 22.752L63.896 20.866C61.872 20.176 60.285 19.279 59.158 18.129H63.551V16.243H59.319V9.044H63.206V7.204H59.319V5.617H57.203V7.204H49.774V5.617H47.658V7.204H43.771ZM48.003 20.337C48.785 19.647 49.429 18.911 49.958 18.129H56.996C57.502 18.911 58.169 19.647 58.997 20.337H54.558V18.727H52.442V20.337H48.003ZM49.774 16.243V15.001H57.203V16.243H49.774ZM49.774 13.299V12.057H57.203V13.299H49.774ZM49.774 10.355V9.044H57.203V10.355H49.774ZM69.7123 5.594V9.366H65.9633V11.16H70.0803V13.805C70.0803 14.127 69.9423 14.311 69.6893 14.311C69.3213 14.311 68.9533 14.265 68.5853 14.219L68.9303 15.829H70.2643C71.4143 15.829 72.0123 15.277 72.0123 14.219V11.16H76.2673V9.366H71.7133V8.285H75.5083V6.629H71.7133V5.594H69.7123ZM83.3973 16.243H68.7003V26.915H70.8163V26.041H81.2813V26.915H83.3973V16.243ZM70.8163 24.408V23.235H81.2813V24.408H70.8163ZM70.8163 21.717V20.521H81.2813V21.717H70.8163ZM70.8163 19.026V17.899H81.2813V19.026H70.8163ZM74.4273 11.666L72.7713 12.195C73.3463 13.161 73.8753 14.265 74.3813 15.507L75.9453 14.817C75.5313 13.69 75.0253 12.632 74.4273 11.666ZM77.3483 8.791C77.7623 10.263 78.5213 11.574 79.6253 12.724C78.7053 13.276 77.6243 13.759 76.3823 14.15L77.3253 15.944C78.7973 15.438 80.0623 14.794 81.1663 14.035C82.2933 14.817 83.6963 15.507 85.3523 16.082L86.2953 14.311C84.9153 13.828 83.7193 13.299 82.7303 12.724C83.8803 11.574 84.7083 10.24 85.2143 8.699V6.951H76.4283V8.791H77.3483ZM81.1203 11.574C80.1543 10.746 79.5563 9.803 79.3033 8.791H83.0293C82.5923 9.826 81.9483 10.746 81.1203 11.574ZM67.3663 11.781C67.0443 12.931 66.5153 14.035 65.7563 15.047L67.1823 15.944C67.9643 14.886 68.5853 13.598 69.0223 12.103L67.3663 11.781ZM89.2366 7.641V9.573H92.0196V11.459H88.1556V13.483H93.2386C91.6286 15.093 89.7656 16.496 87.6496 17.646L89.0066 19.187C90.1336 18.566 91.2146 17.853 92.2496 17.025H95.4696C94.7796 17.738 94.0436 18.382 93.2616 18.934V20.337C91.7206 20.498 89.9956 20.636 88.1096 20.728L88.4086 22.821C90.1796 22.66 91.7896 22.499 93.2616 22.338V23.718C93.2616 24.454 92.9166 24.845 92.2266 24.845C91.7666 24.845 91.1456 24.776 90.3636 24.684L90.9156 26.639H93.0546C94.5726 26.639 95.3546 25.857 95.3546 24.293V22.062C96.9416 21.832 98.2526 21.579 99.2876 21.303V19.256C98.1606 19.555 96.8496 19.831 95.3546 20.061V19.348C96.4126 18.451 97.3096 17.554 98.0456 16.657V15.093H94.4116C94.9176 14.587 95.4006 14.035 95.8836 13.483H98.7816V11.459H97.4476C98.2986 10.24 99.1036 8.906 99.8626 7.48L98.1606 6.606C97.2866 8.354 96.2516 9.987 95.0556 11.459H94.0896V9.573H96.4126V7.641H94.0896V5.824H92.0196V7.641H89.2366ZM102.232 11.068H105.245C105.107 13.782 104.601 16.197 103.681 18.267C103.037 17.048 102.508 15.737 102.094 14.357L100.415 15.323C100.944 17.117 101.634 18.819 102.508 20.406C101.266 22.223 99.6326 23.695 97.6086 24.822L98.8506 26.823C100.783 25.627 102.416 24.155 103.727 22.384C104.831 23.994 106.119 25.466 107.637 26.777L109.132 25.006C107.522 23.672 106.119 22.131 104.969 20.406C106.326 17.83 107.085 14.702 107.246 11.068H108.511V8.975H102.853C103.083 8.032 103.29 7.043 103.474 5.985L101.335 5.617C100.76 9.435 99.6786 12.471 98.0916 14.748L99.4026 16.358C100.553 14.932 101.496 13.184 102.232 11.068ZM114.005 14.334V22.936H127.69V14.334H114.005ZM125.459 21.004H116.236V19.509H125.459V21.004ZM116.236 17.738V16.266H125.459V17.738H116.236ZM130.473 7.503H122.055C121.848 6.813 121.641 6.169 121.434 5.617L118.904 6.031C119.134 6.491 119.364 6.974 119.571 7.503H111.176V11.827H113.154V12.931H128.518V11.85H130.473V7.503ZM113.384 11.022V9.596H128.265V11.022H113.384ZM111.268 24.454V26.409H130.427V24.454H111.268ZM139.302 8.078V10.033H144.845C144.707 10.539 144.546 11.022 144.362 11.505H141.004V23.005H151.975V11.505H146.708C146.892 11.045 147.076 10.539 147.214 10.033H153.585V8.078H150.02C150.434 7.526 150.848 6.928 151.216 6.238L149.146 5.525C148.709 6.399 148.203 7.25 147.628 8.078H145.029C144.592 7.112 144.109 6.284 143.603 5.571L141.579 6.33C142.039 6.882 142.43 7.457 142.775 8.078H139.302ZM149.951 21.119H143.028V19.601H149.951V21.119ZM143.028 17.922V16.519H149.951V17.922H143.028ZM143.028 14.817V13.391H149.951V14.817H143.028ZM134.932 5.778L133.483 7.135C135.001 8.331 136.174 9.435 137.002 10.47L138.428 9.044C137.462 7.94 136.289 6.859 134.932 5.778ZM133 11.252V13.23H136.128C135.392 14.334 134.495 15.507 133.414 16.703V18.359H136.749C136.473 19.624 136.128 20.774 135.691 21.832C134.725 22.2 133.713 23.373 132.655 25.397L134.242 26.846C135.254 24.822 135.99 23.833 136.45 23.833C136.634 23.833 136.818 23.902 137.002 24.086C137.784 24.868 138.658 25.466 139.624 25.857C140.406 26.179 141.602 26.363 143.189 26.409C144.661 26.455 146.225 26.501 147.835 26.501H153.424L153.907 24.431C151.308 24.523 149.192 24.592 147.582 24.592C145.972 24.592 144.523 24.569 143.281 24.546C141.993 24.523 141.027 24.385 140.337 24.109C139.647 23.81 138.957 23.327 138.221 22.637C138.037 22.476 137.876 22.338 137.692 22.2C138.106 21.073 138.474 19.67 138.796 17.968V16.519H136.013C136.979 15.346 137.807 14.15 138.543 12.954V11.252H133ZM169.13 13.805C168.808 14.633 168.463 15.323 168.072 15.875L169.475 16.404C169.935 15.76 170.303 15.024 170.602 14.173L169.13 13.805ZM162.253 13.782L160.804 14.242C161.241 14.932 161.609 15.645 161.931 16.404L163.38 16.036C163.058 15.185 162.667 14.426 162.253 13.782ZM157.469 12.241V18.198H173.983V12.264C174.351 12.402 174.742 12.54 175.156 12.678L176.283 11.022C171.913 9.596 168.647 7.825 166.439 5.686H165.013C162.483 7.848 159.217 9.642 155.169 11.022L156.296 12.678C156.664 12.54 157.055 12.379 157.469 12.241ZM173.339 12.011H158.021C159.079 11.551 160.114 11.068 161.126 10.539V11.091H170.303V10.608C171.223 11.114 172.235 11.574 173.339 12.011ZM171.982 16.588H166.715V13.667H171.982V16.588ZM164.737 16.588H159.47V13.667H164.737V16.588ZM173.132 19.118H158.343V26.938H160.436V26.179H171.039V26.915H173.132V19.118ZM160.436 24.454V23.304H169.82V21.809H160.436V20.728H171.039V24.454H160.436ZM168.417 9.481H162.897C163.886 8.837 164.829 8.147 165.726 7.411C166.508 8.147 167.405 8.837 168.417 9.481ZM183.411 9.504V16.427H196.314V9.504H183.411ZM194.336 14.817H185.412V13.736H194.336V14.817ZM185.412 12.195V11.16H194.336V12.195H185.412ZM189.736 20.199V21.119H181.893V23.005H189.736V24.155C189.736 24.73 189.437 25.029 188.839 25.029C188.08 25.029 187.068 24.983 185.826 24.914L186.378 26.731H189.644C191.093 26.731 191.829 26.064 191.829 24.753V23.005H198.545V21.119H191.829V21.027C193.6 20.153 195.141 19.348 196.475 18.635V17.301H182.928V19.003H192.519C191.369 19.486 190.426 19.877 189.736 20.199ZM197.993 6.399H179.11V15.231C179.064 19.647 178.489 23.074 177.408 25.558L179.064 27.053C180.444 24.063 181.157 20.13 181.226 15.231V8.354H197.993V6.399ZM207.558 10.332V16.22H220.001V10.332H214.826V9.021H220.438V7.112H214.826V5.732H212.733V7.112H207.121V9.021H212.733V10.332H207.558ZM218.092 14.403H216.344V12.149H218.092V14.403ZM214.642 14.403H212.917V12.149H214.642V14.403ZM211.238 14.403H209.467V12.149H211.238V14.403ZM219.38 20.015L217.563 20.613C218.299 22.016 218.989 23.649 219.61 25.489L221.381 24.684C220.829 23.028 220.162 21.487 219.38 20.015ZM204.545 5.479C203.579 7.618 202.061 9.504 200.037 11.137L200.681 13.253C203.395 11.206 205.327 8.906 206.477 6.376L204.545 5.479ZM205.097 11.39C204.039 13.667 202.406 15.668 200.175 17.37L200.819 19.463C201.578 18.888 202.291 18.29 202.958 17.692V26.892H205.074V15.392C205.833 14.403 206.477 13.368 206.983 12.264L205.097 11.39ZM207.19 20.544C206.868 22.131 206.316 23.626 205.58 25.006L207.351 26.133C208.133 24.661 208.731 22.936 209.145 20.935L207.19 20.544ZM215.838 26.685C216.574 26.685 217.149 26.524 217.517 26.248C217.908 25.926 218.184 24.983 218.345 23.396L216.436 22.775C216.367 23.741 216.252 24.316 216.091 24.5C215.976 24.638 215.769 24.73 215.47 24.73H212.802C212.227 24.73 211.951 24.454 211.951 23.902V20.383H209.95V24.316C209.95 25.88 210.686 26.685 212.158 26.685H215.838ZM214.435 19.693L212.871 20.682C213.722 21.648 214.412 22.545 214.918 23.373L216.528 22.269C216.022 21.533 215.332 20.659 214.435 19.693ZM207.834 17.37V19.348H219.725V17.37H207.834ZM224.966 20.383V22.407H231.981V24.155H222.942V26.202H243.182V24.155H234.143V22.407H241.158V20.383H234.143V18.773H238.927V12.931H227.243V18.773H231.981V20.383H224.966ZM236.788 16.818H229.382V14.886H236.788V16.818ZM231.981 5.755V9.32H229.543L230.21 8.86C229.658 8.055 228.876 7.112 227.841 6.054L226.139 7.112C226.921 7.894 227.588 8.63 228.14 9.32H223.287V15.208H225.472V11.436H240.698V15.208H242.86V9.32H238.352C239.019 8.607 239.617 7.802 240.146 6.905L238.329 6.008C237.754 7.066 237.064 7.963 236.282 8.722L237.11 9.32H234.143V5.755H231.981Z" fill="white"/>
<path d="M46.298 42.612C45.598 42.612 44.982 42.4767 44.45 42.206C43.918 41.926 43.5073 41.5387 43.218 41.044C42.9287 40.5493 42.784 39.9753 42.784 39.322V35.864C42.784 35.2107 42.9287 34.6367 43.218 34.142C43.5073 33.6473 43.918 33.2647 44.45 32.994C44.982 32.7233 45.598 32.588 46.298 32.588C46.9887 32.588 47.6 32.7187 48.132 32.98C48.664 33.2413 49.0747 33.61 49.364 34.086C49.6533 34.562 49.798 35.1127 49.798 35.738C49.798 35.7847 49.7793 35.8267 49.742 35.864C49.714 35.892 49.6767 35.906 49.63 35.906L48.342 35.976C48.23 35.976 48.174 35.9247 48.174 35.822C48.174 35.2713 48.0013 34.828 47.656 34.492C47.32 34.156 46.8673 33.988 46.298 33.988C45.7287 33.988 45.2713 34.156 44.926 34.492C44.5807 34.828 44.408 35.2713 44.408 35.822V39.392C44.408 39.9333 44.5807 40.372 44.926 40.708C45.2713 41.044 45.7287 41.212 46.298 41.212C46.8673 41.212 47.32 41.0487 47.656 40.722C48.0013 40.386 48.174 39.9427 48.174 39.392C48.174 39.2893 48.23 39.238 48.342 39.238L49.63 39.294C49.6767 39.294 49.714 39.308 49.742 39.336C49.7793 39.364 49.798 39.3967 49.798 39.434C49.798 40.0687 49.6533 40.6287 49.364 41.114C49.0747 41.59 48.664 41.9587 48.132 42.22C47.6 42.4813 46.9887 42.612 46.298 42.612ZM59.0762 42.29C59.1042 42.3273 59.1182 42.3647 59.1182 42.402C59.1182 42.4673 59.0715 42.5 58.9782 42.5H57.5362C57.4522 42.5 57.3822 42.4673 57.3262 42.402L56.6962 41.702C56.6682 41.674 56.6355 41.674 56.5982 41.702C55.7395 42.3087 54.7968 42.612 53.7702 42.612C52.9115 42.612 52.2022 42.4113 51.6422 42.01C51.0915 41.5993 50.8162 41.002 50.8162 40.218C50.8162 39.5833 50.9888 39.0467 51.3342 38.608C51.6888 38.1693 52.1648 37.7633 52.7622 37.39C52.8182 37.3527 52.8228 37.32 52.7762 37.292C52.2815 36.6947 51.9548 36.2327 51.7962 35.906C51.6375 35.5793 51.5582 35.2387 51.5582 34.884C51.5582 34.4547 51.6702 34.0673 51.8942 33.722C52.1182 33.3673 52.4308 33.092 52.8322 32.896C53.2428 32.6907 53.7095 32.588 54.2322 32.588C54.7735 32.588 55.2542 32.6907 55.6742 32.896C56.0942 33.092 56.4208 33.372 56.6542 33.736C56.8968 34.1 57.0182 34.52 57.0182 34.996C57.0182 35.5653 56.8502 36.0647 56.5142 36.494C56.1782 36.9233 55.7255 37.3153 55.1562 37.67C55.1095 37.698 55.1048 37.7307 55.1422 37.768C55.5715 38.272 56.0942 38.8647 56.7102 39.546C56.7382 39.5833 56.7708 39.5833 56.8082 39.546C57.0322 39.3033 57.3215 38.93 57.6762 38.426C57.7322 38.3233 57.8068 38.3047 57.9002 38.37L58.8522 38.916C58.9642 38.9813 58.9828 39.056 58.9082 39.14C58.5162 39.7373 58.1288 40.2507 57.7462 40.68L57.7322 40.708C57.7322 40.7453 57.7508 40.7827 57.7882 40.82C58.1242 41.212 58.4508 41.5853 58.7682 41.94C58.8335 42.024 58.8895 42.094 58.9362 42.15C58.9922 42.206 59.0388 42.2527 59.0762 42.29ZM54.2742 34.072C53.9475 34.072 53.6815 34.1607 53.4762 34.338C53.2802 34.5153 53.1822 34.7487 53.1822 35.038C53.1822 35.1967 53.2382 35.374 53.3502 35.57C53.4622 35.766 53.7002 36.0833 54.0642 36.522C54.0922 36.5593 54.1248 36.564 54.1622 36.536C54.5635 36.284 54.8668 36.0413 55.0722 35.808C55.2868 35.5653 55.3942 35.304 55.3942 35.024C55.3942 34.7347 55.2915 34.506 55.0862 34.338C54.8808 34.1607 54.6102 34.072 54.2742 34.072ZM53.7842 41.24C54.3628 41.24 54.9742 41.03 55.6182 40.61C55.6555 40.5727 55.6555 40.54 55.6182 40.512C55.5715 40.4653 55.5248 40.414 55.4782 40.358C55.4315 40.302 55.3848 40.246 55.3382 40.19C55.2168 40.05 55.0162 39.8213 54.7362 39.504L54.4142 39.14C54.2648 38.9813 54.0828 38.776 53.8682 38.524C53.8495 38.496 53.8168 38.4913 53.7702 38.51C53.3502 38.7807 53.0282 39.0467 52.8042 39.308C52.5802 39.5693 52.4682 39.8633 52.4682 40.19C52.4682 40.5073 52.5848 40.764 52.8182 40.96C53.0608 41.1467 53.3828 41.24 53.7842 41.24ZM66.9134 32.812C66.9601 32.7373 67.0254 32.7 67.1094 32.7H68.3974C68.4441 32.7 68.4814 32.7187 68.5094 32.756C68.5468 32.784 68.5654 32.8213 68.5654 32.868V42.332C68.5654 42.3787 68.5468 42.4207 68.5094 42.458C68.4814 42.486 68.4441 42.5 68.3974 42.5H67.1094C67.0628 42.5 67.0208 42.486 66.9834 42.458C66.9554 42.4207 66.9414 42.3787 66.9414 42.332V35.654C66.9414 35.626 66.9274 35.6073 66.8994 35.598C66.8808 35.5887 66.8668 35.598 66.8574 35.626L65.1074 38.314C65.0608 38.3887 64.9954 38.426 64.9114 38.426H64.2674C64.1834 38.426 64.1181 38.3887 64.0714 38.314L62.3074 35.64C62.2981 35.612 62.2794 35.6027 62.2514 35.612C62.2328 35.6213 62.2234 35.64 62.2234 35.668V42.332C62.2234 42.3787 62.2048 42.4207 62.1674 42.458C62.1394 42.486 62.1021 42.5 62.0554 42.5H60.7674C60.7208 42.5 60.6788 42.486 60.6414 42.458C60.6134 42.4207 60.5994 42.3787 60.5994 42.332V32.868C60.5994 32.8213 60.6134 32.784 60.6414 32.756C60.6788 32.7187 60.7208 32.7 60.7674 32.7H62.0554C62.1394 32.7 62.2048 32.7373 62.2514 32.812L64.5334 36.27C64.5521 36.2887 64.5708 36.298 64.5894 36.298C64.6081 36.298 64.6221 36.2887 64.6314 36.27L66.9134 32.812ZM76.3938 42.5C76.3005 42.5 76.2398 42.4533 76.2118 42.36L75.7498 40.862C75.7312 40.8247 75.7078 40.806 75.6798 40.806H71.9838C71.9558 40.806 71.9325 40.8247 71.9138 40.862L71.4518 42.36C71.4238 42.4533 71.3632 42.5 71.2698 42.5H69.8698C69.8138 42.5 69.7718 42.486 69.7438 42.458C69.7158 42.4207 69.7112 42.3693 69.7298 42.304L72.7678 32.84C72.7958 32.7467 72.8565 32.7 72.9498 32.7H74.6998C74.7932 32.7 74.8538 32.7467 74.8818 32.84L77.9338 42.304C77.9432 42.3227 77.9478 42.346 77.9478 42.374C77.9478 42.458 77.8965 42.5 77.7938 42.5H76.3938ZM72.3478 39.448C72.3385 39.504 72.3572 39.532 72.4038 39.532H75.2458C75.3018 39.532 75.3205 39.504 75.3018 39.448L73.8598 34.758C73.8505 34.7207 73.8365 34.702 73.8178 34.702C73.7992 34.702 73.7852 34.7207 73.7758 34.758L72.3478 39.448ZM86.9539 32.868C86.9539 32.8213 86.9679 32.784 86.9959 32.756C87.0332 32.7187 87.0752 32.7 87.1219 32.7H88.4099C88.4565 32.7 88.4939 32.7187 88.5219 32.756C88.5592 32.784 88.5779 32.8213 88.5779 32.868V42.332C88.5779 42.3787 88.5592 42.4207 88.5219 42.458C88.4939 42.486 88.4565 42.5 88.4099 42.5H87.1219C87.0752 42.5 87.0332 42.486 86.9959 42.458C86.9679 42.4207 86.9539 42.3787 86.9539 42.332V38.328C86.9539 38.2813 86.9305 38.258 86.8839 38.258H83.3139C83.2672 38.258 83.2439 38.2813 83.2439 38.328V42.332C83.2439 42.3787 83.2252 42.4207 83.1879 42.458C83.1599 42.486 83.1225 42.5 83.0759 42.5H81.7879C81.7412 42.5 81.6992 42.486 81.6619 42.458C81.6339 42.4207 81.6199 42.3787 81.6199 42.332V32.868C81.6199 32.8213 81.6339 32.784 81.6619 32.756C81.6992 32.7187 81.7412 32.7 81.7879 32.7H83.0759C83.1225 32.7 83.1599 32.7187 83.1879 32.756C83.2252 32.784 83.2439 32.8213 83.2439 32.868V36.788C83.2439 36.8347 83.2672 36.858 83.3139 36.858H86.8839C86.9305 36.858 86.9539 36.8347 86.9539 36.788V32.868ZM92.8205 35.234C93.4085 35.234 93.9265 35.3367 94.3745 35.542C94.8225 35.7473 95.1678 36.032 95.4105 36.396C95.6532 36.7507 95.7745 37.1567 95.7745 37.614V42.332C95.7745 42.3787 95.7558 42.4207 95.7185 42.458C95.6905 42.486 95.6532 42.5 95.6065 42.5H94.3185C94.2718 42.5 94.2298 42.486 94.1925 42.458C94.1645 42.4207 94.1505 42.3787 94.1505 42.332V41.884C94.1505 41.856 94.1412 41.842 94.1225 41.842C94.1038 41.8327 94.0852 41.8373 94.0665 41.856C93.6092 42.36 92.9465 42.612 92.0785 42.612C91.3785 42.612 90.7998 42.4347 90.3425 42.08C89.8945 41.7253 89.6705 41.198 89.6705 40.498C89.6705 39.77 89.9225 39.2053 90.4265 38.804C90.9398 38.3933 91.6585 38.188 92.5825 38.188H94.0805C94.1272 38.188 94.1505 38.1647 94.1505 38.118V37.782C94.1505 37.418 94.0432 37.138 93.8285 36.942C93.6138 36.7367 93.2918 36.634 92.8625 36.634C92.5078 36.634 92.2185 36.6993 91.9945 36.83C91.7798 36.9513 91.6445 37.124 91.5885 37.348C91.5605 37.46 91.4952 37.5067 91.3925 37.488L90.0345 37.32C89.9878 37.3107 89.9458 37.2967 89.9085 37.278C89.8805 37.25 89.8712 37.2173 89.8805 37.18C89.9552 36.6107 90.2585 36.144 90.7905 35.78C91.3318 35.416 92.0085 35.234 92.8205 35.234ZM92.4845 41.324C92.9418 41.324 93.3338 41.2027 93.6605 40.96C93.9872 40.7173 94.1505 40.4093 94.1505 40.036V39.378C94.1505 39.3313 94.1272 39.308 94.0805 39.308H92.9045C92.4098 39.308 92.0178 39.4013 91.7285 39.588C91.4485 39.7747 91.3085 40.0407 91.3085 40.386C91.3085 40.6847 91.4158 40.918 91.6305 41.086C91.8545 41.2447 92.1392 41.324 92.4845 41.324ZM101.344 35.514C101.344 35.4673 101.358 35.43 101.386 35.402C101.423 35.3647 101.465 35.346 101.512 35.346H102.786C102.832 35.346 102.87 35.3647 102.898 35.402C102.935 35.43 102.954 35.4673 102.954 35.514V42.332C102.954 42.3787 102.935 42.4207 102.898 42.458C102.87 42.486 102.832 42.5 102.786 42.5H101.512C101.465 42.5 101.423 42.486 101.386 42.458C101.358 42.4207 101.344 42.3787 101.344 42.332V41.884C101.344 41.856 101.334 41.8373 101.316 41.828C101.297 41.8187 101.278 41.828 101.26 41.856C100.877 42.3507 100.303 42.598 99.5376 42.598C98.8282 42.598 98.2309 42.3927 97.7456 41.982C97.2696 41.5713 97.0316 40.988 97.0316 40.232V35.514C97.0316 35.4673 97.0456 35.43 97.0736 35.402C97.1109 35.3647 97.1529 35.346 97.1996 35.346H98.4876C98.5342 35.346 98.5716 35.3647 98.5996 35.402C98.6369 35.43 98.6556 35.4673 98.6556 35.514V39.77C98.6556 40.2087 98.7676 40.5587 98.9916 40.82C99.2249 41.0813 99.5469 41.212 99.9576 41.212C100.378 41.212 100.714 41.0813 100.966 40.82C101.218 40.5587 101.344 40.2087 101.344 39.77V35.514ZM113.508 32.7C113.554 32.7 113.592 32.7187 113.62 32.756C113.657 32.784 113.676 32.8213 113.676 32.868V33.946C113.676 33.9927 113.657 34.0347 113.62 34.072C113.592 34.1 113.554 34.114 113.508 34.114H110.932C110.885 34.114 110.862 34.1373 110.862 34.184V42.332C110.862 42.3787 110.843 42.4207 110.806 42.458C110.778 42.486 110.74 42.5 110.694 42.5H109.406C109.359 42.5 109.317 42.486 109.28 42.458C109.252 42.4207 109.238 42.3787 109.238 42.332V34.184C109.238 34.1373 109.214 34.114 109.168 34.114H106.69C106.643 34.114 106.601 34.1 106.564 34.072C106.536 34.0347 106.522 33.9927 106.522 33.946V32.868C106.522 32.8213 106.536 32.784 106.564 32.756C106.601 32.7187 106.643 32.7 106.69 32.7H113.508ZM117.065 35.234C117.653 35.234 118.171 35.3367 118.619 35.542C119.067 35.7473 119.413 36.032 119.655 36.396C119.898 36.7507 120.019 37.1567 120.019 37.614V42.332C120.019 42.3787 120.001 42.4207 119.963 42.458C119.935 42.486 119.898 42.5 119.851 42.5H118.563C118.517 42.5 118.475 42.486 118.437 42.458C118.409 42.4207 118.395 42.3787 118.395 42.332V41.884C118.395 41.856 118.386 41.842 118.367 41.842C118.349 41.8327 118.33 41.8373 118.311 41.856C117.854 42.36 117.191 42.612 116.323 42.612C115.623 42.612 115.045 42.4347 114.587 42.08C114.139 41.7253 113.915 41.198 113.915 40.498C113.915 39.77 114.167 39.2053 114.671 38.804C115.185 38.3933 115.903 38.188 116.827 38.188H118.325C118.372 38.188 118.395 38.1647 118.395 38.118V37.782C118.395 37.418 118.288 37.138 118.073 36.942C117.859 36.7367 117.537 36.634 117.107 36.634C116.753 36.634 116.463 36.6993 116.239 36.83C116.025 36.9513 115.889 37.124 115.833 37.348C115.805 37.46 115.74 37.5067 115.637 37.488L114.279 37.32C114.233 37.3107 114.191 37.2967 114.153 37.278C114.125 37.25 114.116 37.2173 114.125 37.18C114.2 36.6107 114.503 36.144 115.035 35.78C115.577 35.416 116.253 35.234 117.065 35.234ZM116.729 41.324C117.187 41.324 117.579 41.2027 117.905 40.96C118.232 40.7173 118.395 40.4093 118.395 40.036V39.378C118.395 39.3313 118.372 39.308 118.325 39.308H117.149C116.655 39.308 116.263 39.4013 115.973 39.588C115.693 39.7747 115.553 40.0407 115.553 40.386C115.553 40.6847 115.661 40.918 115.875 41.086C116.099 41.2447 116.384 41.324 116.729 41.324ZM121.528 42.5C121.482 42.5 121.44 42.486 121.402 42.458C121.374 42.4207 121.36 42.3787 121.36 42.332V32.868C121.36 32.8213 121.374 32.784 121.402 32.756C121.44 32.7187 121.482 32.7 121.528 32.7H122.816C122.863 32.7 122.9 32.7187 122.928 32.756C122.966 32.784 122.984 32.8213 122.984 32.868V37.922C122.984 37.95 122.994 37.9687 123.012 37.978C123.031 37.9873 123.05 37.978 123.068 37.95L125.336 35.444C125.402 35.3787 125.472 35.346 125.546 35.346H127.03C127.124 35.346 127.17 35.3787 127.17 35.444C127.17 35.472 127.156 35.5093 127.128 35.556L125.35 37.684C125.322 37.712 125.318 37.7447 125.336 37.782L127.436 42.304C127.455 42.3413 127.464 42.3693 127.464 42.388C127.464 42.4627 127.413 42.5 127.31 42.5H125.952C125.859 42.5 125.794 42.458 125.756 42.374L124.23 38.818C124.221 38.7993 124.202 38.79 124.174 38.79C124.156 38.7807 124.142 38.7853 124.132 38.804L123.012 40.092C122.994 40.1293 122.984 40.162 122.984 40.19V42.332C122.984 42.3787 122.966 42.4207 122.928 42.458C122.9 42.486 122.863 42.5 122.816 42.5H121.528ZM137.129 42.5C137.035 42.5 136.975 42.4533 136.947 42.36L136.485 40.862C136.466 40.8247 136.443 40.806 136.415 40.806H132.719C132.691 40.806 132.667 40.8247 132.649 40.862L132.187 42.36C132.159 42.4533 132.098 42.5 132.005 42.5H130.605C130.549 42.5 130.507 42.486 130.479 42.458C130.451 42.4207 130.446 42.3693 130.465 42.304L133.503 32.84C133.531 32.7467 133.591 32.7 133.685 32.7H135.435C135.528 32.7 135.589 32.7467 135.617 32.84L138.669 42.304C138.678 42.3227 138.683 42.346 138.683 42.374C138.683 42.458 138.631 42.5 138.529 42.5H137.129ZM133.083 39.448C133.073 39.504 133.092 39.532 133.139 39.532H135.981C136.037 39.532 136.055 39.504 136.037 39.448L134.595 34.758C134.585 34.7207 134.571 34.702 134.553 34.702C134.534 34.702 134.52 34.7207 134.511 34.758L133.083 39.448ZM139.855 42.5C139.809 42.5 139.767 42.486 139.729 42.458C139.701 42.4207 139.687 42.3787 139.687 42.332V32.868C139.687 32.8213 139.701 32.784 139.729 32.756C139.767 32.7187 139.809 32.7 139.855 32.7H141.143C141.19 32.7 141.227 32.7187 141.255 32.756C141.293 32.784 141.311 32.8213 141.311 32.868V42.332C141.311 42.3787 141.293 42.4207 141.255 42.458C141.227 42.486 141.19 42.5 141.143 42.5H139.855ZM142.916 42.5C142.869 42.5 142.827 42.486 142.79 42.458C142.762 42.4207 142.748 42.3787 142.748 42.332V32.868C142.748 32.8213 142.762 32.784 142.79 32.756C142.827 32.7187 142.869 32.7 142.916 32.7H144.204C144.25 32.7 144.288 32.7187 144.316 32.756C144.353 32.784 144.372 32.8213 144.372 32.868V42.332C144.372 42.3787 144.353 42.4207 144.316 42.458C144.288 42.486 144.25 42.5 144.204 42.5H142.916ZM146.732 34.366C146.442 34.366 146.204 34.2727 146.018 34.086C145.831 33.8993 145.738 33.6613 145.738 33.372C145.738 33.0827 145.831 32.8447 146.018 32.658C146.204 32.4713 146.442 32.378 146.732 32.378C147.021 32.378 147.259 32.4713 147.446 32.658C147.632 32.8447 147.726 33.0827 147.726 33.372C147.726 33.6613 147.632 33.8993 147.446 34.086C147.259 34.2727 147.021 34.366 146.732 34.366ZM146.06 42.5C146.013 42.5 145.971 42.486 145.934 42.458C145.906 42.4207 145.892 42.3787 145.892 42.332V35.5C145.892 35.4533 145.906 35.416 145.934 35.388C145.971 35.3507 146.013 35.332 146.06 35.332H147.348C147.394 35.332 147.432 35.3507 147.46 35.388C147.497 35.416 147.516 35.4533 147.516 35.5V42.332C147.516 42.3787 147.497 42.4207 147.46 42.458C147.432 42.486 147.394 42.5 147.348 42.5H146.06ZM151.817 35.234C152.405 35.234 152.923 35.3367 153.371 35.542C153.819 35.7473 154.164 36.032 154.407 36.396C154.649 36.7507 154.771 37.1567 154.771 37.614V42.332C154.771 42.3787 154.752 42.4207 154.715 42.458C154.687 42.486 154.649 42.5 154.603 42.5H153.315C153.268 42.5 153.226 42.486 153.189 42.458C153.161 42.4207 153.147 42.3787 153.147 42.332V41.884C153.147 41.856 153.137 41.842 153.119 41.842C153.1 41.8327 153.081 41.8373 153.063 41.856C152.605 42.36 151.943 42.612 151.075 42.612C150.375 42.612 149.796 42.4347 149.339 42.08C148.891 41.7253 148.667 41.198 148.667 40.498C148.667 39.77 148.919 39.2053 149.423 38.804C149.936 38.3933 150.655 38.188 151.579 38.188H153.077C153.123 38.188 153.147 38.1647 153.147 38.118V37.782C153.147 37.418 153.039 37.138 152.825 36.942C152.61 36.7367 152.288 36.634 151.859 36.634C151.504 36.634 151.215 36.6993 150.991 36.83C150.776 36.9513 150.641 37.124 150.585 37.348C150.557 37.46 150.491 37.5067 150.389 37.488L149.031 37.32C148.984 37.3107 148.942 37.2967 148.905 37.278C148.877 37.25 148.867 37.2173 148.877 37.18C148.951 36.6107 149.255 36.144 149.787 35.78C150.328 35.416 151.005 35.234 151.817 35.234ZM151.481 41.324C151.938 41.324 152.33 41.2027 152.657 40.96C152.983 40.7173 153.147 40.4093 153.147 40.036V39.378C153.147 39.3313 153.123 39.308 153.077 39.308H151.901C151.406 39.308 151.014 39.4013 150.725 39.588C150.445 39.7747 150.305 40.0407 150.305 40.386C150.305 40.6847 150.412 40.918 150.627 41.086C150.851 41.2447 151.135 41.324 151.481 41.324ZM159.542 35.234C160.298 35.234 160.9 35.458 161.348 35.906C161.805 36.354 162.034 36.9653 162.034 37.74V42.332C162.034 42.3787 162.015 42.4207 161.978 42.458C161.95 42.486 161.912 42.5 161.866 42.5H160.578C160.531 42.5 160.489 42.486 160.452 42.458C160.424 42.4207 160.41 42.3787 160.41 42.332V38.076C160.41 37.6467 160.288 37.3013 160.046 37.04C159.803 36.7693 159.481 36.634 159.08 36.634C158.678 36.634 158.352 36.7647 158.1 37.026C157.857 37.2873 157.736 37.6327 157.736 38.062V42.332C157.736 42.3787 157.717 42.4207 157.68 42.458C157.652 42.486 157.614 42.5 157.568 42.5H156.28C156.233 42.5 156.191 42.486 156.154 42.458C156.126 42.4207 156.112 42.3787 156.112 42.332V35.514C156.112 35.4673 156.126 35.43 156.154 35.402C156.191 35.3647 156.233 35.346 156.28 35.346H157.568C157.614 35.346 157.652 35.3647 157.68 35.402C157.717 35.43 157.736 35.4673 157.736 35.514V35.962C157.736 35.99 157.745 36.0087 157.764 36.018C157.782 36.0273 157.796 36.018 157.806 35.99C158.188 35.486 158.767 35.234 159.542 35.234ZM166.365 42.612C165.646 42.612 165.026 42.43 164.503 42.066C163.98 41.6927 163.616 41.1933 163.411 40.568C163.262 40.148 163.187 39.588 163.187 38.888C163.187 38.216 163.262 37.6653 163.411 37.236C163.607 36.62 163.966 36.1347 164.489 35.78C165.021 35.416 165.646 35.234 166.365 35.234C167.093 35.234 167.728 35.416 168.269 35.78C168.81 36.144 169.17 36.6013 169.347 37.152C169.394 37.3013 169.426 37.4507 169.445 37.6V37.628C169.445 37.7213 169.394 37.7773 169.291 37.796L168.031 37.978H168.003C167.919 37.978 167.863 37.9313 167.835 37.838C167.835 37.7913 167.83 37.754 167.821 37.726C167.802 37.6513 167.784 37.586 167.765 37.53C167.681 37.2687 167.513 37.054 167.261 36.886C167.009 36.718 166.71 36.634 166.365 36.634C166.01 36.634 165.707 36.7273 165.455 36.914C165.212 37.0913 165.049 37.3387 164.965 37.656C164.872 37.9547 164.825 38.37 164.825 38.902C164.825 39.4153 164.867 39.8307 164.951 40.148C165.044 40.4747 165.212 40.736 165.455 40.932C165.698 41.1187 166.001 41.212 166.365 41.212C166.72 41.212 167.023 41.1233 167.275 40.946C167.536 40.7593 167.704 40.512 167.779 40.204C167.788 40.1853 167.793 40.162 167.793 40.134C167.802 40.1247 167.807 40.1107 167.807 40.092C167.835 39.98 167.9 39.9333 168.003 39.952L169.263 40.148C169.31 40.1573 169.347 40.1807 169.375 40.218C169.412 40.246 169.426 40.288 169.417 40.344C169.389 40.4933 169.366 40.6007 169.347 40.666C169.17 41.2633 168.81 41.7393 168.269 42.094C167.728 42.4393 167.093 42.612 166.365 42.612ZM176.497 38.118C176.534 38.3513 176.553 38.6127 176.553 38.902L176.539 39.336C176.539 39.448 176.483 39.504 176.371 39.504H171.989C171.942 39.504 171.919 39.5273 171.919 39.574C171.947 39.882 171.989 40.092 172.045 40.204C172.269 40.876 172.815 41.2167 173.683 41.226C174.317 41.226 174.821 40.9647 175.195 40.442C175.232 40.386 175.279 40.358 175.335 40.358C175.372 40.358 175.405 40.372 175.433 40.4L176.301 41.114C176.385 41.1793 176.399 41.254 176.343 41.338C176.053 41.7487 175.666 42.066 175.181 42.29C174.705 42.514 174.173 42.626 173.585 42.626C172.857 42.626 172.236 42.4627 171.723 42.136C171.219 41.8093 170.85 41.352 170.617 40.764C170.402 40.26 170.295 39.56 170.295 38.664C170.295 38.1227 170.351 37.684 170.463 37.348C170.649 36.6947 170.999 36.1813 171.513 35.808C172.035 35.4253 172.661 35.234 173.389 35.234C175.227 35.234 176.263 36.1953 176.497 38.118ZM173.389 36.634C173.043 36.634 172.754 36.7227 172.521 36.9C172.297 37.068 172.138 37.306 172.045 37.614C171.989 37.7727 171.951 37.978 171.933 38.23C171.914 38.2767 171.933 38.3 171.989 38.3H174.831C174.877 38.3 174.901 38.2767 174.901 38.23C174.882 37.9967 174.854 37.8193 174.817 37.698C174.733 37.362 174.565 37.1007 174.313 36.914C174.07 36.7273 173.762 36.634 173.389 36.634ZM183.691 42.612C182.991 42.612 182.375 42.4767 181.843 42.206C181.311 41.926 180.9 41.5387 180.611 41.044C180.321 40.5493 180.177 39.9753 180.177 39.322V35.864C180.177 35.2107 180.321 34.6367 180.611 34.142C180.9 33.6473 181.311 33.2647 181.843 32.994C182.375 32.7233 182.991 32.588 183.691 32.588C184.381 32.588 184.993 32.7187 185.525 32.98C186.057 33.2413 186.467 33.61 186.757 34.086C187.046 34.562 187.191 35.1127 187.191 35.738C187.191 35.7847 187.172 35.8267 187.135 35.864C187.107 35.892 187.069 35.906 187.023 35.906L185.735 35.976C185.623 35.976 185.567 35.9247 185.567 35.822C185.567 35.2713 185.394 34.828 185.049 34.492C184.713 34.156 184.26 33.988 183.691 33.988C183.121 33.988 182.664 34.156 182.319 34.492C181.973 34.828 181.801 35.2713 181.801 35.822V39.392C181.801 39.9333 181.973 40.372 182.319 40.708C182.664 41.044 183.121 41.212 183.691 41.212C184.26 41.212 184.713 41.0487 185.049 40.722C185.394 40.386 185.567 39.9427 185.567 39.392C185.567 39.2893 185.623 39.238 185.735 39.238L187.023 39.294C187.069 39.294 187.107 39.308 187.135 39.336C187.172 39.364 187.191 39.3967 187.191 39.434C187.191 40.0687 187.046 40.6287 186.757 41.114C186.467 41.59 186.057 41.9587 185.525 42.22C184.993 42.4813 184.381 42.612 183.691 42.612ZM191.919 35.234C192.675 35.234 193.277 35.458 193.725 35.906C194.182 36.354 194.411 36.9653 194.411 37.74V42.332C194.411 42.3787 194.392 42.4207 194.355 42.458C194.327 42.486 194.29 42.5 194.243 42.5H192.955C192.908 42.5 192.866 42.486 192.829 42.458C192.801 42.4207 192.787 42.3787 192.787 42.332V38.076C192.787 37.6467 192.666 37.3013 192.423 37.04C192.18 36.7693 191.858 36.634 191.457 36.634C191.056 36.634 190.729 36.7647 190.477 37.026C190.234 37.2873 190.113 37.6327 190.113 38.062V42.332C190.113 42.3787 190.094 42.4207 190.057 42.458C190.029 42.486 189.992 42.5 189.945 42.5H188.657C188.61 42.5 188.568 42.486 188.531 42.458C188.503 42.4207 188.489 42.3787 188.489 42.332V32.868C188.489 32.8213 188.503 32.784 188.531 32.756C188.568 32.7187 188.61 32.7 188.657 32.7H189.945C189.992 32.7 190.029 32.7187 190.057 32.756C190.094 32.784 190.113 32.8213 190.113 32.868V35.962C190.113 35.99 190.122 36.0087 190.141 36.018C190.16 36.0273 190.174 36.018 190.183 35.99C190.566 35.486 191.144 35.234 191.919 35.234ZM200.043 35.514C200.043 35.4673 200.057 35.43 200.085 35.402C200.122 35.3647 200.164 35.346 200.211 35.346H201.485C201.531 35.346 201.569 35.3647 201.597 35.402C201.634 35.43 201.653 35.4673 201.653 35.514V42.332C201.653 42.3787 201.634 42.4207 201.597 42.458C201.569 42.486 201.531 42.5 201.485 42.5H200.211C200.164 42.5 200.122 42.486 200.085 42.458C200.057 42.4207 200.043 42.3787 200.043 42.332V41.884C200.043 41.856 200.033 41.8373 200.015 41.828C199.996 41.8187 199.977 41.828 199.959 41.856C199.576 42.3507 199.002 42.598 198.237 42.598C197.527 42.598 196.93 42.3927 196.445 41.982C195.969 41.5713 195.731 40.988 195.731 40.232V35.514C195.731 35.4673 195.745 35.43 195.773 35.402C195.81 35.3647 195.852 35.346 195.899 35.346H197.187C197.233 35.346 197.271 35.3647 197.299 35.402C197.336 35.43 197.355 35.4673 197.355 35.514V39.77C197.355 40.2087 197.467 40.5587 197.691 40.82C197.924 41.0813 198.246 41.212 198.657 41.212C199.077 41.212 199.413 41.0813 199.665 40.82C199.917 40.5587 200.043 40.2087 200.043 39.77V35.514ZM206.432 35.262C206.73 35.262 206.992 35.3227 207.216 35.444C207.29 35.4813 207.318 35.5513 207.3 35.654L207.062 36.914C207.052 37.026 206.987 37.0587 206.866 37.012C206.726 36.9653 206.562 36.942 206.376 36.942C206.254 36.942 206.161 36.9467 206.096 36.956C205.704 36.9747 205.377 37.1147 205.116 37.376C204.854 37.628 204.724 37.9593 204.724 38.37V42.332C204.724 42.3787 204.705 42.4207 204.668 42.458C204.64 42.486 204.602 42.5 204.556 42.5H203.268C203.221 42.5 203.179 42.486 203.142 42.458C203.114 42.4207 203.1 42.3787 203.1 42.332V35.514C203.1 35.4673 203.114 35.43 203.142 35.402C203.179 35.3647 203.221 35.346 203.268 35.346H204.556C204.602 35.346 204.64 35.3647 204.668 35.402C204.705 35.43 204.724 35.4673 204.724 35.514V36.144C204.724 36.1813 204.728 36.2047 204.738 36.214C204.756 36.214 204.775 36.2 204.794 36.172C205.186 35.5653 205.732 35.262 206.432 35.262ZM210.919 42.612C210.2 42.612 209.58 42.43 209.057 42.066C208.534 41.6927 208.17 41.1933 207.965 40.568C207.816 40.148 207.741 39.588 207.741 38.888C207.741 38.216 207.816 37.6653 207.965 37.236C208.161 36.62 208.52 36.1347 209.043 35.78C209.575 35.416 210.2 35.234 210.919 35.234C211.647 35.234 212.282 35.416 212.823 35.78C213.364 36.144 213.724 36.6013 213.901 37.152C213.948 37.3013 213.98 37.4507 213.999 37.6V37.628C213.999 37.7213 213.948 37.7773 213.845 37.796L212.585 37.978H212.557C212.473 37.978 212.417 37.9313 212.389 37.838C212.389 37.7913 212.384 37.754 212.375 37.726C212.356 37.6513 212.338 37.586 212.319 37.53C212.235 37.2687 212.067 37.054 211.815 36.886C211.563 36.718 211.264 36.634 210.919 36.634C210.564 36.634 210.261 36.7273 210.009 36.914C209.766 37.0913 209.603 37.3387 209.519 37.656C209.426 37.9547 209.379 38.37 209.379 38.902C209.379 39.4153 209.421 39.8307 209.505 40.148C209.598 40.4747 209.766 40.736 210.009 40.932C210.252 41.1187 210.555 41.212 210.919 41.212C211.274 41.212 211.577 41.1233 211.829 40.946C212.09 40.7593 212.258 40.512 212.333 40.204C212.342 40.1853 212.347 40.162 212.347 40.134C212.356 40.1247 212.361 40.1107 212.361 40.092C212.389 39.98 212.454 39.9333 212.557 39.952L213.817 40.148C213.864 40.1573 213.901 40.1807 213.929 40.218C213.966 40.246 213.98 40.288 213.971 40.344C213.943 40.4933 213.92 40.6007 213.901 40.666C213.724 41.2633 213.364 41.7393 212.823 42.094C212.282 42.4393 211.647 42.612 210.919 42.612ZM218.515 35.234C219.271 35.234 219.873 35.458 220.321 35.906C220.778 36.354 221.007 36.9653 221.007 37.74V42.332C221.007 42.3787 220.988 42.4207 220.951 42.458C220.923 42.486 220.886 42.5 220.839 42.5H219.551C219.504 42.5 219.462 42.486 219.425 42.458C219.397 42.4207 219.383 42.3787 219.383 42.332V38.076C219.383 37.6467 219.262 37.3013 219.019 37.04C218.776 36.7693 218.454 36.634 218.053 36.634C217.652 36.634 217.325 36.7647 217.073 37.026C216.83 37.2873 216.709 37.6327 216.709 38.062V42.332C216.709 42.3787 216.69 42.4207 216.653 42.458C216.625 42.486 216.588 42.5 216.541 42.5H215.253C215.206 42.5 215.164 42.486 215.127 42.458C215.099 42.4207 215.085 42.3787 215.085 42.332V32.868C215.085 32.8213 215.099 32.784 215.127 32.756C215.164 32.7187 215.206 32.7 215.253 32.7H216.541C216.588 32.7 216.625 32.7187 216.653 32.756C216.69 32.784 216.709 32.8213 216.709 32.868V35.962C216.709 35.99 216.718 36.0087 216.737 36.018C216.756 36.0273 216.77 36.018 216.779 35.99C217.162 35.486 217.74 35.234 218.515 35.234Z" fill="white"/>
</g>
<defs>
<clipPath id="clip0_914_101">
<rect width="245" height="45" fill="white" transform="translate(0 0.5)"/>
</clipPath>
</defs>
</svg>
