<svg width="254" height="39" viewBox="0 0 254 39" fill="none" xmlns="http://www.w3.org/2000/svg">
<g clip-path="url(#clip0)">
<path d="M43.748 4.612V6.613H47.543V13.651H43.403V15.721H47.612C46.6 16.71 45.105 17.538 43.127 18.228L44.346 20.252C45.703 19.585 46.876 18.849 47.888 18.021V19.861H52.327V21.448H44.553V23.656H62.286V21.448H54.673V19.861H59.066V17.998C60.101 18.872 61.389 19.631 62.93 20.298L63.919 18.228C61.941 17.607 60.423 16.779 59.365 15.721H63.574V13.651H59.434V6.613H63.229V4.612H59.434V3.094H57.088V4.612H49.889V3.094H47.543V4.612H43.748ZM48.187 17.745C48.9 17.101 49.498 16.434 50.004 15.721H56.973C57.433 16.411 58.031 17.101 58.767 17.745H54.673V16.227H52.327V17.745H48.187ZM49.889 13.651V12.57H57.088V13.651H49.889ZM49.889 10.73V9.626H57.088V10.73H49.889ZM49.889 7.786V6.613H57.088V7.786H49.889ZM69.6203 3.071V6.774H65.9403V8.752H69.9883V11.19C69.9883 11.512 69.8733 11.696 69.6433 11.696C69.2753 11.696 68.9073 11.65 68.5393 11.581L68.9303 13.352H70.2413C71.4833 13.352 72.1043 12.777 72.1043 11.65V8.752H76.2903V6.774H71.8053V5.831H75.5313V4.037H71.8053V3.071H69.6203ZM83.4893 13.674H68.6083V24.438H70.9313V23.61H81.1663V24.438H83.4893V13.674ZM70.9313 21.816V20.781H81.1663V21.816H70.9313ZM70.9313 19.125V18.067H81.1663V19.125H70.9313ZM70.9313 16.457V15.468H81.1663V16.457H70.9313ZM74.5193 9.143L72.7253 9.741C73.2773 10.707 73.8063 11.788 74.2893 13.03L75.9913 12.248C75.5773 11.144 75.0943 10.109 74.5193 9.143ZM77.2793 6.383C77.6933 7.809 78.4293 9.051 79.4873 10.155C78.6133 10.661 77.5783 11.098 76.3823 11.466L77.4173 13.444C78.8433 12.938 80.1083 12.317 81.1893 11.581C82.2933 12.363 83.6733 13.03 85.3063 13.582L86.3413 11.65C85.0073 11.19 83.8803 10.707 82.9143 10.155C83.9723 9.051 84.7543 7.763 85.2603 6.268V4.359H76.4053V6.383H77.2793ZM81.1203 8.936C80.2233 8.154 79.6483 7.303 79.3953 6.383H82.8913C82.4773 7.326 81.9023 8.177 81.1203 8.936ZM67.2283 9.304C66.9523 10.408 66.4463 11.466 65.7103 12.455L67.2743 13.444C68.0563 12.386 68.6313 11.144 69.0453 9.672L67.2283 9.304ZM89.2136 5.026V7.142H91.9276V8.844H88.1556V11.052H93.0546C91.4906 12.57 89.6736 13.904 87.6496 15.031L89.1446 16.733C90.2256 16.135 91.2836 15.422 92.3186 14.617H95.3086C94.6186 15.284 93.8826 15.882 93.1466 16.411V17.745C91.6286 17.883 89.9266 18.021 88.0866 18.113L88.4316 20.413C90.1566 20.252 91.7206 20.091 93.1466 19.93V21.057C93.1466 21.793 92.8016 22.184 92.1116 22.184C91.6746 22.184 91.0766 22.115 90.3176 22.023L90.9386 24.162H93.0086C94.6186 24.162 95.4466 23.334 95.4466 21.701V19.631C97.0336 19.401 98.3216 19.148 99.2876 18.895V16.664C98.2066 16.94 96.9186 17.216 95.4466 17.446V16.871C96.4816 15.997 97.3786 15.1 98.1146 14.203V12.501H94.6416C95.1016 12.041 95.5386 11.558 95.9756 11.052H98.6896C98.4826 11.374 98.2756 11.719 98.0456 12.064L99.4716 13.835C100.622 12.455 101.565 10.73 102.301 8.66H105.153C105.015 11.236 104.532 13.513 103.681 15.491C103.106 14.364 102.623 13.168 102.232 11.88L100.392 12.915C100.898 14.663 101.565 16.319 102.393 17.883C101.197 19.631 99.5866 21.057 97.5626 22.161L98.9426 24.369C100.829 23.219 102.439 21.77 103.727 20.068C104.785 21.609 106.05 23.012 107.522 24.3L109.201 22.368C107.591 21.057 106.234 19.562 105.107 17.883C106.441 15.307 107.2 12.225 107.361 8.66H108.557V6.383H102.991C103.221 5.463 103.405 4.497 103.589 3.485L101.243 3.071C100.783 6.153 99.9546 8.729 98.8046 10.845V8.844H97.6776C98.4826 7.648 99.2416 6.36 99.9776 4.98L98.1146 4.014C97.6086 4.98 97.0566 5.946 96.4586 6.889V5.026H94.2046V3.301H91.9276V5.026H89.2136ZM95.0556 8.844H94.2046V7.142H96.2976C95.9066 7.717 95.4926 8.292 95.0556 8.844ZM113.959 11.788V20.482H127.736V11.788H113.959ZM125.321 18.366H116.374V17.101H125.321V18.366ZM116.374 15.146V13.904H125.321V15.146H116.374ZM130.542 4.888H122.17C121.986 4.221 121.779 3.623 121.572 3.071L118.766 3.531C118.996 3.945 119.203 4.382 119.387 4.888H111.107V9.327H113.131V10.523H128.541V9.35H130.542V4.888ZM113.545 8.43V7.188H128.104V8.43H113.545ZM111.268 21.839V23.978H130.427V21.839H111.268ZM139.279 5.463V7.602H144.707C144.592 8.039 144.454 8.476 144.293 8.913H140.935V20.528H152.044V8.913H146.846C147.007 8.499 147.145 8.062 147.283 7.602H153.608V5.463H150.204C150.595 4.957 150.963 4.405 151.308 3.807L149.031 3.002C148.594 3.853 148.111 4.681 147.559 5.463H145.098C144.684 4.52 144.224 3.692 143.741 3.002L141.533 3.853C141.947 4.359 142.315 4.911 142.637 5.463H139.279ZM149.836 18.458H143.143V17.124H149.836V18.458ZM143.143 15.261V14.065H149.836V15.261H143.143ZM143.143 12.225V10.983H149.836V12.225H143.143ZM135.001 3.209L133.437 4.681C134.955 5.877 136.105 7.004 136.933 8.016L138.474 6.475C137.508 5.371 136.358 4.29 135.001 3.209ZM132.977 8.66V10.822H135.99C135.3 11.857 134.403 12.961 133.345 14.157V15.951H136.588C136.358 17.101 136.036 18.205 135.645 19.217C134.679 19.585 133.667 20.781 132.609 22.782L134.334 24.392C135.323 22.368 136.036 21.379 136.473 21.379C136.657 21.379 136.841 21.448 137.002 21.632C137.784 22.437 138.635 23.035 139.601 23.403C140.383 23.702 141.556 23.886 143.12 23.932C144.661 23.978 146.225 24.024 147.789 24.024H153.401L153.953 21.77C151.285 21.862 149.146 21.931 147.49 21.931C145.88 21.931 144.477 21.908 143.235 21.908C141.993 21.862 141.027 21.724 140.383 21.471C139.739 21.195 139.049 20.712 138.313 20.022C138.129 19.838 137.968 19.7 137.784 19.585C138.198 18.527 138.543 17.17 138.842 15.514V13.95H136.174C137.094 12.8 137.922 11.673 138.612 10.523V8.66H132.977ZM169.038 11.328C168.739 12.133 168.394 12.8 168.026 13.329L169.567 13.904C169.981 13.283 170.349 12.547 170.648 11.719L169.038 11.328ZM162.345 11.305L160.758 11.788C161.195 12.478 161.563 13.168 161.862 13.904L163.426 13.49C163.104 12.662 162.759 11.949 162.345 11.305ZM157.4 9.856V15.767H174.052V9.879C174.374 9.994 174.719 10.109 175.087 10.247L176.352 8.407C171.982 7.004 168.693 5.256 166.508 3.14H164.944C162.437 5.302 159.148 7.05 155.1 8.407L156.365 10.247C156.687 10.109 157.032 9.994 157.4 9.856ZM172.994 9.465H158.343C159.263 9.051 160.183 8.614 161.08 8.154V8.66H170.349V8.246C171.177 8.66 172.051 9.074 172.994 9.465ZM171.867 14.019H166.807V11.259H171.867V14.019ZM164.645 14.019H159.585V11.259H164.645V14.019ZM173.178 16.572H158.297V24.461H160.574V23.748H170.901V24.438H173.178V16.572ZM160.574 21.885V20.873H169.705V19.263H160.574V18.343H170.901V21.885H160.574ZM168.118 6.912H163.173C164.047 6.337 164.898 5.716 165.726 5.049C166.439 5.693 167.244 6.314 168.118 6.912ZM183.319 6.958V13.973H196.406V6.958H183.319ZM194.221 12.225H185.527V11.305H194.221V12.225ZM185.527 9.626V8.752H194.221V9.626H185.527ZM189.667 17.653V18.527H181.87V20.597H189.667V21.54C189.667 22.092 189.368 22.391 188.816 22.391C188.057 22.391 187.045 22.345 185.78 22.253L186.378 24.254H189.713C191.208 24.254 191.967 23.564 191.967 22.184V20.597H198.568V18.527H191.967C193.715 17.653 195.233 16.894 196.521 16.204V14.732H182.905V16.572H192.197L189.667 17.653ZM198.016 3.807H179.018V12.731C178.972 17.101 178.42 20.528 177.362 22.966L179.179 24.599C180.559 21.609 181.272 17.653 181.341 12.731V5.969H198.016V3.807ZM207.512 7.763V13.789H220.047V7.763H214.941V6.613H220.461V4.52H214.941V3.209H212.618V4.52H207.098V6.613H212.618V7.763H207.512ZM217.977 11.811H216.39V9.741H217.977V11.811ZM214.55 11.811H213.009V9.741H214.55V11.811ZM211.169 11.811H209.582V9.741H211.169V11.811ZM219.472 17.492L217.494 18.159C218.207 19.562 218.851 21.172 219.449 23.012L221.427 22.115C220.875 20.482 220.208 18.941 219.472 17.492ZM204.407 2.91C203.441 5.049 201.969 6.912 199.991 8.476L200.727 10.799C203.464 8.729 205.396 6.452 206.523 3.922L204.407 2.91ZM204.982 8.844C203.924 11.121 202.314 13.099 200.152 14.778L200.865 17.055C201.555 16.526 202.222 15.997 202.843 15.445V24.415H205.189V12.915C205.948 11.926 206.569 10.891 207.052 9.81L204.982 8.844ZM207.098 18.044C206.776 19.585 206.247 21.057 205.511 22.437L207.489 23.679C208.248 22.207 208.823 20.482 209.237 18.481L207.098 18.044ZM215.838 24.208C216.597 24.208 217.172 24.047 217.563 23.771C217.954 23.472 218.23 22.506 218.391 20.896L216.298 20.229C216.252 21.126 216.137 21.655 215.999 21.839C215.884 22 215.7 22.092 215.424 22.092H212.917C212.365 22.092 212.089 21.793 212.089 21.241V17.86H209.904V21.724C209.904 23.38 210.663 24.208 212.204 24.208H215.838ZM214.573 17.17L212.848 18.251C213.676 19.217 214.32 20.114 214.826 20.896L216.574 19.677C216.091 18.964 215.424 18.136 214.573 17.17ZM207.788 14.778V16.94H219.771V14.778H207.788ZM224.943 17.768V19.999H231.866V21.494H222.919V23.771H243.205V21.494H234.258V19.999H241.181V17.768H234.258V16.342H238.996V10.362H227.174V16.342H231.866V17.768H224.943ZM236.65 14.203H229.52V12.501H236.65V14.203ZM231.866 3.232V6.728H229.635L230.279 6.291C229.75 5.509 228.991 4.589 227.979 3.531L226.093 4.681C226.829 5.417 227.45 6.084 227.956 6.728H223.218V12.754H225.61V9.028H240.56V12.754H242.952V6.728H238.582C239.18 6.061 239.732 5.302 240.215 4.451L238.214 3.485C237.662 4.52 236.995 5.417 236.236 6.153L237.018 6.728H234.258V3.232H231.866Z" fill="white"/>
<path d="M47.228 37.096C46.708 37.096 46.248 36.992 45.848 36.784C45.448 36.568 45.136 36.268 44.912 35.884C44.696 35.5 44.588 35.056 44.588 34.552V31.024C44.588 30.52 44.696 30.08 44.912 29.704C45.136 29.32 45.448 29.024 45.848 28.816C46.248 28.608 46.708 28.504 47.228 28.504C47.748 28.504 48.208 28.608 48.608 28.816C49.008 29.016 49.316 29.304 49.532 29.68C49.756 30.048 49.868 30.48 49.868 30.976V31.048C49.868 31.088 49.852 31.124 49.82 31.156C49.796 31.188 49.764 31.204 49.724 31.204L48.608 31.252C48.512 31.252 48.464 31.204 48.464 31.108V30.964C48.464 30.588 48.348 30.284 48.116 30.052C47.892 29.82 47.596 29.704 47.228 29.704C46.852 29.704 46.548 29.82 46.316 30.052C46.092 30.284 45.98 30.588 45.98 30.964V34.648C45.98 35.024 46.092 35.328 46.316 35.56C46.548 35.784 46.852 35.896 47.228 35.896C47.596 35.896 47.892 35.784 48.116 35.56C48.348 35.328 48.464 35.024 48.464 34.648V34.492C48.464 34.404 48.512 34.36 48.608 34.36L49.724 34.408C49.764 34.408 49.796 34.424 49.82 34.456C49.852 34.48 49.868 34.512 49.868 34.552V34.6C49.868 35.096 49.756 35.536 49.532 35.92C49.316 36.296 49.008 36.588 48.608 36.796C48.208 36.996 47.748 37.096 47.228 37.096ZM53.541 30.772C54.125 30.772 54.581 30.956 54.909 31.324C55.237 31.692 55.401 32.2 55.401 32.848V36.856C55.401 36.896 55.385 36.932 55.353 36.964C55.329 36.988 55.297 37 55.257 37H54.153C54.113 37 54.077 36.988 54.045 36.964C54.021 36.932 54.009 36.896 54.009 36.856V33.04C54.009 32.712 53.925 32.452 53.757 32.26C53.597 32.068 53.377 31.972 53.097 31.972C52.809 31.972 52.577 32.072 52.401 32.272C52.233 32.464 52.149 32.724 52.149 33.052V36.856C52.149 36.896 52.133 36.932 52.101 36.964C52.077 36.988 52.045 37 52.005 37H50.901C50.861 37 50.825 36.988 50.793 36.964C50.769 36.932 50.757 36.896 50.757 36.856V28.744C50.757 28.704 50.769 28.672 50.793 28.648C50.825 28.616 50.861 28.6 50.901 28.6H52.005C52.045 28.6 52.077 28.616 52.101 28.648C52.133 28.672 52.149 28.704 52.149 28.744V31.324C52.149 31.348 52.157 31.364 52.173 31.372C52.189 31.38 52.205 31.372 52.221 31.348C52.541 30.964 52.981 30.772 53.541 30.772ZM59.0141 30.796C59.2381 30.796 59.4341 30.844 59.6021 30.94C59.6661 30.972 59.6901 31.032 59.6741 31.12L59.4701 32.212C59.4621 32.308 59.4061 32.336 59.3021 32.296C59.1981 32.256 59.0781 32.236 58.9421 32.236C58.8861 32.236 58.8021 32.244 58.6901 32.26C58.4181 32.284 58.1901 32.408 58.0061 32.632C57.8301 32.856 57.7421 33.136 57.7421 33.472V36.856C57.7421 36.896 57.7261 36.932 57.6941 36.964C57.6701 36.988 57.6381 37 57.5981 37H56.4941C56.4541 37 56.4181 36.988 56.3861 36.964C56.3621 36.932 56.3501 36.896 56.3501 36.856V31.012C56.3501 30.972 56.3621 30.94 56.3861 30.916C56.4181 30.884 56.4541 30.868 56.4941 30.868H57.5981C57.6381 30.868 57.6701 30.884 57.6941 30.916C57.7261 30.94 57.7421 30.972 57.7421 31.012V31.528C57.7421 31.56 57.7461 31.58 57.7541 31.588C57.7701 31.588 57.7861 31.576 57.8021 31.552C58.0901 31.048 58.4941 30.796 59.0141 30.796ZM60.9303 30.028C60.6823 30.028 60.4783 29.948 60.3183 29.788C60.1663 29.628 60.0903 29.424 60.0903 29.176C60.0903 28.928 60.1663 28.724 60.3183 28.564C60.4783 28.404 60.6823 28.324 60.9303 28.324C61.1863 28.324 61.3903 28.404 61.5423 28.564C61.7023 28.716 61.7823 28.92 61.7823 29.176C61.7823 29.424 61.7023 29.628 61.5423 29.788C61.3823 29.948 61.1783 30.028 60.9303 30.028ZM60.3783 37C60.3383 37 60.3023 36.988 60.2703 36.964C60.2463 36.932 60.2343 36.896 60.2343 36.856V31C60.2343 30.96 60.2463 30.928 60.2703 30.904C60.3023 30.872 60.3383 30.856 60.3783 30.856H61.4823C61.5223 30.856 61.5543 30.872 61.5783 30.904C61.6103 30.928 61.6263 30.96 61.6263 31V36.856C61.6263 36.896 61.6103 36.932 61.5783 36.964C61.5543 36.988 61.5223 37 61.4823 37H60.3783ZM64.7851 37.072C64.0891 37.072 63.5331 36.916 63.1171 36.604C62.7011 36.292 62.4931 35.884 62.4931 35.38V35.284C62.4931 35.244 62.5051 35.212 62.5291 35.188C62.5611 35.156 62.5971 35.14 62.6371 35.14H63.6811C63.7211 35.14 63.7531 35.156 63.7771 35.188C63.8091 35.212 63.8251 35.244 63.8251 35.284V35.32C63.8251 35.512 63.9171 35.68 64.1011 35.824C64.2851 35.96 64.5131 36.028 64.7851 36.028C65.0491 36.028 65.2611 35.964 65.4211 35.836C65.5891 35.708 65.6731 35.548 65.6731 35.356C65.6731 35.164 65.5891 35.016 65.4211 34.912C65.2611 34.808 65.0091 34.696 64.6651 34.576L64.3531 34.468C63.8091 34.292 63.3731 34.072 63.0451 33.808C62.7171 33.536 62.5531 33.136 62.5531 32.608C62.5531 32.048 62.7531 31.608 63.1531 31.288C63.5531 30.96 64.0811 30.796 64.7371 30.796C65.4171 30.796 65.9571 30.964 66.3571 31.3C66.7651 31.628 66.9691 32.068 66.9691 32.62V32.632C66.9691 32.672 66.9531 32.708 66.9211 32.74C66.8971 32.764 66.8651 32.776 66.8251 32.776H65.8171C65.7771 32.776 65.7411 32.764 65.7091 32.74C65.6851 32.708 65.6731 32.672 65.6731 32.632V32.584C65.6731 32.384 65.5891 32.22 65.4211 32.092C65.2531 31.956 65.0331 31.888 64.7611 31.888C64.4971 31.888 64.2851 31.952 64.1251 32.08C63.9651 32.2 63.8851 32.356 63.8851 32.548C63.8851 32.7 63.9411 32.828 64.0531 32.932C64.1651 33.028 64.2891 33.104 64.4251 33.16C64.5691 33.216 64.8171 33.304 65.1691 33.424C65.5451 33.552 65.8611 33.684 66.1171 33.82C66.3811 33.956 66.6051 34.144 66.7891 34.384C66.9731 34.624 67.0651 34.928 67.0651 35.296C67.0651 35.848 66.8571 36.284 66.4411 36.604C66.0331 36.916 65.4811 37.072 64.7851 37.072ZM70.6674 31.78C70.6674 31.82 70.6514 31.856 70.6194 31.888C70.5954 31.912 70.5634 31.924 70.5234 31.924H69.5514C69.5114 31.924 69.4914 31.944 69.4914 31.984V34.996C69.4914 35.292 69.5474 35.504 69.6594 35.632C69.7794 35.752 69.9634 35.808 70.2114 35.8H70.4274C70.4674 35.8 70.4994 35.816 70.5234 35.848C70.5554 35.872 70.5714 35.904 70.5714 35.944V36.856C70.5714 36.944 70.5234 36.996 70.4274 37.012H69.9234C69.3314 37.012 68.8874 36.908 68.5914 36.7C68.2954 36.492 68.1474 36.1 68.1474 35.524V31.984C68.1474 31.944 68.1274 31.924 68.0874 31.924H67.5354C67.4954 31.924 67.4594 31.912 67.4274 31.888C67.4034 31.856 67.3914 31.82 67.3914 31.78V31.012C67.3914 30.972 67.4034 30.94 67.4274 30.916C67.4594 30.884 67.4954 30.868 67.5354 30.868H68.0874C68.1274 30.868 68.1474 30.848 68.1474 30.808V29.44C68.1474 29.4 68.1594 29.368 68.1834 29.344C68.2154 29.312 68.2514 29.296 68.2914 29.296H69.3474C69.3874 29.296 69.4194 29.312 69.4434 29.344C69.4754 29.368 69.4914 29.4 69.4914 29.44V30.808C69.4914 30.848 69.5114 30.868 69.5514 30.868H70.5234C70.5634 30.868 70.5954 30.884 70.6194 30.916C70.6514 30.94 70.6674 30.972 70.6674 31.012V31.78ZM72.1675 30.028C71.9195 30.028 71.7155 29.948 71.5555 29.788C71.4035 29.628 71.3275 29.424 71.3275 29.176C71.3275 28.928 71.4035 28.724 71.5555 28.564C71.7155 28.404 71.9195 28.324 72.1675 28.324C72.4235 28.324 72.6275 28.404 72.7795 28.564C72.9395 28.716 73.0195 28.92 73.0195 29.176C73.0195 29.424 72.9395 29.628 72.7795 29.788C72.6195 29.948 72.4155 30.028 72.1675 30.028ZM71.6155 37C71.5755 37 71.5395 36.988 71.5075 36.964C71.4835 36.932 71.4715 36.896 71.4715 36.856V31C71.4715 30.96 71.4835 30.928 71.5075 30.904C71.5395 30.872 71.5755 30.856 71.6155 30.856H72.7195C72.7595 30.856 72.7915 30.872 72.8155 30.904C72.8475 30.928 72.8635 30.96 72.8635 31V36.856C72.8635 36.896 72.8475 36.932 72.8155 36.964C72.7915 36.988 72.7595 37 72.7195 37H71.6155ZM76.1543 30.772C76.6103 30.772 77.0143 30.86 77.3663 31.036C77.7183 31.204 77.9903 31.44 78.1823 31.744C78.3823 32.048 78.4823 32.396 78.4823 32.788V36.856C78.4823 36.896 78.4663 36.932 78.4343 36.964C78.4103 36.988 78.3783 37 78.3383 37H77.2343C77.1943 37 77.1583 36.988 77.1263 36.964C77.1023 36.932 77.0903 36.896 77.0903 36.856V36.556C77.0903 36.532 77.0823 36.516 77.0663 36.508C77.0503 36.5 77.0343 36.504 77.0183 36.52C76.6823 36.904 76.1983 37.096 75.5663 37.096C75.0383 37.096 74.5903 36.956 74.2223 36.676C73.8543 36.388 73.6703 35.924 73.6703 35.284C73.6703 34.612 73.8823 34.112 74.3063 33.784C74.7383 33.456 75.3303 33.292 76.0823 33.292H77.0303C77.0703 33.292 77.0903 33.272 77.0903 33.232V32.932C77.0903 32.636 77.0063 32.404 76.8383 32.236C76.6783 32.06 76.4543 31.972 76.1663 31.972C75.9343 31.972 75.7423 32.028 75.5903 32.14C75.4463 32.244 75.3543 32.388 75.3143 32.572C75.2903 32.66 75.2343 32.704 75.1463 32.704L73.9823 32.632C73.9423 32.632 73.9063 32.62 73.8743 32.596C73.8503 32.564 73.8423 32.532 73.8503 32.5C73.8983 31.988 74.1343 31.572 74.5583 31.252C74.9903 30.932 75.5223 30.772 76.1543 30.772ZM75.9263 35.968C76.2383 35.968 76.5103 35.88 76.7423 35.704C76.9743 35.52 77.0903 35.28 77.0903 34.984V34.36C77.0903 34.32 77.0703 34.3 77.0303 34.3H76.2263C75.8743 34.3 75.5943 34.376 75.3863 34.528C75.1863 34.68 75.0863 34.9 75.0863 35.188C75.0863 35.444 75.1623 35.64 75.3143 35.776C75.4743 35.904 75.6783 35.968 75.9263 35.968ZM82.1714 30.772C82.7554 30.772 83.2114 30.956 83.5394 31.324C83.8674 31.692 84.0314 32.2 84.0314 32.848V36.856C84.0314 36.896 84.0154 36.932 83.9834 36.964C83.9594 36.988 83.9274 37 83.8874 37H82.7834C82.7434 37 82.7074 36.988 82.6754 36.964C82.6514 36.932 82.6394 36.896 82.6394 36.856V33.04C82.6394 32.712 82.5554 32.452 82.3874 32.26C82.2274 32.068 82.0074 31.972 81.7274 31.972C81.4394 31.972 81.2074 32.072 81.0314 32.272C80.8634 32.464 80.7794 32.724 80.7794 33.052V36.856C80.7794 36.896 80.7634 36.932 80.7314 36.964C80.7074 36.988 80.6754 37 80.6354 37H79.5314C79.4914 37 79.4554 36.988 79.4234 36.964C79.3994 36.932 79.3874 36.896 79.3874 36.856V31.012C79.3874 30.972 79.3994 30.94 79.4234 30.916C79.4554 30.884 79.4914 30.868 79.5314 30.868H80.6354C80.6754 30.868 80.7074 30.884 80.7314 30.916C80.7634 30.94 80.7794 30.972 80.7794 31.012V31.324C80.7794 31.348 80.7874 31.364 80.8034 31.372C80.8194 31.38 80.8354 31.372 80.8514 31.348C81.1714 30.964 81.6114 30.772 82.1714 30.772ZM93.4894 36.82C93.5134 36.852 93.5254 36.884 93.5254 36.916C93.5254 36.972 93.4854 37 93.4054 37H92.1814C92.1094 37 92.0494 36.972 92.0014 36.916L91.5574 36.388C91.5334 36.356 91.5054 36.352 91.4734 36.376C90.8094 36.864 90.0774 37.108 89.2774 37.108C88.5654 37.108 87.9894 36.932 87.5494 36.58C87.1174 36.228 86.9014 35.716 86.9014 35.044C86.9014 34.508 87.0334 34.052 87.2974 33.676C87.5694 33.3 87.9374 32.952 88.4014 32.632C88.4254 32.608 88.4294 32.58 88.4134 32.548C88.0134 32.02 87.7494 31.624 87.6214 31.36C87.5014 31.096 87.4414 30.812 87.4414 30.508C87.4414 29.916 87.6374 29.436 88.0294 29.068C88.4294 28.692 88.9534 28.504 89.6014 28.504C90.0334 28.504 90.4214 28.592 90.7654 28.768C91.1094 28.936 91.3774 29.176 91.5694 29.488C91.7614 29.8 91.8574 30.16 91.8574 30.568C91.8574 31.064 91.7254 31.492 91.4614 31.852C91.1974 32.212 90.8334 32.548 90.3694 32.86C90.3454 32.884 90.3414 32.912 90.3574 32.944C90.6214 33.24 90.9614 33.648 91.3774 34.168L91.5814 34.432C91.6134 34.464 91.6454 34.468 91.6774 34.444C91.9254 34.108 92.1334 33.796 92.3014 33.508C92.3574 33.428 92.4214 33.412 92.4934 33.46L93.3094 33.928C93.3894 33.984 93.4054 34.048 93.3574 34.12C93.0774 34.592 92.7774 35.032 92.4574 35.44C92.4334 35.464 92.4334 35.488 92.4574 35.512L93.4894 36.82ZM89.6494 29.776C89.4014 29.776 89.2014 29.852 89.0494 30.004C88.9054 30.156 88.8334 30.356 88.8334 30.604C88.8334 30.756 88.8734 30.912 88.9534 31.072C89.0334 31.232 89.2094 31.488 89.4814 31.84C89.5054 31.872 89.5334 31.876 89.5654 31.852C89.8534 31.652 90.0734 31.452 90.2254 31.252C90.3854 31.052 90.4654 30.828 90.4654 30.58C90.4654 30.34 90.3894 30.148 90.2374 30.004C90.0854 29.852 89.8894 29.776 89.6494 29.776ZM89.3614 35.908C89.7934 35.908 90.2334 35.744 90.6814 35.416C90.7214 35.392 90.7254 35.364 90.6934 35.332L90.0934 34.612L89.9134 34.396L89.3014 33.652C89.2774 33.62 89.2494 33.616 89.2174 33.64C88.9294 33.848 88.7054 34.06 88.5454 34.276C88.3854 34.484 88.3054 34.72 88.3054 34.984C88.3054 35.264 88.3974 35.488 88.5814 35.656C88.7734 35.824 89.0334 35.908 89.3614 35.908ZM101.25 28.696C101.282 28.632 101.338 28.6 101.418 28.6H102.534C102.574 28.6 102.606 28.616 102.63 28.648C102.662 28.672 102.678 28.704 102.678 28.744V36.856C102.678 36.896 102.662 36.932 102.63 36.964C102.606 36.988 102.574 37 102.534 37H101.43C101.39 37 101.354 36.988 101.322 36.964C101.298 36.932 101.286 36.896 101.286 36.856V31.168C101.286 31.136 101.278 31.12 101.262 31.12C101.246 31.112 101.23 31.12 101.214 31.144L99.9422 33.244C99.9102 33.308 99.8542 33.34 99.7742 33.34H99.5462C99.4662 33.34 99.4102 33.308 99.3782 33.244L98.1062 31.156C98.0902 31.132 98.0742 31.124 98.0582 31.132C98.0422 31.132 98.0342 31.148 98.0342 31.18V36.856C98.0342 36.896 98.0182 36.932 97.9862 36.964C97.9622 36.988 97.9302 37 97.8902 37H96.7862C96.7462 37 96.7102 36.988 96.6782 36.964C96.6542 36.932 96.6422 36.896 96.6422 36.856V28.744C96.6422 28.704 96.6542 28.672 96.6782 28.648C96.7102 28.616 96.7462 28.6 96.7862 28.6H97.8902C97.9702 28.6 98.0262 28.632 98.0582 28.696L99.6302 31.204C99.6542 31.252 99.6782 31.252 99.7022 31.204L101.25 28.696ZM104.536 30.028C104.288 30.028 104.084 29.948 103.924 29.788C103.772 29.628 103.696 29.424 103.696 29.176C103.696 28.928 103.772 28.724 103.924 28.564C104.084 28.404 104.288 28.324 104.536 28.324C104.792 28.324 104.996 28.404 105.148 28.564C105.308 28.716 105.388 28.92 105.388 29.176C105.388 29.424 105.308 29.628 105.148 29.788C104.988 29.948 104.784 30.028 104.536 30.028ZM103.984 37C103.944 37 103.908 36.988 103.876 36.964C103.852 36.932 103.84 36.896 103.84 36.856V31C103.84 30.96 103.852 30.928 103.876 30.904C103.908 30.872 103.944 30.856 103.984 30.856H105.088C105.128 30.856 105.16 30.872 105.184 30.904C105.216 30.928 105.232 30.96 105.232 31V36.856C105.232 36.896 105.216 36.932 105.184 36.964C105.16 36.988 105.128 37 105.088 37H103.984ZM108.391 37.072C107.695 37.072 107.139 36.916 106.723 36.604C106.307 36.292 106.099 35.884 106.099 35.38V35.284C106.099 35.244 106.111 35.212 106.135 35.188C106.167 35.156 106.203 35.14 106.243 35.14H107.287C107.327 35.14 107.359 35.156 107.383 35.188C107.415 35.212 107.431 35.244 107.431 35.284V35.32C107.431 35.512 107.523 35.68 107.707 35.824C107.891 35.96 108.119 36.028 108.391 36.028C108.655 36.028 108.867 35.964 109.027 35.836C109.195 35.708 109.279 35.548 109.279 35.356C109.279 35.164 109.195 35.016 109.027 34.912C108.867 34.808 108.615 34.696 108.271 34.576L107.959 34.468C107.415 34.292 106.979 34.072 106.651 33.808C106.323 33.536 106.159 33.136 106.159 32.608C106.159 32.048 106.359 31.608 106.759 31.288C107.159 30.96 107.687 30.796 108.343 30.796C109.023 30.796 109.563 30.964 109.963 31.3C110.371 31.628 110.575 32.068 110.575 32.62V32.632C110.575 32.672 110.559 32.708 110.527 32.74C110.503 32.764 110.471 32.776 110.431 32.776H109.423C109.383 32.776 109.347 32.764 109.315 32.74C109.291 32.708 109.279 32.672 109.279 32.632V32.584C109.279 32.384 109.195 32.22 109.027 32.092C108.859 31.956 108.639 31.888 108.367 31.888C108.103 31.888 107.891 31.952 107.731 32.08C107.571 32.2 107.491 32.356 107.491 32.548C107.491 32.7 107.547 32.828 107.659 32.932C107.771 33.028 107.895 33.104 108.031 33.16C108.175 33.216 108.423 33.304 108.775 33.424C109.151 33.552 109.467 33.684 109.723 33.82C109.987 33.956 110.211 34.144 110.395 34.384C110.579 34.624 110.671 34.928 110.671 35.296C110.671 35.848 110.463 36.284 110.047 36.604C109.639 36.916 109.087 37.072 108.391 37.072ZM113.316 37.072C112.62 37.072 112.064 36.916 111.648 36.604C111.232 36.292 111.024 35.884 111.024 35.38V35.284C111.024 35.244 111.036 35.212 111.06 35.188C111.092 35.156 111.128 35.14 111.168 35.14H112.212C112.252 35.14 112.284 35.156 112.308 35.188C112.34 35.212 112.356 35.244 112.356 35.284V35.32C112.356 35.512 112.448 35.68 112.632 35.824C112.816 35.96 113.044 36.028 113.316 36.028C113.58 36.028 113.792 35.964 113.952 35.836C114.12 35.708 114.204 35.548 114.204 35.356C114.204 35.164 114.12 35.016 113.952 34.912C113.792 34.808 113.54 34.696 113.196 34.576L112.884 34.468C112.34 34.292 111.904 34.072 111.576 33.808C111.248 33.536 111.084 33.136 111.084 32.608C111.084 32.048 111.284 31.608 111.684 31.288C112.084 30.96 112.612 30.796 113.268 30.796C113.948 30.796 114.488 30.964 114.888 31.3C115.296 31.628 115.5 32.068 115.5 32.62V32.632C115.5 32.672 115.484 32.708 115.452 32.74C115.428 32.764 115.396 32.776 115.356 32.776H114.348C114.308 32.776 114.272 32.764 114.24 32.74C114.216 32.708 114.204 32.672 114.204 32.632V32.584C114.204 32.384 114.12 32.22 113.952 32.092C113.784 31.956 113.564 31.888 113.292 31.888C113.028 31.888 112.816 31.952 112.656 32.08C112.496 32.2 112.416 32.356 112.416 32.548C112.416 32.7 112.472 32.828 112.584 32.932C112.696 33.028 112.82 33.104 112.956 33.16C113.1 33.216 113.348 33.304 113.7 33.424C114.076 33.552 114.392 33.684 114.648 33.82C114.912 33.956 115.136 34.144 115.32 34.384C115.504 34.624 115.596 34.928 115.596 35.296C115.596 35.848 115.388 36.284 114.972 36.604C114.564 36.916 114.012 37.072 113.316 37.072ZM117.062 30.028C116.814 30.028 116.61 29.948 116.45 29.788C116.298 29.628 116.222 29.424 116.222 29.176C116.222 28.928 116.298 28.724 116.45 28.564C116.61 28.404 116.814 28.324 117.062 28.324C117.318 28.324 117.522 28.404 117.674 28.564C117.834 28.716 117.914 28.92 117.914 29.176C117.914 29.424 117.834 29.628 117.674 29.788C117.514 29.948 117.31 30.028 117.062 30.028ZM116.51 37C116.47 37 116.434 36.988 116.402 36.964C116.378 36.932 116.366 36.896 116.366 36.856V31C116.366 30.96 116.378 30.928 116.402 30.904C116.434 30.872 116.47 30.856 116.51 30.856H117.614C117.654 30.856 117.686 30.872 117.71 30.904C117.742 30.928 117.758 30.96 117.758 31V36.856C117.758 36.896 117.742 36.932 117.71 36.964C117.686 36.988 117.654 37 117.614 37H116.51ZM121.133 37.096C120.485 37.096 119.953 36.924 119.537 36.58C119.121 36.228 118.869 35.756 118.781 35.164C118.717 34.78 118.685 34.368 118.685 33.928C118.685 33.472 118.717 33.052 118.781 32.668C118.869 32.084 119.125 31.624 119.549 31.288C119.973 30.944 120.505 30.772 121.145 30.772C121.777 30.772 122.301 30.944 122.717 31.288C123.133 31.624 123.385 32.08 123.473 32.656C123.537 33.056 123.569 33.476 123.569 33.916C123.569 34.396 123.541 34.808 123.485 35.152C123.397 35.752 123.145 36.228 122.729 36.58C122.313 36.924 121.781 37.096 121.133 37.096ZM121.133 35.896C121.397 35.896 121.617 35.808 121.793 35.632C121.977 35.456 122.089 35.224 122.129 34.936C122.161 34.52 122.177 34.184 122.177 33.928C122.177 33.664 122.161 33.324 122.129 32.908C122.089 32.62 121.977 32.392 121.793 32.224C121.617 32.056 121.397 31.972 121.133 31.972C120.861 31.972 120.637 32.056 120.461 32.224C120.285 32.392 120.177 32.62 120.137 32.908C120.105 33.188 120.089 33.528 120.089 33.928C120.089 34.336 120.105 34.672 120.137 34.936C120.177 35.224 120.285 35.456 120.461 35.632C120.637 35.808 120.861 35.896 121.133 35.896ZM127.219 30.772C127.803 30.772 128.259 30.956 128.587 31.324C128.915 31.692 129.079 32.2 129.079 32.848V36.856C129.079 36.896 129.063 36.932 129.031 36.964C129.007 36.988 128.975 37 128.935 37H127.831C127.791 37 127.755 36.988 127.723 36.964C127.699 36.932 127.687 36.896 127.687 36.856V33.04C127.687 32.712 127.603 32.452 127.435 32.26C127.275 32.068 127.055 31.972 126.775 31.972C126.487 31.972 126.255 32.072 126.079 32.272C125.911 32.464 125.827 32.724 125.827 33.052V36.856C125.827 36.896 125.811 36.932 125.779 36.964C125.755 36.988 125.723 37 125.683 37H124.579C124.539 37 124.503 36.988 124.471 36.964C124.447 36.932 124.435 36.896 124.435 36.856V31.012C124.435 30.972 124.447 30.94 124.471 30.916C124.503 30.884 124.539 30.868 124.579 30.868H125.683C125.723 30.868 125.755 30.884 125.779 30.916C125.811 30.94 125.827 30.972 125.827 31.012V31.324C125.827 31.348 125.835 31.364 125.851 31.372C125.867 31.38 125.883 31.372 125.899 31.348C126.219 30.964 126.659 30.772 127.219 30.772ZM132.248 30.772C132.704 30.772 133.108 30.86 133.46 31.036C133.812 31.204 134.084 31.44 134.276 31.744C134.476 32.048 134.576 32.396 134.576 32.788V36.856C134.576 36.896 134.56 36.932 134.528 36.964C134.504 36.988 134.472 37 134.432 37H133.328C133.288 37 133.252 36.988 133.22 36.964C133.196 36.932 133.184 36.896 133.184 36.856V36.556C133.184 36.532 133.176 36.516 133.16 36.508C133.144 36.5 133.128 36.504 133.112 36.52C132.776 36.904 132.292 37.096 131.66 37.096C131.132 37.096 130.684 36.956 130.316 36.676C129.948 36.388 129.764 35.924 129.764 35.284C129.764 34.612 129.976 34.112 130.4 33.784C130.832 33.456 131.424 33.292 132.176 33.292H133.124C133.164 33.292 133.184 33.272 133.184 33.232V32.932C133.184 32.636 133.1 32.404 132.932 32.236C132.772 32.06 132.548 31.972 132.26 31.972C132.028 31.972 131.836 32.028 131.684 32.14C131.54 32.244 131.448 32.388 131.408 32.572C131.384 32.66 131.328 32.704 131.24 32.704L130.076 32.632C130.036 32.632 130 32.62 129.968 32.596C129.944 32.564 129.936 32.532 129.944 32.5C129.992 31.988 130.228 31.572 130.652 31.252C131.084 30.932 131.616 30.772 132.248 30.772ZM132.02 35.968C132.332 35.968 132.604 35.88 132.836 35.704C133.068 35.52 133.184 35.28 133.184 34.984V34.36C133.184 34.32 133.164 34.3 133.124 34.3H132.32C131.968 34.3 131.688 34.376 131.48 34.528C131.28 34.68 131.18 34.9 131.18 35.188C131.18 35.444 131.256 35.64 131.408 35.776C131.568 35.904 131.772 35.968 132.02 35.968ZM138.133 30.796C138.357 30.796 138.553 30.844 138.721 30.94C138.785 30.972 138.809 31.032 138.793 31.12L138.589 32.212C138.581 32.308 138.525 32.336 138.421 32.296C138.317 32.256 138.197 32.236 138.061 32.236C138.005 32.236 137.921 32.244 137.809 32.26C137.537 32.284 137.309 32.408 137.125 32.632C136.949 32.856 136.861 33.136 136.861 33.472V36.856C136.861 36.896 136.845 36.932 136.813 36.964C136.789 36.988 136.757 37 136.717 37H135.613C135.573 37 135.537 36.988 135.505 36.964C135.481 36.932 135.469 36.896 135.469 36.856V31.012C135.469 30.972 135.481 30.94 135.505 30.916C135.537 30.884 135.573 30.868 135.613 30.868H136.717C136.757 30.868 136.789 30.884 136.813 30.916C136.845 30.94 136.861 30.972 136.861 31.012V31.528C136.861 31.56 136.865 31.58 136.873 31.588C136.889 31.588 136.905 31.576 136.921 31.552C137.209 31.048 137.613 30.796 138.133 30.796ZM139.361 39.388C139.337 39.388 139.317 39.372 139.301 39.34C139.285 39.316 139.277 39.284 139.277 39.244V38.38C139.277 38.284 139.321 38.236 139.409 38.236C139.705 38.228 139.937 38.192 140.105 38.128C140.273 38.072 140.409 37.956 140.513 37.78C140.617 37.612 140.701 37.364 140.765 37.036C140.773 37.02 140.773 36.996 140.765 36.964L139.025 31.024L139.013 30.976C139.013 30.896 139.057 30.856 139.145 30.856H140.333C140.413 30.856 140.465 30.896 140.489 30.976L141.449 35.08C141.457 35.112 141.469 35.128 141.485 35.128C141.501 35.128 141.513 35.112 141.521 35.08L142.481 30.988C142.505 30.9 142.557 30.856 142.637 30.856L143.801 30.868C143.849 30.868 143.881 30.884 143.897 30.916C143.921 30.94 143.929 30.976 143.921 31.024L142.061 37.336C141.885 37.904 141.705 38.328 141.521 38.608C141.345 38.888 141.097 39.088 140.777 39.208C140.465 39.328 140.017 39.388 139.433 39.388H139.361ZM151.052 37C150.964 37 150.908 36.96 150.884 36.88L150.572 35.596C150.564 35.564 150.544 35.548 150.512 35.548H148.04C148.008 35.548 147.988 35.564 147.98 35.596L147.68 36.88C147.656 36.96 147.6 37 147.512 37H146.372C146.268 37 146.228 36.948 146.252 36.844L148.436 28.72C148.46 28.64 148.516 28.6 148.604 28.6H149.972C150.06 28.6 150.116 28.64 150.14 28.72L152.324 36.844L152.336 36.892C152.336 36.964 152.292 37 152.204 37H151.052ZM148.268 34.384C148.26 34.408 148.264 34.428 148.28 34.444C148.296 34.452 148.312 34.456 148.328 34.456H150.224C150.24 34.456 150.256 34.452 150.272 34.444C150.288 34.428 150.292 34.408 150.284 34.384L149.3 30.448C149.292 30.424 149.28 30.412 149.264 30.412C149.248 30.412 149.236 30.424 149.228 30.448L148.268 34.384ZM153.076 37C153.036 37 153 36.988 152.968 36.964C152.944 36.932 152.932 36.896 152.932 36.856V28.744C152.932 28.704 152.944 28.672 152.968 28.648C153 28.616 153.036 28.6 153.076 28.6H154.18C154.22 28.6 154.252 28.616 154.276 28.648C154.308 28.672 154.324 28.704 154.324 28.744V36.856C154.324 36.896 154.308 36.932 154.276 36.964C154.252 36.988 154.22 37 154.18 37H153.076ZM155.412 37C155.372 37 155.336 36.988 155.304 36.964C155.28 36.932 155.268 36.896 155.268 36.856V28.744C155.268 28.704 155.28 28.672 155.304 28.648C155.336 28.616 155.372 28.6 155.412 28.6H156.516C156.556 28.6 156.588 28.616 156.612 28.648C156.644 28.672 156.66 28.704 156.66 28.744V36.856C156.66 36.896 156.644 36.932 156.612 36.964C156.588 36.988 156.556 37 156.516 37H155.412ZM158.383 30.028C158.135 30.028 157.931 29.948 157.771 29.788C157.619 29.628 157.543 29.424 157.543 29.176C157.543 28.928 157.619 28.724 157.771 28.564C157.931 28.404 158.135 28.324 158.383 28.324C158.639 28.324 158.843 28.404 158.995 28.564C159.155 28.716 159.235 28.92 159.235 29.176C159.235 29.424 159.155 29.628 158.995 29.788C158.835 29.948 158.631 30.028 158.383 30.028ZM157.831 37C157.791 37 157.755 36.988 157.723 36.964C157.699 36.932 157.687 36.896 157.687 36.856V31C157.687 30.96 157.699 30.928 157.723 30.904C157.755 30.872 157.791 30.856 157.831 30.856H158.935C158.975 30.856 159.007 30.872 159.031 30.904C159.063 30.928 159.079 30.96 159.079 31V36.856C159.079 36.896 159.063 36.932 159.031 36.964C159.007 36.988 158.975 37 158.935 37H157.831ZM162.37 30.772C162.826 30.772 163.23 30.86 163.582 31.036C163.934 31.204 164.206 31.44 164.398 31.744C164.598 32.048 164.698 32.396 164.698 32.788V36.856C164.698 36.896 164.682 36.932 164.65 36.964C164.626 36.988 164.594 37 164.554 37H163.45C163.41 37 163.374 36.988 163.342 36.964C163.318 36.932 163.306 36.896 163.306 36.856V36.556C163.306 36.532 163.298 36.516 163.282 36.508C163.266 36.5 163.25 36.504 163.234 36.52C162.898 36.904 162.414 37.096 161.782 37.096C161.254 37.096 160.806 36.956 160.438 36.676C160.07 36.388 159.886 35.924 159.886 35.284C159.886 34.612 160.098 34.112 160.522 33.784C160.954 33.456 161.546 33.292 162.298 33.292H163.246C163.286 33.292 163.306 33.272 163.306 33.232V32.932C163.306 32.636 163.222 32.404 163.054 32.236C162.894 32.06 162.67 31.972 162.382 31.972C162.15 31.972 161.958 32.028 161.806 32.14C161.662 32.244 161.57 32.388 161.53 32.572C161.506 32.66 161.45 32.704 161.362 32.704L160.198 32.632C160.158 32.632 160.122 32.62 160.09 32.596C160.066 32.564 160.058 32.532 160.066 32.5C160.114 31.988 160.35 31.572 160.774 31.252C161.206 30.932 161.738 30.772 162.37 30.772ZM162.142 35.968C162.454 35.968 162.726 35.88 162.958 35.704C163.19 35.52 163.306 35.28 163.306 34.984V34.36C163.306 34.32 163.286 34.3 163.246 34.3H162.442C162.09 34.3 161.81 34.376 161.602 34.528C161.402 34.68 161.302 34.9 161.302 35.188C161.302 35.444 161.378 35.64 161.53 35.776C161.69 35.904 161.894 35.968 162.142 35.968ZM168.387 30.772C168.971 30.772 169.427 30.956 169.755 31.324C170.083 31.692 170.247 32.2 170.247 32.848V36.856C170.247 36.896 170.231 36.932 170.199 36.964C170.175 36.988 170.143 37 170.103 37H168.999C168.959 37 168.923 36.988 168.891 36.964C168.867 36.932 168.855 36.896 168.855 36.856V33.04C168.855 32.712 168.771 32.452 168.603 32.26C168.443 32.068 168.223 31.972 167.943 31.972C167.655 31.972 167.423 32.072 167.247 32.272C167.079 32.464 166.995 32.724 166.995 33.052V36.856C166.995 36.896 166.979 36.932 166.947 36.964C166.923 36.988 166.891 37 166.851 37H165.747C165.707 37 165.671 36.988 165.639 36.964C165.615 36.932 165.603 36.896 165.603 36.856V31.012C165.603 30.972 165.615 30.94 165.639 30.916C165.671 30.884 165.707 30.868 165.747 30.868H166.851C166.891 30.868 166.923 30.884 166.947 30.916C166.979 30.94 166.995 30.972 166.995 31.012V31.324C166.995 31.348 167.003 31.364 167.019 31.372C167.035 31.38 167.051 31.372 167.067 31.348C167.387 30.964 167.827 30.772 168.387 30.772ZM173.489 37.096C172.841 37.096 172.309 36.932 171.893 36.604C171.485 36.268 171.237 35.812 171.149 35.236C171.085 34.908 171.053 34.468 171.053 33.916C171.053 33.412 171.085 32.976 171.149 32.608C171.237 32.048 171.489 31.604 171.905 31.276C172.321 30.94 172.849 30.772 173.489 30.772C174.105 30.772 174.625 30.932 175.049 31.252C175.473 31.564 175.729 31.976 175.817 32.488C175.825 32.52 175.833 32.56 175.841 32.608C175.849 32.656 175.853 32.716 175.853 32.788V32.812C175.853 32.884 175.809 32.928 175.721 32.944L174.629 33.052H174.605C174.533 33.052 174.489 33.008 174.473 32.92C174.473 32.864 174.465 32.804 174.449 32.74C174.409 32.524 174.301 32.344 174.125 32.2C173.957 32.048 173.741 31.972 173.477 31.972C173.213 31.972 172.993 32.052 172.817 32.212C172.649 32.372 172.545 32.584 172.505 32.848C172.465 33.152 172.445 33.512 172.445 33.928C172.445 34.384 172.469 34.752 172.517 35.032C172.557 35.296 172.661 35.508 172.829 35.668C172.997 35.82 173.213 35.896 173.477 35.896C173.749 35.896 173.969 35.82 174.137 35.668C174.313 35.508 174.417 35.316 174.449 35.092L174.461 34.972C174.469 34.932 174.489 34.9 174.521 34.876C174.553 34.844 174.589 34.832 174.629 34.84L175.709 34.936C175.805 34.952 175.853 35.004 175.853 35.092L175.829 35.296C175.757 35.84 175.509 36.276 175.085 36.604C174.661 36.932 174.129 37.096 173.489 37.096ZM181.247 32.908C181.271 33.172 181.283 33.476 181.283 33.82L181.271 34.336C181.271 34.432 181.223 34.48 181.127 34.48H177.911C177.871 34.48 177.851 34.5 177.851 34.54C177.867 34.764 177.883 34.928 177.899 35.032C177.939 35.296 178.051 35.508 178.235 35.668C178.419 35.828 178.651 35.908 178.931 35.908C179.171 35.9 179.371 35.84 179.531 35.728C179.699 35.616 179.827 35.46 179.915 35.26C179.955 35.172 180.015 35.14 180.095 35.164L181.079 35.368C181.175 35.4 181.207 35.46 181.175 35.548C181.015 36.044 180.739 36.428 180.347 36.7C179.963 36.964 179.491 37.096 178.931 37.096C178.267 37.096 177.735 36.936 177.335 36.616C176.935 36.296 176.675 35.852 176.555 35.284C176.515 35.068 176.487 34.84 176.471 34.6C176.463 34.36 176.459 34.04 176.459 33.64C176.459 33.224 176.479 32.908 176.519 32.692C176.599 32.108 176.847 31.644 177.263 31.3C177.679 30.948 178.207 30.772 178.847 30.772C179.543 30.772 180.103 30.968 180.527 31.36C180.959 31.752 181.199 32.268 181.247 32.908ZM178.859 31.972C178.595 31.972 178.375 32.052 178.199 32.212C178.031 32.364 177.927 32.572 177.887 32.836C177.863 33.012 177.851 33.212 177.851 33.436C177.851 33.476 177.871 33.496 177.911 33.496H179.819C179.859 33.496 179.879 33.476 179.879 33.436C179.863 33.164 179.847 32.968 179.831 32.848C179.799 32.584 179.695 32.372 179.519 32.212C179.343 32.052 179.123 31.972 178.859 31.972ZM188.127 28.744C188.127 28.704 188.139 28.672 188.163 28.648C188.195 28.616 188.231 28.6 188.271 28.6H189.375C189.415 28.6 189.447 28.616 189.471 28.648C189.503 28.672 189.519 28.704 189.519 28.744V36.856C189.519 36.896 189.503 36.932 189.471 36.964C189.447 36.988 189.415 37 189.375 37H188.271C188.231 37 188.195 36.988 188.163 36.964C188.139 36.932 188.127 36.896 188.127 36.856V33.448C188.127 33.408 188.107 33.388 188.067 33.388H185.787C185.747 33.388 185.727 33.408 185.727 33.448V36.856C185.727 36.896 185.711 36.932 185.679 36.964C185.655 36.988 185.623 37 185.583 37H184.479C184.439 37 184.403 36.988 184.371 36.964C184.347 36.932 184.335 36.896 184.335 36.856V28.744C184.335 28.704 184.347 28.672 184.371 28.648C184.403 28.616 184.439 28.6 184.479 28.6H185.583C185.623 28.6 185.655 28.616 185.679 28.648C185.711 28.672 185.727 28.704 185.727 28.744V32.116C185.727 32.156 185.747 32.176 185.787 32.176H188.067C188.107 32.176 188.127 32.156 188.127 32.116V28.744ZM192.813 30.772C193.269 30.772 193.673 30.86 194.025 31.036C194.377 31.204 194.649 31.44 194.841 31.744C195.041 32.048 195.141 32.396 195.141 32.788V36.856C195.141 36.896 195.125 36.932 195.093 36.964C195.069 36.988 195.037 37 194.997 37H193.893C193.853 37 193.817 36.988 193.785 36.964C193.761 36.932 193.749 36.896 193.749 36.856V36.556C193.749 36.532 193.741 36.516 193.725 36.508C193.709 36.5 193.693 36.504 193.677 36.52C193.341 36.904 192.857 37.096 192.225 37.096C191.697 37.096 191.249 36.956 190.881 36.676C190.513 36.388 190.329 35.924 190.329 35.284C190.329 34.612 190.541 34.112 190.965 33.784C191.397 33.456 191.989 33.292 192.741 33.292H193.689C193.729 33.292 193.749 33.272 193.749 33.232V32.932C193.749 32.636 193.665 32.404 193.497 32.236C193.337 32.06 193.113 31.972 192.825 31.972C192.593 31.972 192.401 32.028 192.249 32.14C192.105 32.244 192.013 32.388 191.973 32.572C191.949 32.66 191.893 32.704 191.805 32.704L190.641 32.632C190.601 32.632 190.565 32.62 190.533 32.596C190.509 32.564 190.501 32.532 190.509 32.5C190.557 31.988 190.793 31.572 191.217 31.252C191.649 30.932 192.181 30.772 192.813 30.772ZM192.585 35.968C192.897 35.968 193.169 35.88 193.401 35.704C193.633 35.52 193.749 35.28 193.749 34.984V34.36C193.749 34.32 193.729 34.3 193.689 34.3H192.885C192.533 34.3 192.253 34.376 192.045 34.528C191.845 34.68 191.745 34.9 191.745 35.188C191.745 35.444 191.821 35.64 191.973 35.776C192.133 35.904 192.337 35.968 192.585 35.968ZM199.238 31.012C199.238 30.972 199.25 30.94 199.274 30.916C199.306 30.884 199.342 30.868 199.382 30.868H200.486C200.526 30.868 200.558 30.884 200.582 30.916C200.614 30.94 200.63 30.972 200.63 31.012V36.856C200.63 36.896 200.614 36.932 200.582 36.964C200.558 36.988 200.526 37 200.486 37H199.382C199.342 37 199.306 36.988 199.274 36.964C199.25 36.932 199.238 36.896 199.238 36.856V36.532C199.238 36.508 199.23 36.496 199.214 36.496C199.198 36.488 199.182 36.496 199.166 36.52C198.894 36.896 198.466 37.084 197.882 37.084C197.338 37.084 196.886 36.924 196.526 36.604C196.166 36.276 195.986 35.8 195.986 35.176V31.012C195.986 30.972 195.998 30.94 196.022 30.916C196.054 30.884 196.09 30.868 196.13 30.868H197.234C197.274 30.868 197.306 30.884 197.33 30.916C197.362 30.94 197.378 30.972 197.378 31.012V34.828C197.378 35.164 197.454 35.428 197.606 35.62C197.766 35.804 197.994 35.896 198.29 35.896C198.586 35.896 198.818 35.8 198.986 35.608C199.154 35.408 199.238 35.14 199.238 34.804V31.012ZM208.769 28.6C208.809 28.6 208.841 28.616 208.865 28.648C208.897 28.672 208.913 28.704 208.913 28.744V29.668C208.913 29.708 208.897 29.744 208.865 29.776C208.841 29.8 208.809 29.812 208.769 29.812H206.909C206.869 29.812 206.849 29.832 206.849 29.872V36.856C206.849 36.896 206.833 36.932 206.801 36.964C206.777 36.988 206.745 37 206.705 37H205.601C205.561 37 205.525 36.988 205.493 36.964C205.469 36.932 205.457 36.896 205.457 36.856V29.872C205.457 29.832 205.437 29.812 205.397 29.812H203.609C203.569 29.812 203.533 29.8 203.501 29.776C203.477 29.744 203.465 29.708 203.465 29.668V28.744C203.465 28.704 203.477 28.672 203.501 28.648C203.533 28.616 203.569 28.6 203.609 28.6H208.769ZM211.437 30.772C211.893 30.772 212.297 30.86 212.649 31.036C213.001 31.204 213.273 31.44 213.465 31.744C213.665 32.048 213.765 32.396 213.765 32.788V36.856C213.765 36.896 213.749 36.932 213.717 36.964C213.693 36.988 213.661 37 213.621 37H212.517C212.477 37 212.441 36.988 212.409 36.964C212.385 36.932 212.373 36.896 212.373 36.856V36.556C212.373 36.532 212.365 36.516 212.349 36.508C212.333 36.5 212.317 36.504 212.301 36.52C211.965 36.904 211.481 37.096 210.849 37.096C210.321 37.096 209.873 36.956 209.505 36.676C209.137 36.388 208.953 35.924 208.953 35.284C208.953 34.612 209.165 34.112 209.589 33.784C210.021 33.456 210.613 33.292 211.365 33.292H212.313C212.353 33.292 212.373 33.272 212.373 33.232V32.932C212.373 32.636 212.289 32.404 212.121 32.236C211.961 32.06 211.737 31.972 211.449 31.972C211.217 31.972 211.025 32.028 210.873 32.14C210.729 32.244 210.637 32.388 210.597 32.572C210.573 32.66 210.517 32.704 210.429 32.704L209.265 32.632C209.225 32.632 209.189 32.62 209.157 32.596C209.133 32.564 209.125 32.532 209.133 32.5C209.181 31.988 209.417 31.572 209.841 31.252C210.273 30.932 210.805 30.772 211.437 30.772ZM211.209 35.968C211.521 35.968 211.793 35.88 212.025 35.704C212.257 35.52 212.373 35.28 212.373 34.984V34.36C212.373 34.32 212.353 34.3 212.313 34.3H211.509C211.157 34.3 210.877 34.376 210.669 34.528C210.469 34.68 210.369 34.9 210.369 35.188C210.369 35.444 210.445 35.64 210.597 35.776C210.757 35.904 210.961 35.968 211.209 35.968ZM214.814 37C214.774 37 214.738 36.988 214.706 36.964C214.682 36.932 214.67 36.896 214.67 36.856V28.744C214.67 28.704 214.682 28.672 214.706 28.648C214.738 28.616 214.774 28.6 214.814 28.6H215.918C215.958 28.6 215.99 28.616 216.014 28.648C216.046 28.672 216.062 28.704 216.062 28.744V33.04C216.062 33.064 216.07 33.08 216.086 33.088C216.102 33.088 216.118 33.08 216.134 33.064L217.754 30.952C217.802 30.896 217.862 30.868 217.934 30.868H219.146C219.226 30.868 219.266 30.896 219.266 30.952C219.266 30.976 219.254 31.008 219.23 31.048L217.838 32.908C217.822 32.932 217.822 32.96 217.838 32.992L219.446 36.832C219.454 36.848 219.458 36.872 219.458 36.904C219.458 36.968 219.418 37 219.338 37H218.186C218.098 37 218.042 36.96 218.018 36.88L216.926 34.012C216.918 33.988 216.906 33.976 216.89 33.976C216.882 33.976 216.87 33.984 216.854 34L216.086 34.972C216.07 35.004 216.062 35.028 216.062 35.044V36.856C216.062 36.896 216.046 36.932 216.014 36.964C215.99 36.988 215.958 37 215.918 37H214.814ZM224.804 37.096C224.284 37.096 223.824 36.992 223.424 36.784C223.024 36.568 222.712 36.268 222.488 35.884C222.272 35.5 222.164 35.056 222.164 34.552V31.024C222.164 30.52 222.272 30.08 222.488 29.704C222.712 29.32 223.024 29.024 223.424 28.816C223.824 28.608 224.284 28.504 224.804 28.504C225.324 28.504 225.784 28.608 226.184 28.816C226.584 29.016 226.892 29.304 227.108 29.68C227.332 30.048 227.444 30.48 227.444 30.976V31.048C227.444 31.088 227.428 31.124 227.396 31.156C227.372 31.188 227.34 31.204 227.3 31.204L226.184 31.252C226.088 31.252 226.04 31.204 226.04 31.108V30.964C226.04 30.588 225.924 30.284 225.692 30.052C225.468 29.82 225.172 29.704 224.804 29.704C224.428 29.704 224.124 29.82 223.892 30.052C223.668 30.284 223.556 30.588 223.556 30.964V34.648C223.556 35.024 223.668 35.328 223.892 35.56C224.124 35.784 224.428 35.896 224.804 35.896C225.172 35.896 225.468 35.784 225.692 35.56C225.924 35.328 226.04 35.024 226.04 34.648V34.492C226.04 34.404 226.088 34.36 226.184 34.36L227.3 34.408C227.34 34.408 227.372 34.424 227.396 34.456C227.428 34.48 227.444 34.512 227.444 34.552V34.6C227.444 35.096 227.332 35.536 227.108 35.92C226.892 36.296 226.584 36.588 226.184 36.796C225.784 36.996 225.324 37.096 224.804 37.096ZM231.117 30.772C231.701 30.772 232.157 30.956 232.485 31.324C232.813 31.692 232.977 32.2 232.977 32.848V36.856C232.977 36.896 232.961 36.932 232.929 36.964C232.905 36.988 232.873 37 232.833 37H231.729C231.689 37 231.653 36.988 231.621 36.964C231.597 36.932 231.585 36.896 231.585 36.856V33.04C231.585 32.712 231.501 32.452 231.333 32.26C231.173 32.068 230.953 31.972 230.673 31.972C230.385 31.972 230.153 32.072 229.977 32.272C229.809 32.464 229.725 32.724 229.725 33.052V36.856C229.725 36.896 229.709 36.932 229.677 36.964C229.653 36.988 229.621 37 229.581 37H228.477C228.437 37 228.401 36.988 228.369 36.964C228.345 36.932 228.333 36.896 228.333 36.856V28.744C228.333 28.704 228.345 28.672 228.369 28.648C228.401 28.616 228.437 28.6 228.477 28.6H229.581C229.621 28.6 229.653 28.616 229.677 28.648C229.709 28.672 229.725 28.704 229.725 28.744V31.324C229.725 31.348 229.733 31.364 229.749 31.372C229.765 31.38 229.781 31.372 229.797 31.348C230.117 30.964 230.557 30.772 231.117 30.772ZM237.13 31.012C237.13 30.972 237.142 30.94 237.166 30.916C237.198 30.884 237.234 30.868 237.274 30.868H238.378C238.418 30.868 238.45 30.884 238.474 30.916C238.506 30.94 238.522 30.972 238.522 31.012V36.856C238.522 36.896 238.506 36.932 238.474 36.964C238.45 36.988 238.418 37 238.378 37H237.274C237.234 37 237.198 36.988 237.166 36.964C237.142 36.932 237.13 36.896 237.13 36.856V36.532C237.13 36.508 237.122 36.496 237.106 36.496C237.09 36.488 237.074 36.496 237.058 36.52C236.786 36.896 236.358 37.084 235.774 37.084C235.23 37.084 234.778 36.924 234.418 36.604C234.058 36.276 233.878 35.8 233.878 35.176V31.012C233.878 30.972 233.89 30.94 233.914 30.916C233.946 30.884 233.982 30.868 234.022 30.868H235.126C235.166 30.868 235.198 30.884 235.222 30.916C235.254 30.94 235.27 30.972 235.27 31.012V34.828C235.27 35.164 235.346 35.428 235.498 35.62C235.658 35.804 235.886 35.896 236.182 35.896C236.478 35.896 236.71 35.8 236.878 35.608C237.046 35.408 237.13 35.14 237.13 34.804V31.012ZM242.172 30.796C242.396 30.796 242.592 30.844 242.76 30.94C242.824 30.972 242.848 31.032 242.832 31.12L242.628 32.212C242.62 32.308 242.564 32.336 242.46 32.296C242.356 32.256 242.236 32.236 242.1 32.236C242.044 32.236 241.96 32.244 241.848 32.26C241.576 32.284 241.348 32.408 241.164 32.632C240.988 32.856 240.9 33.136 240.9 33.472V36.856C240.9 36.896 240.884 36.932 240.852 36.964C240.828 36.988 240.796 37 240.756 37H239.652C239.612 37 239.576 36.988 239.544 36.964C239.52 36.932 239.508 36.896 239.508 36.856V31.012C239.508 30.972 239.52 30.94 239.544 30.916C239.576 30.884 239.612 30.868 239.652 30.868H240.756C240.796 30.868 240.828 30.884 240.852 30.916C240.884 30.94 240.9 30.972 240.9 31.012V31.528C240.9 31.56 240.904 31.58 240.912 31.588C240.928 31.588 240.944 31.576 240.96 31.552C241.248 31.048 241.652 30.796 242.172 30.796ZM245.542 37.096C244.894 37.096 244.362 36.932 243.946 36.604C243.538 36.268 243.29 35.812 243.202 35.236C243.138 34.908 243.106 34.468 243.106 33.916C243.106 33.412 243.138 32.976 243.202 32.608C243.29 32.048 243.542 31.604 243.958 31.276C244.374 30.94 244.902 30.772 245.542 30.772C246.158 30.772 246.678 30.932 247.102 31.252C247.526 31.564 247.782 31.976 247.87 32.488C247.878 32.52 247.886 32.56 247.894 32.608C247.902 32.656 247.906 32.716 247.906 32.788V32.812C247.906 32.884 247.862 32.928 247.774 32.944L246.682 33.052H246.658C246.586 33.052 246.542 33.008 246.526 32.92C246.526 32.864 246.518 32.804 246.502 32.74C246.462 32.524 246.354 32.344 246.178 32.2C246.01 32.048 245.794 31.972 245.53 31.972C245.266 31.972 245.046 32.052 244.87 32.212C244.702 32.372 244.598 32.584 244.558 32.848C244.518 33.152 244.498 33.512 244.498 33.928C244.498 34.384 244.522 34.752 244.57 35.032C244.61 35.296 244.714 35.508 244.882 35.668C245.05 35.82 245.266 35.896 245.53 35.896C245.802 35.896 246.022 35.82 246.19 35.668C246.366 35.508 246.47 35.316 246.502 35.092L246.514 34.972C246.522 34.932 246.542 34.9 246.574 34.876C246.606 34.844 246.642 34.832 246.682 34.84L247.762 34.936C247.858 34.952 247.906 35.004 247.906 35.092L247.882 35.296C247.81 35.84 247.562 36.276 247.138 36.604C246.714 36.932 246.182 37.096 245.542 37.096ZM251.451 30.772C252.035 30.772 252.491 30.956 252.819 31.324C253.147 31.692 253.311 32.2 253.311 32.848V36.856C253.311 36.896 253.295 36.932 253.263 36.964C253.239 36.988 253.207 37 253.167 37H252.063C252.023 37 251.987 36.988 251.955 36.964C251.931 36.932 251.919 36.896 251.919 36.856V33.04C251.919 32.712 251.835 32.452 251.667 32.26C251.507 32.068 251.287 31.972 251.007 31.972C250.719 31.972 250.487 32.072 250.311 32.272C250.143 32.464 250.059 32.724 250.059 33.052V36.856C250.059 36.896 250.043 36.932 250.011 36.964C249.987 36.988 249.955 37 249.915 37H248.811C248.771 37 248.735 36.988 248.703 36.964C248.679 36.932 248.667 36.896 248.667 36.856V28.744C248.667 28.704 248.679 28.672 248.703 28.648C248.735 28.616 248.771 28.6 248.811 28.6H249.915C249.955 28.6 249.987 28.616 250.011 28.648C250.043 28.672 250.059 28.704 250.059 28.744V31.324C250.059 31.348 250.067 31.364 250.083 31.372C250.099 31.38 250.115 31.372 250.131 31.348C250.451 30.964 250.891 30.772 251.451 30.772Z" fill="white"/>
<path d="M32.0046 12.162L31.9122 12.0378H20.6346L20.5427 12.162C20.4718 12.2571 19.0065 14.2452 18.6335 16.3997V8.48907H25.194V6.29846H18.6335V0H16.4519V6.29846H9.87432V8.48907H16.4519V9.68688C13.8613 10.4945 7.02911 12.6193 5.16038 13.2107C1.78451 14.2793 0 16.3171 0 19.0985C0 21.7501 2.77808 22.61 3.80269 22.8374C3.76406 23.2679 3.50632 26.1158 3.50632 26.1158H10.4531L11.201 35H23.9832L24.4607 29.329H29.9529L30.2062 27.0924L29.8262 27.2055C29.5014 27.2906 28.5331 27.4671 27.9607 27.2676C27.2837 27.0347 27.2312 25.6722 27.2312 25.2597V25.1503C27.2312 24.5744 27.2261 23.704 27.6573 22.9455C28.0297 22.2919 29.1645 21.911 30.165 21.5749L30.6792 21.3997C32.8202 20.6436 34 19.2054 34 17.3484C34 14.867 32.0838 12.2714 32.0046 12.162ZM4.03699 20.7325L4.03066 20.817L3.9458 20.8008L3.84068 20.7803C2.92626 20.6088 2.08024 20.251 2.08024 18.8028C2.08024 17.0744 3.184 16.2842 4.37641 15.6871L4.50306 15.625L4.03699 20.7325ZM21.8681 21.4016L22.3823 21.5774C23.184 21.8464 24.0712 22.144 24.5842 22.5882L20.6732 27.4838C20.4344 26.9781 19.4307 24.8559 18.6335 23.1685V18.1902C18.94 19.6403 20.0621 20.7642 21.8681 21.4016V21.4016ZM5.91712 23.8475L6.73275 14.8273L12.4067 13.0567L12.3624 13.1971C12.1712 13.8127 12.0348 14.4433 11.9546 15.082C11.9283 15.3548 11.9175 15.6288 11.9223 15.9027C11.9223 17.6311 12.1433 21.1326 12.3282 23.7655L12.3345 23.8475H11.6069L10.1042 21.9669L10.2625 23.8475H5.91712ZM13.6605 26.1158H14.5845L13.9765 17.1347C13.8834 15.6952 13.924 13.7338 14.6503 12.5596C14.9258 12.1148 15.6806 11.3985 16.4519 10.7269V23.3785L14.5116 27.4838L13.4193 26.117L13.6605 26.1158ZM22.0784 32.966H13.1083C13.0684 32.5124 12.8329 29.8428 12.7088 28.4363L14.8365 31.0736L17.5924 25.4759C18.0946 26.4954 20.3477 31.0736 20.3477 31.0736L22.4761 28.4363C22.3519 29.8422 22.1164 32.5124 22.0784 32.966ZM25.3181 25.1522V25.2616C25.3181 25.6635 25.2681 26.9682 24.6386 27.2496L24.9856 23.1287C25.32 23.8413 25.3181 24.6216 25.3162 25.1522H25.3181ZM30.2809 19.5539C29.2158 20.1752 27.7555 20.5281 26.2756 20.5281C24.7285 20.5281 23.2898 20.1827 22.2228 19.5552C21.1697 18.9339 20.5896 18.0852 20.5896 17.1639C20.5896 15.4399 21.461 14.3383 21.7295 14.0408H30.8173C31.0851 14.3383 31.9571 15.4399 31.9571 17.1639C31.9571 18.079 31.3612 18.9252 30.279 19.5539H30.2809Z" fill="white"/>
</g>
<defs>
<clipPath id="clip0">
<rect width="254" height="39" fill="white"/>
</clipPath>
</defs>
</svg>
