<svg width="246" height="39" viewBox="0 0 246 39" fill="none" xmlns="http://www.w3.org/2000/svg">
<path d="M32.0046 13.5095L31.9122 13.3817H20.6346L20.5427 13.5095C20.4718 13.6073 19.0065 15.6522 18.6335 17.8683V9.73161H25.194V7.47842H18.6335V1H16.4519V7.47842H9.87432V9.73161H16.4519V10.9636C13.8613 11.7944 7.02911 13.9798 5.16038 14.5882C1.78451 15.6873 0 17.7833 0 20.6442C0 23.3716 2.77808 24.256 3.80269 24.4898C3.76406 24.9327 3.50632 27.862 3.50632 27.862H10.4531L11.201 37H23.9832L24.4607 31.167H29.9529L30.2062 28.8665L29.8262 28.9828C29.5014 29.0704 28.5331 29.2518 27.9607 29.0467C27.2837 28.8071 27.2312 27.4057 27.2312 26.9814V26.8689C27.2312 26.2766 27.2261 25.3813 27.6573 24.601C28.0297 23.9288 29.1645 23.5371 30.165 23.1914L30.6792 23.0111C32.8202 22.2335 34 20.7541 34 18.8441C34 16.2918 32.0838 13.622 32.0046 13.5095ZM4.03699 22.3248L4.03066 22.4117L3.9458 22.3951L3.84068 22.374C2.92626 22.1977 2.08024 21.8296 2.08024 20.34C2.08024 18.5623 3.184 17.7494 4.37641 17.1353L4.50306 17.0714L4.03699 22.3248ZM21.8681 23.0131L22.3823 23.1939C23.184 23.4706 24.0712 23.7767 24.5842 24.2336L20.6732 29.2691C20.4344 28.7489 19.4307 26.566 18.6335 24.8304V19.71C18.94 21.2014 20.0621 22.3574 21.8681 23.0131V23.0131ZM5.91712 25.5289L6.73275 16.2509L12.4067 14.4297L12.3624 14.5741C12.1712 15.2073 12.0348 15.856 11.9546 16.5129C11.9283 16.7935 11.9175 17.0753 11.9223 17.3571C11.9223 19.1348 12.1433 22.7364 12.3282 25.4446L12.3345 25.5289H11.6069L10.1042 23.5946L10.2625 25.5289H5.91712ZM13.6605 27.862H14.5845L13.9765 18.6243C13.8834 17.1436 13.924 15.1262 14.6503 13.9185C14.9258 13.4609 15.6806 12.7242 16.4519 12.0334V25.0464L14.5116 29.2691L13.4193 27.8633L13.6605 27.862ZM22.0784 34.9078H13.1083C13.0684 34.4414 12.8329 31.6955 12.7088 30.2487L14.8365 32.9614L17.5924 27.2038C18.0946 28.2524 20.3477 32.9614 20.3477 32.9614L22.4761 30.2487C22.3519 31.6948 22.1164 34.4414 22.0784 34.9078ZM25.3181 26.8708V26.9833C25.3181 27.3968 25.2681 28.7387 24.6386 29.0282L24.9856 24.7895C25.32 25.5225 25.3181 26.3251 25.3162 26.8708H25.3181ZM30.2809 21.1126C29.2158 21.7516 27.7555 22.1146 26.2756 22.1146C24.7285 22.1146 23.2898 21.7593 22.2228 21.1139C21.1697 20.4749 20.5896 19.602 20.5896 18.6543C20.5896 16.881 21.461 15.748 21.7295 15.4419H30.8173C31.0851 15.748 31.9571 16.881 31.9571 18.6543C31.9571 19.5956 31.3612 20.4659 30.279 21.1126H30.2809Z" fill="white"/>
<path d="M43.771 2.704V4.544H47.658V11.743H43.426V13.629H47.819C46.761 14.733 45.22 15.653 43.15 16.389L44.277 18.229C45.68 17.539 46.899 16.78 47.911 15.929V17.769H52.442V19.586H44.576V21.61H62.263V19.586H54.558V17.769H59.043V15.883C60.101 16.78 61.412 17.562 62.999 18.252L63.896 16.366C61.872 15.676 60.285 14.779 59.158 13.629H63.551V11.743H59.319V4.544H63.206V2.704H59.319V1.117H57.203V2.704H49.774V1.117H47.658V2.704H43.771ZM48.003 15.837C48.785 15.147 49.429 14.411 49.958 13.629H56.996C57.502 14.411 58.169 15.147 58.997 15.837H54.558V14.227H52.442V15.837H48.003ZM49.774 11.743V10.501H57.203V11.743H49.774ZM49.774 8.799V7.557H57.203V8.799H49.774ZM49.774 5.855V4.544H57.203V5.855H49.774ZM69.7123 1.094V4.866H65.9633V6.66H70.0803V9.305C70.0803 9.627 69.9423 9.811 69.6893 9.811C69.3213 9.811 68.9533 9.765 68.5853 9.719L68.9303 11.329H70.2643C71.4143 11.329 72.0123 10.777 72.0123 9.719V6.66H76.2673V4.866H71.7133V3.785H75.5083V2.129H71.7133V1.094H69.7123ZM83.3973 11.743H68.7003V22.415H70.8163V21.541H81.2813V22.415H83.3973V11.743ZM70.8163 19.908V18.735H81.2813V19.908H70.8163ZM70.8163 17.217V16.021H81.2813V17.217H70.8163ZM70.8163 14.526V13.399H81.2813V14.526H70.8163ZM74.4273 7.166L72.7713 7.695C73.3463 8.661 73.8753 9.765 74.3813 11.007L75.9453 10.317C75.5313 9.19 75.0253 8.132 74.4273 7.166ZM77.3483 4.291C77.7623 5.763 78.5213 7.074 79.6253 8.224C78.7053 8.776 77.6243 9.259 76.3823 9.65L77.3253 11.444C78.7973 10.938 80.0623 10.294 81.1663 9.535C82.2933 10.317 83.6963 11.007 85.3523 11.582L86.2953 9.811C84.9153 9.328 83.7193 8.799 82.7303 8.224C83.8803 7.074 84.7083 5.74 85.2143 4.199V2.451H76.4283V4.291H77.3483ZM81.1203 7.074C80.1543 6.246 79.5563 5.303 79.3033 4.291H83.0293C82.5923 5.326 81.9483 6.246 81.1203 7.074ZM67.3663 7.281C67.0443 8.431 66.5153 9.535 65.7563 10.547L67.1823 11.444C67.9643 10.386 68.5853 9.098 69.0223 7.603L67.3663 7.281ZM89.2366 3.141V5.073H92.0196V6.959H88.1556V8.983H93.2386C91.6286 10.593 89.7656 11.996 87.6496 13.146L89.0066 14.687C90.1336 14.066 91.2146 13.353 92.2496 12.525H95.4696C94.7796 13.238 94.0436 13.882 93.2616 14.434V15.837C91.7206 15.998 89.9956 16.136 88.1096 16.228L88.4086 18.321C90.1796 18.16 91.7896 17.999 93.2616 17.838V19.218C93.2616 19.954 92.9166 20.345 92.2266 20.345C91.7666 20.345 91.1456 20.276 90.3636 20.184L90.9156 22.139H93.0546C94.5726 22.139 95.3546 21.357 95.3546 19.793V17.562C96.9416 17.332 98.2526 17.079 99.2876 16.803V14.756C98.1606 15.055 96.8496 15.331 95.3546 15.561V14.848C96.4126 13.951 97.3096 13.054 98.0456 12.157V10.593H94.4116C94.9176 10.087 95.4006 9.535 95.8836 8.983H98.7816V6.959H97.4476C98.2986 5.74 99.1036 4.406 99.8626 2.98L98.1606 2.106C97.2866 3.854 96.2516 5.487 95.0556 6.959H94.0896V5.073H96.4126V3.141H94.0896V1.324H92.0196V3.141H89.2366ZM102.232 6.568H105.245C105.107 9.282 104.601 11.697 103.681 13.767C103.037 12.548 102.508 11.237 102.094 9.857L100.415 10.823C100.944 12.617 101.634 14.319 102.508 15.906C101.266 17.723 99.6326 19.195 97.6086 20.322L98.8506 22.323C100.783 21.127 102.416 19.655 103.727 17.884C104.831 19.494 106.119 20.966 107.637 22.277L109.132 20.506C107.522 19.172 106.119 17.631 104.969 15.906C106.326 13.33 107.085 10.202 107.246 6.568H108.511V4.475H102.853C103.083 3.532 103.29 2.543 103.474 1.485L101.335 1.117C100.76 4.935 99.6786 7.971 98.0916 10.248L99.4026 11.858C100.553 10.432 101.496 8.684 102.232 6.568ZM114.005 9.834V18.436H127.69V9.834H114.005ZM125.459 16.504H116.236V15.009H125.459V16.504ZM116.236 13.238V11.766H125.459V13.238H116.236ZM130.473 3.003H122.055C121.848 2.313 121.641 1.669 121.434 1.117L118.904 1.531C119.134 1.991 119.364 2.474 119.571 3.003H111.176V7.327H113.154V8.431H128.518V7.35H130.473V3.003ZM113.384 6.522V5.096H128.265V6.522H113.384ZM111.268 19.954V21.909H130.427V19.954H111.268ZM139.302 3.578V5.533H144.845C144.707 6.039 144.546 6.522 144.362 7.005H141.004V18.505H151.975V7.005H146.708C146.892 6.545 147.076 6.039 147.214 5.533H153.585V3.578H150.02C150.434 3.026 150.848 2.428 151.216 1.738L149.146 1.025C148.709 1.899 148.203 2.75 147.628 3.578H145.029C144.592 2.612 144.109 1.784 143.603 1.071L141.579 1.83C142.039 2.382 142.43 2.957 142.775 3.578H139.302ZM149.951 16.619H143.028V15.101H149.951V16.619ZM143.028 13.422V12.019H149.951V13.422H143.028ZM143.028 10.317V8.891H149.951V10.317H143.028ZM134.932 1.278L133.483 2.635C135.001 3.831 136.174 4.935 137.002 5.97L138.428 4.544C137.462 3.44 136.289 2.359 134.932 1.278ZM133 6.752V8.73H136.128C135.392 9.834 134.495 11.007 133.414 12.203V13.859H136.749C136.473 15.124 136.128 16.274 135.691 17.332C134.725 17.7 133.713 18.873 132.655 20.897L134.242 22.346C135.254 20.322 135.99 19.333 136.45 19.333C136.634 19.333 136.818 19.402 137.002 19.586C137.784 20.368 138.658 20.966 139.624 21.357C140.406 21.679 141.602 21.863 143.189 21.909C144.661 21.955 146.225 22.001 147.835 22.001H153.424L153.907 19.931C151.308 20.023 149.192 20.092 147.582 20.092C145.972 20.092 144.523 20.069 143.281 20.046C141.993 20.023 141.027 19.885 140.337 19.609C139.647 19.31 138.957 18.827 138.221 18.137C138.037 17.976 137.876 17.838 137.692 17.7C138.106 16.573 138.474 15.17 138.796 13.468V12.019H136.013C136.979 10.846 137.807 9.65 138.543 8.454V6.752H133ZM169.13 9.305C168.808 10.133 168.463 10.823 168.072 11.375L169.475 11.904C169.935 11.26 170.303 10.524 170.602 9.673L169.13 9.305ZM162.253 9.282L160.804 9.742C161.241 10.432 161.609 11.145 161.931 11.904L163.38 11.536C163.058 10.685 162.667 9.926 162.253 9.282ZM157.469 7.741V13.698H173.983V7.764C174.351 7.902 174.742 8.04 175.156 8.178L176.283 6.522C171.913 5.096 168.647 3.325 166.439 1.186H165.013C162.483 3.348 159.217 5.142 155.169 6.522L156.296 8.178C156.664 8.04 157.055 7.879 157.469 7.741ZM173.339 7.511H158.021C159.079 7.051 160.114 6.568 161.126 6.039V6.591H170.303V6.108C171.223 6.614 172.235 7.074 173.339 7.511ZM171.982 12.088H166.715V9.167H171.982V12.088ZM164.737 12.088H159.47V9.167H164.737V12.088ZM173.132 14.618H158.343V22.438H160.436V21.679H171.039V22.415H173.132V14.618ZM160.436 19.954V18.804H169.82V17.309H160.436V16.228H171.039V19.954H160.436ZM168.417 4.981H162.897C163.886 4.337 164.829 3.647 165.726 2.911C166.508 3.647 167.405 4.337 168.417 4.981ZM183.411 5.004V11.927H196.314V5.004H183.411ZM194.336 10.317H185.412V9.236H194.336V10.317ZM185.412 7.695V6.66H194.336V7.695H185.412ZM189.736 15.699V16.619H181.893V18.505H189.736V19.655C189.736 20.23 189.437 20.529 188.839 20.529C188.08 20.529 187.068 20.483 185.826 20.414L186.378 22.231H189.644C191.093 22.231 191.829 21.564 191.829 20.253V18.505H198.545V16.619H191.829V16.527C193.6 15.653 195.141 14.848 196.475 14.135V12.801H182.928V14.503H192.519C191.369 14.986 190.426 15.377 189.736 15.699ZM197.993 1.899H179.11V10.731C179.064 15.147 178.489 18.574 177.408 21.058L179.064 22.553C180.444 19.563 181.157 15.63 181.226 10.731V3.854H197.993V1.899ZM207.558 5.832V11.72H220.001V5.832H214.826V4.521H220.438V2.612H214.826V1.232H212.733V2.612H207.121V4.521H212.733V5.832H207.558ZM218.092 9.903H216.344V7.649H218.092V9.903ZM214.642 9.903H212.917V7.649H214.642V9.903ZM211.238 9.903H209.467V7.649H211.238V9.903ZM219.38 15.515L217.563 16.113C218.299 17.516 218.989 19.149 219.61 20.989L221.381 20.184C220.829 18.528 220.162 16.987 219.38 15.515ZM204.545 0.978999C203.579 3.118 202.061 5.004 200.037 6.637L200.681 8.753C203.395 6.706 205.327 4.406 206.477 1.876L204.545 0.978999ZM205.097 6.89C204.039 9.167 202.406 11.168 200.175 12.87L200.819 14.963C201.578 14.388 202.291 13.79 202.958 13.192V22.392H205.074V10.892C205.833 9.903 206.477 8.868 206.983 7.764L205.097 6.89ZM207.19 16.044C206.868 17.631 206.316 19.126 205.58 20.506L207.351 21.633C208.133 20.161 208.731 18.436 209.145 16.435L207.19 16.044ZM215.838 22.185C216.574 22.185 217.149 22.024 217.517 21.748C217.908 21.426 218.184 20.483 218.345 18.896L216.436 18.275C216.367 19.241 216.252 19.816 216.091 20C215.976 20.138 215.769 20.23 215.47 20.23H212.802C212.227 20.23 211.951 19.954 211.951 19.402V15.883H209.95V19.816C209.95 21.38 210.686 22.185 212.158 22.185H215.838ZM214.435 15.193L212.871 16.182C213.722 17.148 214.412 18.045 214.918 18.873L216.528 17.769C216.022 17.033 215.332 16.159 214.435 15.193ZM207.834 12.87V14.848H219.725V12.87H207.834ZM224.966 15.883V17.907H231.981V19.655H222.942V21.702H243.182V19.655H234.143V17.907H241.158V15.883H234.143V14.273H238.927V8.431H227.243V14.273H231.981V15.883H224.966ZM236.788 12.318H229.382V10.386H236.788V12.318ZM231.981 1.255V4.82H229.543L230.21 4.36C229.658 3.555 228.876 2.612 227.841 1.554L226.139 2.612C226.921 3.394 227.588 4.13 228.14 4.82H223.287V10.708H225.472V6.936H240.698V10.708H242.86V4.82H238.352C239.019 4.107 239.617 3.302 240.146 2.405L238.329 1.508C237.754 2.566 237.064 3.463 236.282 4.222L237.11 4.82H234.143V1.255H231.981Z" fill="white"/>
<path d="M50.4307 33.0654L52.3926 33.6875C52.0918 34.7812 51.5905 35.5947 50.8887 36.1279C50.1914 36.6566 49.305 36.9209 48.2295 36.9209C46.8988 36.9209 45.805 36.4674 44.9482 35.5605C44.0915 34.6491 43.6631 33.4049 43.6631 31.8281C43.6631 30.1602 44.0938 28.8659 44.9551 27.9453C45.8164 27.0202 46.9489 26.5576 48.3525 26.5576C49.5785 26.5576 50.5742 26.9199 51.3398 27.6445C51.7956 28.0729 52.1374 28.6882 52.3652 29.4902L50.3623 29.9688C50.2438 29.4492 49.9954 29.0391 49.6172 28.7383C49.2435 28.4375 48.7878 28.2871 48.25 28.2871C47.5072 28.2871 46.9033 28.5537 46.4385 29.0869C45.9782 29.6201 45.748 30.4837 45.748 31.6777C45.748 32.9447 45.9759 33.847 46.4316 34.3848C46.8874 34.9225 47.4798 35.1914 48.209 35.1914C48.7467 35.1914 49.2093 35.0205 49.5967 34.6787C49.984 34.3369 50.262 33.7992 50.4307 33.0654ZM62.782 35.5264L61.6198 37.0098C61.0502 36.7318 60.5033 36.349 59.9792 35.8613C59.5736 36.2259 59.143 36.4948 58.6872 36.668C58.2315 36.8411 57.6892 36.9277 57.0603 36.9277C55.8116 36.9277 54.8728 36.5768 54.2439 35.875C53.7562 35.3327 53.5124 34.7083 53.5124 34.002C53.5124 33.3594 53.7038 32.7829 54.0866 32.2725C54.4695 31.7575 55.0414 31.3109 55.8025 30.9326C55.4607 30.527 55.2032 30.1419 55.03 29.7773C54.8568 29.4082 54.7702 29.0596 54.7702 28.7314C54.7702 28.1253 55.0118 27.6126 55.4948 27.1934C55.9825 26.7695 56.6752 26.5576 57.573 26.5576C58.4389 26.5576 59.1156 26.7786 59.6032 27.2207C60.0909 27.6628 60.3347 28.2028 60.3347 28.8408C60.3347 29.2464 60.2139 29.6315 59.9724 29.9961C59.7308 30.3607 59.2432 30.7731 58.5095 31.2334L59.904 33.0723C60.0681 32.7806 60.2094 32.4001 60.3279 31.9307L62.0642 32.3271C61.891 32.9424 61.7406 33.3936 61.613 33.6807C61.4854 33.9632 61.3487 34.2002 61.2029 34.3916C61.417 34.5921 61.6928 34.8132 62.03 35.0547C62.3718 35.2917 62.6224 35.4489 62.782 35.5264ZM57.5525 30.0781L58.072 29.6816C58.4548 29.3854 58.6462 29.0915 58.6462 28.7998C58.6462 28.5537 58.5528 28.3441 58.3659 28.1709C58.1836 27.9977 57.9353 27.9111 57.6208 27.9111C57.3155 27.9111 57.0762 27.9886 56.903 28.1436C56.7299 28.2939 56.6433 28.4694 56.6433 28.6699C56.6433 28.9069 56.7891 29.194 57.0808 29.5312L57.5525 30.0781ZM56.8005 32.1631C56.3585 32.3864 56.028 32.6553 55.8093 32.9697C55.5905 33.2842 55.4812 33.6055 55.4812 33.9336C55.4812 34.3483 55.6156 34.6878 55.8845 34.9521C56.1579 35.2119 56.5225 35.3418 56.9782 35.3418C57.279 35.3418 57.5684 35.2826 57.8464 35.1641C58.1244 35.0456 58.4275 34.8496 58.7556 34.5762L56.8005 32.1631ZM63.7856 36.75V26.7285H66.8139L68.6323 33.5645L70.4301 26.7285H73.4653V36.75H71.5854V28.8613L69.5961 36.75H67.6479L65.6655 28.8613V36.75H63.7856ZM84.2921 36.75H82.091L81.216 34.4736H77.2101L76.383 36.75H74.2365L78.1398 26.7285H80.2795L84.2921 36.75ZM80.5666 32.7852L79.1857 29.0664L77.8322 32.7852H80.5666ZM88.316 36.75V26.7285H90.3395V30.6729H94.3043V26.7285H96.3277V36.75H94.3043V32.3682H90.3395V36.75H88.316ZM99.6282 31.7051L97.8851 31.3906C98.081 30.6888 98.4183 30.1693 98.8968 29.832C99.3753 29.4948 100.086 29.3262 101.03 29.3262C101.886 29.3262 102.524 29.4287 102.944 29.6338C103.363 29.8343 103.657 30.0918 103.826 30.4062C103.999 30.7161 104.085 31.2881 104.085 32.1221L104.065 34.3643C104.065 35.0023 104.094 35.474 104.154 35.7793C104.217 36.0801 104.334 36.4036 104.502 36.75H102.602C102.552 36.6224 102.49 36.4333 102.417 36.1826C102.385 36.0687 102.363 35.9935 102.349 35.957C102.021 36.276 101.67 36.5153 101.296 36.6748C100.923 36.8343 100.524 36.9141 100.1 36.9141C99.3525 36.9141 98.7624 36.7113 98.3294 36.3057C97.901 35.9001 97.6868 35.3874 97.6868 34.7676C97.6868 34.3574 97.7848 33.9928 97.9808 33.6738C98.1767 33.3503 98.4502 33.1042 98.8011 32.9355C99.1566 32.7624 99.667 32.612 100.332 32.4844C101.23 32.3158 101.852 32.1585 102.199 32.0127V31.8213C102.199 31.4521 102.107 31.1901 101.925 31.0352C101.743 30.8757 101.399 30.7959 100.893 30.7959C100.551 30.7959 100.284 30.8643 100.093 31.001C99.9017 31.1331 99.7467 31.3678 99.6282 31.7051ZM102.199 33.2637C101.952 33.3457 101.563 33.4437 101.03 33.5576C100.496 33.6715 100.148 33.7832 99.9837 33.8926C99.7331 34.0703 99.6077 34.2959 99.6077 34.5693C99.6077 34.8382 99.708 35.0706 99.9085 35.2666C100.109 35.4626 100.364 35.5605 100.674 35.5605C101.02 35.5605 101.351 35.4466 101.665 35.2188C101.898 35.0456 102.05 34.8337 102.123 34.583C102.173 34.4189 102.199 34.1068 102.199 33.6465V33.2637ZM110.544 36.75V35.6631C110.28 36.0505 109.931 36.3558 109.498 36.5791C109.07 36.8024 108.616 36.9141 108.138 36.9141C107.65 36.9141 107.213 36.807 106.825 36.5928C106.438 36.3786 106.158 36.0778 105.984 35.6904C105.811 35.3031 105.725 34.7676 105.725 34.084V29.4902H107.646V32.8262C107.646 33.847 107.68 34.4736 107.748 34.7061C107.821 34.9339 107.951 35.1162 108.138 35.2529C108.325 35.3851 108.562 35.4512 108.849 35.4512C109.177 35.4512 109.471 35.3623 109.731 35.1846C109.99 35.0023 110.168 34.779 110.264 34.5146C110.359 34.2458 110.407 33.5918 110.407 32.5527V29.4902H112.328V36.75H110.544ZM120.05 36.75V28.4238H117.077V26.7285H125.041V28.4238H122.074V36.75H120.05ZM126.516 31.7051L124.773 31.3906C124.969 30.6888 125.306 30.1693 125.784 29.832C126.263 29.4948 126.974 29.3262 127.917 29.3262C128.774 29.3262 129.412 29.4287 129.831 29.6338C130.251 29.8343 130.544 30.0918 130.713 30.4062C130.886 30.7161 130.973 31.2881 130.973 32.1221L130.952 34.3643C130.952 35.0023 130.982 35.474 131.041 35.7793C131.105 36.0801 131.221 36.4036 131.39 36.75H129.489C129.439 36.6224 129.378 36.4333 129.305 36.1826C129.273 36.0687 129.25 35.9935 129.237 35.957C128.908 36.276 128.557 36.5153 128.184 36.6748C127.81 36.8343 127.411 36.9141 126.988 36.9141C126.24 36.9141 125.65 36.7113 125.217 36.3057C124.789 35.9001 124.574 35.3874 124.574 34.7676C124.574 34.3574 124.672 33.9928 124.868 33.6738C125.064 33.3503 125.338 33.1042 125.689 32.9355C126.044 32.7624 126.555 32.612 127.22 32.4844C128.118 32.3158 128.74 32.1585 129.086 32.0127V31.8213C129.086 31.4521 128.995 31.1901 128.813 31.0352C128.63 30.8757 128.286 30.7959 127.78 30.7959C127.439 30.7959 127.172 30.8643 126.981 31.001C126.789 31.1331 126.634 31.3678 126.516 31.7051ZM129.086 33.2637C128.84 33.3457 128.45 33.4437 127.917 33.5576C127.384 33.6715 127.035 33.7832 126.871 33.8926C126.621 34.0703 126.495 34.2959 126.495 34.5693C126.495 34.8382 126.596 35.0706 126.796 35.2666C126.997 35.4626 127.252 35.5605 127.562 35.5605C127.908 35.5605 128.238 35.4466 128.553 35.2188C128.785 35.0456 128.938 34.8337 129.011 34.583C129.061 34.4189 129.086 34.1068 129.086 33.6465V33.2637ZM132.585 36.75V26.7285H134.506V32.0469L136.755 29.4902H139.12L136.639 32.1426L139.298 36.75H137.226L135.401 33.4893L134.506 34.4258V36.75H132.585ZM152.434 36.75H150.233L149.358 34.4736H145.352L144.525 36.75H142.378L146.282 26.7285H148.421L152.434 36.75ZM148.708 32.7852L147.327 29.0664L145.974 32.7852H148.708ZM153.28 36.75V26.7285H155.201V36.75H153.28ZM156.957 36.75V26.7285H158.878V36.75H156.957ZM160.633 28.5059V26.7285H162.554V28.5059H160.633ZM160.633 36.75V29.4902H162.554V36.75H160.633ZM165.745 31.7051L164.002 31.3906C164.198 30.6888 164.535 30.1693 165.014 29.832C165.492 29.4948 166.203 29.3262 167.147 29.3262C168.003 29.3262 168.642 29.4287 169.061 29.6338C169.48 29.8343 169.774 30.0918 169.943 30.4062C170.116 30.7161 170.202 31.2881 170.202 32.1221L170.182 34.3643C170.182 35.0023 170.211 35.474 170.271 35.7793C170.335 36.0801 170.451 36.4036 170.619 36.75H168.719C168.669 36.6224 168.607 36.4333 168.534 36.1826C168.503 36.0687 168.48 35.9935 168.466 35.957C168.138 36.276 167.787 36.5153 167.413 36.6748C167.04 36.8343 166.641 36.9141 166.217 36.9141C165.47 36.9141 164.879 36.7113 164.447 36.3057C164.018 35.9001 163.804 35.3874 163.804 34.7676C163.804 34.3574 163.902 33.9928 164.098 33.6738C164.294 33.3503 164.567 33.1042 164.918 32.9355C165.274 32.7624 165.784 32.612 166.449 32.4844C167.347 32.3158 167.969 32.1585 168.316 32.0127V31.8213C168.316 31.4521 168.225 31.1901 168.042 31.0352C167.86 30.8757 167.516 30.7959 167.01 30.7959C166.668 30.7959 166.402 30.8643 166.21 31.001C166.019 31.1331 165.864 31.3678 165.745 31.7051ZM168.316 33.2637C168.07 33.3457 167.68 33.4437 167.147 33.5576C166.614 33.6715 166.265 33.7832 166.101 33.8926C165.85 34.0703 165.725 34.2959 165.725 34.5693C165.725 34.8382 165.825 35.0706 166.026 35.2666C166.226 35.4626 166.481 35.5605 166.791 35.5605C167.138 35.5605 167.468 35.4466 167.782 35.2188C168.015 35.0456 168.168 34.8337 168.24 34.583C168.291 34.4189 168.316 34.1068 168.316 33.6465V33.2637ZM178.486 36.75H176.565V33.0449C176.565 32.2611 176.524 31.7552 176.442 31.5273C176.36 31.2949 176.226 31.1149 176.039 30.9873C175.857 30.8597 175.636 30.7959 175.376 30.7959C175.043 30.7959 174.745 30.887 174.48 31.0693C174.216 31.2516 174.034 31.4932 173.934 31.7939C173.838 32.0947 173.79 32.6507 173.79 33.4619V36.75H171.869V29.4902H173.653V30.5566C174.287 29.7363 175.084 29.3262 176.046 29.3262C176.47 29.3262 176.857 29.4036 177.208 29.5586C177.559 29.709 177.823 29.9027 178.001 30.1396C178.183 30.3766 178.309 30.6455 178.377 30.9463C178.45 31.2471 178.486 31.6777 178.486 32.2383V36.75ZM186.551 31.6367L184.658 31.9785C184.594 31.6003 184.448 31.3154 184.22 31.124C183.997 30.9326 183.705 30.8369 183.345 30.8369C182.867 30.8369 182.484 31.0033 182.197 31.3359C181.914 31.6641 181.773 32.2155 181.773 32.9902C181.773 33.8516 181.917 34.46 182.204 34.8154C182.495 35.1709 182.885 35.3486 183.373 35.3486C183.737 35.3486 184.036 35.2461 184.268 35.041C184.501 34.8314 184.665 34.4736 184.76 33.9678L186.647 34.2891C186.451 35.1549 186.075 35.8089 185.519 36.251C184.963 36.693 184.218 36.9141 183.284 36.9141C182.222 36.9141 181.374 36.5791 180.741 35.9092C180.112 35.2393 179.798 34.3118 179.798 33.127C179.798 31.9284 180.114 30.9964 180.748 30.3311C181.381 29.6611 182.238 29.3262 183.318 29.3262C184.202 29.3262 184.904 29.5176 185.424 29.9004C185.948 30.2786 186.324 30.8574 186.551 31.6367ZM191.998 34.4395L193.913 34.7607C193.666 35.4626 193.277 35.998 192.744 36.3672C192.215 36.7318 191.552 36.9141 190.754 36.9141C189.492 36.9141 188.558 36.5016 187.952 35.6768C187.473 35.016 187.234 34.182 187.234 33.1748C187.234 31.9717 187.548 31.0306 188.177 30.3516C188.806 29.668 189.601 29.3262 190.563 29.3262C191.643 29.3262 192.495 29.6839 193.12 30.3994C193.744 31.1104 194.042 32.2018 194.015 33.6738H189.203C189.216 34.2435 189.371 34.6878 189.667 35.0068C189.964 35.3213 190.333 35.4785 190.775 35.4785C191.076 35.4785 191.329 35.3965 191.534 35.2324C191.739 35.0684 191.894 34.804 191.998 34.4395ZM192.108 32.498C192.094 31.9421 191.951 31.5205 191.677 31.2334C191.404 30.9417 191.071 30.7959 190.679 30.7959C190.26 30.7959 189.913 30.9486 189.64 31.2539C189.367 31.5592 189.232 31.974 189.237 32.498H192.108ZM205.47 33.0654L207.431 33.6875C207.131 34.7812 206.629 35.5947 205.928 36.1279C205.23 36.6566 204.344 36.9209 203.268 36.9209C201.938 36.9209 200.844 36.4674 199.987 35.5605C199.13 34.6491 198.702 33.4049 198.702 31.8281C198.702 30.1602 199.133 28.8659 199.994 27.9453C200.855 27.0202 201.988 26.5576 203.391 26.5576C204.617 26.5576 205.613 26.9199 206.379 27.6445C206.834 28.0729 207.176 28.6882 207.404 29.4902L205.401 29.9688C205.283 29.4492 205.034 29.0391 204.656 28.7383C204.282 28.4375 203.827 28.2871 203.289 28.2871C202.546 28.2871 201.942 28.5537 201.477 29.0869C201.017 29.6201 200.787 30.4837 200.787 31.6777C200.787 32.9447 201.015 33.847 201.471 34.3848C201.926 34.9225 202.519 35.1914 203.248 35.1914C203.786 35.1914 204.248 35.0205 204.636 34.6787C205.023 34.3369 205.301 33.7992 205.47 33.0654ZM210.855 26.7285V30.4131C211.475 29.6885 212.215 29.3262 213.077 29.3262C213.519 29.3262 213.918 29.4082 214.273 29.5723C214.628 29.7363 214.895 29.946 215.073 30.2012C215.255 30.4564 215.378 30.7389 215.442 31.0488C215.51 31.3587 215.544 31.8395 215.544 32.4912V36.75H213.624V32.915C213.624 32.154 213.587 31.6709 213.514 31.4658C213.441 31.2607 213.311 31.099 213.125 30.9805C212.942 30.8574 212.712 30.7959 212.434 30.7959C212.115 30.7959 211.83 30.8734 211.58 31.0283C211.329 31.1833 211.144 31.418 211.026 31.7324C210.912 32.0423 210.855 32.5026 210.855 33.1133V36.75H208.934V26.7285H210.855ZM222.058 36.75V35.6631C221.794 36.0505 221.445 36.3558 221.012 36.5791C220.584 36.8024 220.13 36.9141 219.652 36.9141C219.164 36.9141 218.727 36.807 218.339 36.5928C217.952 36.3786 217.671 36.0778 217.498 35.6904C217.325 35.3031 217.239 34.7676 217.239 34.084V29.4902H219.159V32.8262C219.159 33.847 219.194 34.4736 219.262 34.7061C219.335 34.9339 219.465 35.1162 219.652 35.2529C219.838 35.3851 220.075 35.4512 220.363 35.4512C220.691 35.4512 220.985 35.3623 221.244 35.1846C221.504 35.0023 221.682 34.779 221.778 34.5146C221.873 34.2458 221.921 33.5918 221.921 32.5527V29.4902H223.842V36.75H222.058ZM227.457 36.75H225.536V29.4902H227.32V30.5225C227.626 30.0348 227.899 29.7135 228.141 29.5586C228.387 29.4036 228.665 29.3262 228.975 29.3262C229.412 29.3262 229.834 29.4469 230.239 29.6885L229.645 31.3633C229.321 31.1536 229.02 31.0488 228.742 31.0488C228.473 31.0488 228.245 31.124 228.059 31.2744C227.872 31.4202 227.724 31.6868 227.614 32.0742C227.509 32.4616 227.457 33.2728 227.457 34.5078V36.75ZM237.183 31.6367L235.29 31.9785C235.226 31.6003 235.08 31.3154 234.852 31.124C234.629 30.9326 234.337 30.8369 233.977 30.8369C233.499 30.8369 233.116 31.0033 232.829 31.3359C232.546 31.6641 232.405 32.2155 232.405 32.9902C232.405 33.8516 232.549 34.46 232.836 34.8154C233.127 35.1709 233.517 35.3486 234.005 35.3486C234.369 35.3486 234.668 35.2461 234.9 35.041C235.133 34.8314 235.297 34.4736 235.392 33.9678L237.279 34.2891C237.083 35.1549 236.707 35.8089 236.151 36.251C235.595 36.693 234.85 36.9141 233.916 36.9141C232.854 36.9141 232.006 36.5791 231.373 35.9092C230.744 35.2393 230.429 34.3118 230.429 33.127C230.429 31.9284 230.746 30.9964 231.38 30.3311C232.013 29.6611 232.87 29.3262 233.95 29.3262C234.834 29.3262 235.536 29.5176 236.055 29.9004C236.579 30.2786 236.955 30.8574 237.183 31.6367ZM240.34 26.7285V30.4131C240.96 29.6885 241.701 29.3262 242.562 29.3262C243.004 29.3262 243.403 29.4082 243.758 29.5723C244.114 29.7363 244.38 29.946 244.558 30.2012C244.74 30.4564 244.863 30.7389 244.927 31.0488C244.996 31.3587 245.03 31.8395 245.03 32.4912V36.75H243.109V32.915C243.109 32.154 243.072 31.6709 242.999 31.4658C242.927 31.2607 242.797 31.099 242.61 30.9805C242.428 30.8574 242.197 30.7959 241.919 30.7959C241.6 30.7959 241.316 30.8734 241.065 31.0283C240.814 31.1833 240.63 31.418 240.511 31.7324C240.397 32.0423 240.34 32.5026 240.34 33.1133V36.75H238.419V26.7285H240.34Z" fill="white"/>
</svg>
