<svg width="245" height="46" viewBox="0 0 245 46" fill="none" xmlns="http://www.w3.org/2000/svg">
<g clip-path="url(#clip0_914_101)">
<path d="M32.0046 17.662L31.9122 17.5378H20.6346L20.5427 17.662C20.4718 17.7571 19.0065 19.7452 18.6335 21.8997V13.9891H25.194V11.7985H18.6335V5.5H16.4519V11.7985H9.87432V13.9891H16.4519V15.1869C13.8613 15.9945 7.02911 18.1193 5.16038 18.7107C1.78451 19.7793 0 21.8171 0 24.5985C0 27.2501 2.77808 28.11 3.80269 28.3374C3.76406 28.7679 3.50632 31.6158 3.50632 31.6158H10.4531L11.201 40.5H23.9832L24.4607 34.829H29.9529L30.2062 32.5924L29.8262 32.7055C29.5014 32.7906 28.5331 32.9671 27.9607 32.7676C27.2837 32.5347 27.2312 31.1722 27.2312 30.7597V30.6503C27.2312 30.0744 27.2261 29.204 27.6573 28.4455C28.0297 27.7919 29.1645 27.411 30.165 27.0749L30.6792 26.8997C32.8202 26.1436 34 24.7054 34 22.8484C34 20.367 32.0838 17.7714 32.0046 17.662ZM4.03699 26.2325L4.03066 26.317L3.9458 26.3008L3.84068 26.2803C2.92626 26.1088 2.08024 25.751 2.08024 24.3028C2.08024 22.5744 3.184 21.7842 4.37641 21.1871L4.50306 21.125L4.03699 26.2325ZM21.8681 26.9016L22.3823 27.0774C23.184 27.3464 24.0712 27.644 24.5842 28.0882L20.6732 32.9838C20.4344 32.4781 19.4307 30.3559 18.6335 28.6685V23.6902C18.94 25.1403 20.0621 26.2642 21.8681 26.9016V26.9016ZM5.91712 29.3475L6.73275 20.3273L12.4067 18.5567L12.3624 18.6971C12.1712 19.3127 12.0348 19.9433 11.9546 20.582C11.9283 20.8548 11.9175 21.1288 11.9223 21.4027C11.9223 23.1311 12.1433 26.6326 12.3282 29.2655L12.3345 29.3475H11.6069L10.1042 27.4669L10.2625 29.3475H5.91712ZM13.6605 31.6158H14.5845L13.9765 22.6347C13.8834 21.1952 13.924 19.2338 14.6503 18.0596C14.9258 17.6148 15.6806 16.8985 16.4519 16.2269V28.8785L14.5116 32.9838L13.4193 31.617L13.6605 31.6158ZM22.0784 38.466H13.1083C13.0684 38.0124 12.8329 35.3428 12.7088 33.9363L14.8365 36.5736L17.5924 30.9759C18.0946 31.9954 20.3477 36.5736 20.3477 36.5736L22.4761 33.9363C22.3519 35.3422 22.1164 38.0124 22.0784 38.466ZM25.3181 30.6522V30.7616C25.3181 31.1635 25.2681 32.4682 24.6386 32.7496L24.9856 28.6287C25.32 29.3413 25.3181 30.1216 25.3162 30.6522H25.3181ZM30.2809 25.0539C29.2158 25.6752 27.7555 26.0281 26.2756 26.0281C24.7285 26.0281 23.2898 25.6827 22.2228 25.0552C21.1697 24.4339 20.5896 23.5852 20.5896 22.6639C20.5896 20.9399 21.461 19.8383 21.7295 19.5408H30.8173C31.0851 19.8383 31.9571 20.9399 31.9571 22.6639C31.9571 23.579 31.3612 24.4252 30.279 25.0539H30.2809Z" fill="white"/>
<path d="M43.771 7.204V9.044H47.658V16.243H43.426V18.129H47.819C46.761 19.233 45.22 20.153 43.15 20.889L44.277 22.729C45.68 22.039 46.899 21.28 47.911 20.429V22.269H52.442V24.086H44.576V26.11H62.263V24.086H54.558V22.269H59.043V20.383C60.101 21.28 61.412 22.062 62.999 22.752L63.896 20.866C61.872 20.176 60.285 19.279 59.158 18.129H63.551V16.243H59.319V9.044H63.206V7.204H59.319V5.617H57.203V7.204H49.774V5.617H47.658V7.204H43.771ZM48.003 20.337C48.785 19.647 49.429 18.911 49.958 18.129H56.996C57.502 18.911 58.169 19.647 58.997 20.337H54.558V18.727H52.442V20.337H48.003ZM49.774 16.243V15.001H57.203V16.243H49.774ZM49.774 13.299V12.057H57.203V13.299H49.774ZM49.774 10.355V9.044H57.203V10.355H49.774ZM69.7123 5.594V9.366H65.9633V11.16H70.0803V13.805C70.0803 14.127 69.9423 14.311 69.6893 14.311C69.3213 14.311 68.9533 14.265 68.5853 14.219L68.9303 15.829H70.2643C71.4143 15.829 72.0123 15.277 72.0123 14.219V11.16H76.2673V9.366H71.7133V8.285H75.5083V6.629H71.7133V5.594H69.7123ZM83.3973 16.243H68.7003V26.915H70.8163V26.041H81.2813V26.915H83.3973V16.243ZM70.8163 24.408V23.235H81.2813V24.408H70.8163ZM70.8163 21.717V20.521H81.2813V21.717H70.8163ZM70.8163 19.026V17.899H81.2813V19.026H70.8163ZM74.4273 11.666L72.7713 12.195C73.3463 13.161 73.8753 14.265 74.3813 15.507L75.9453 14.817C75.5313 13.69 75.0253 12.632 74.4273 11.666ZM77.3483 8.791C77.7623 10.263 78.5213 11.574 79.6253 12.724C78.7053 13.276 77.6243 13.759 76.3823 14.15L77.3253 15.944C78.7973 15.438 80.0623 14.794 81.1663 14.035C82.2933 14.817 83.6963 15.507 85.3523 16.082L86.2953 14.311C84.9153 13.828 83.7193 13.299 82.7303 12.724C83.8803 11.574 84.7083 10.24 85.2143 8.699V6.951H76.4283V8.791H77.3483ZM81.1203 11.574C80.1543 10.746 79.5563 9.803 79.3033 8.791H83.0293C82.5923 9.826 81.9483 10.746 81.1203 11.574ZM67.3663 11.781C67.0443 12.931 66.5153 14.035 65.7563 15.047L67.1823 15.944C67.9643 14.886 68.5853 13.598 69.0223 12.103L67.3663 11.781ZM89.2366 7.641V9.573H92.0196V11.459H88.1556V13.483H93.2386C91.6286 15.093 89.7656 16.496 87.6496 17.646L89.0066 19.187C90.1336 18.566 91.2146 17.853 92.2496 17.025H95.4696C94.7796 17.738 94.0436 18.382 93.2616 18.934V20.337C91.7206 20.498 89.9956 20.636 88.1096 20.728L88.4086 22.821C90.1796 22.66 91.7896 22.499 93.2616 22.338V23.718C93.2616 24.454 92.9166 24.845 92.2266 24.845C91.7666 24.845 91.1456 24.776 90.3636 24.684L90.9156 26.639H93.0546C94.5726 26.639 95.3546 25.857 95.3546 24.293V22.062C96.9416 21.832 98.2526 21.579 99.2876 21.303V19.256C98.1606 19.555 96.8496 19.831 95.3546 20.061V19.348C96.4126 18.451 97.3096 17.554 98.0456 16.657V15.093H94.4116C94.9176 14.587 95.4006 14.035 95.8836 13.483H98.7816V11.459H97.4476C98.2986 10.24 99.1036 8.906 99.8626 7.48L98.1606 6.606C97.2866 8.354 96.2516 9.987 95.0556 11.459H94.0896V9.573H96.4126V7.641H94.0896V5.824H92.0196V7.641H89.2366ZM102.232 11.068H105.245C105.107 13.782 104.601 16.197 103.681 18.267C103.037 17.048 102.508 15.737 102.094 14.357L100.415 15.323C100.944 17.117 101.634 18.819 102.508 20.406C101.266 22.223 99.6326 23.695 97.6086 24.822L98.8506 26.823C100.783 25.627 102.416 24.155 103.727 22.384C104.831 23.994 106.119 25.466 107.637 26.777L109.132 25.006C107.522 23.672 106.119 22.131 104.969 20.406C106.326 17.83 107.085 14.702 107.246 11.068H108.511V8.975H102.853C103.083 8.032 103.29 7.043 103.474 5.985L101.335 5.617C100.76 9.435 99.6786 12.471 98.0916 14.748L99.4026 16.358C100.553 14.932 101.496 13.184 102.232 11.068ZM114.005 14.334V22.936H127.69V14.334H114.005ZM125.459 21.004H116.236V19.509H125.459V21.004ZM116.236 17.738V16.266H125.459V17.738H116.236ZM130.473 7.503H122.055C121.848 6.813 121.641 6.169 121.434 5.617L118.904 6.031C119.134 6.491 119.364 6.974 119.571 7.503H111.176V11.827H113.154V12.931H128.518V11.85H130.473V7.503ZM113.384 11.022V9.596H128.265V11.022H113.384ZM111.268 24.454V26.409H130.427V24.454H111.268ZM139.302 8.078V10.033H144.845C144.707 10.539 144.546 11.022 144.362 11.505H141.004V23.005H151.975V11.505H146.708C146.892 11.045 147.076 10.539 147.214 10.033H153.585V8.078H150.02C150.434 7.526 150.848 6.928 151.216 6.238L149.146 5.525C148.709 6.399 148.203 7.25 147.628 8.078H145.029C144.592 7.112 144.109 6.284 143.603 5.571L141.579 6.33C142.039 6.882 142.43 7.457 142.775 8.078H139.302ZM149.951 21.119H143.028V19.601H149.951V21.119ZM143.028 17.922V16.519H149.951V17.922H143.028ZM143.028 14.817V13.391H149.951V14.817H143.028ZM134.932 5.778L133.483 7.135C135.001 8.331 136.174 9.435 137.002 10.47L138.428 9.044C137.462 7.94 136.289 6.859 134.932 5.778ZM133 11.252V13.23H136.128C135.392 14.334 134.495 15.507 133.414 16.703V18.359H136.749C136.473 19.624 136.128 20.774 135.691 21.832C134.725 22.2 133.713 23.373 132.655 25.397L134.242 26.846C135.254 24.822 135.99 23.833 136.45 23.833C136.634 23.833 136.818 23.902 137.002 24.086C137.784 24.868 138.658 25.466 139.624 25.857C140.406 26.179 141.602 26.363 143.189 26.409C144.661 26.455 146.225 26.501 147.835 26.501H153.424L153.907 24.431C151.308 24.523 149.192 24.592 147.582 24.592C145.972 24.592 144.523 24.569 143.281 24.546C141.993 24.523 141.027 24.385 140.337 24.109C139.647 23.81 138.957 23.327 138.221 22.637C138.037 22.476 137.876 22.338 137.692 22.2C138.106 21.073 138.474 19.67 138.796 17.968V16.519H136.013C136.979 15.346 137.807 14.15 138.543 12.954V11.252H133ZM169.13 13.805C168.808 14.633 168.463 15.323 168.072 15.875L169.475 16.404C169.935 15.76 170.303 15.024 170.602 14.173L169.13 13.805ZM162.253 13.782L160.804 14.242C161.241 14.932 161.609 15.645 161.931 16.404L163.38 16.036C163.058 15.185 162.667 14.426 162.253 13.782ZM157.469 12.241V18.198H173.983V12.264C174.351 12.402 174.742 12.54 175.156 12.678L176.283 11.022C171.913 9.596 168.647 7.825 166.439 5.686H165.013C162.483 7.848 159.217 9.642 155.169 11.022L156.296 12.678C156.664 12.54 157.055 12.379 157.469 12.241ZM173.339 12.011H158.021C159.079 11.551 160.114 11.068 161.126 10.539V11.091H170.303V10.608C171.223 11.114 172.235 11.574 173.339 12.011ZM171.982 16.588H166.715V13.667H171.982V16.588ZM164.737 16.588H159.47V13.667H164.737V16.588ZM173.132 19.118H158.343V26.938H160.436V26.179H171.039V26.915H173.132V19.118ZM160.436 24.454V23.304H169.82V21.809H160.436V20.728H171.039V24.454H160.436ZM168.417 9.481H162.897C163.886 8.837 164.829 8.147 165.726 7.411C166.508 8.147 167.405 8.837 168.417 9.481ZM183.411 9.504V16.427H196.314V9.504H183.411ZM194.336 14.817H185.412V13.736H194.336V14.817ZM185.412 12.195V11.16H194.336V12.195H185.412ZM189.736 20.199V21.119H181.893V23.005H189.736V24.155C189.736 24.73 189.437 25.029 188.839 25.029C188.08 25.029 187.068 24.983 185.826 24.914L186.378 26.731H189.644C191.093 26.731 191.829 26.064 191.829 24.753V23.005H198.545V21.119H191.829V21.027C193.6 20.153 195.141 19.348 196.475 18.635V17.301H182.928V19.003H192.519C191.369 19.486 190.426 19.877 189.736 20.199ZM197.993 6.399H179.11V15.231C179.064 19.647 178.489 23.074 177.408 25.558L179.064 27.053C180.444 24.063 181.157 20.13 181.226 15.231V8.354H197.993V6.399ZM207.558 10.332V16.22H220.001V10.332H214.826V9.021H220.438V7.112H214.826V5.732H212.733V7.112H207.121V9.021H212.733V10.332H207.558ZM218.092 14.403H216.344V12.149H218.092V14.403ZM214.642 14.403H212.917V12.149H214.642V14.403ZM211.238 14.403H209.467V12.149H211.238V14.403ZM219.38 20.015L217.563 20.613C218.299 22.016 218.989 23.649 219.61 25.489L221.381 24.684C220.829 23.028 220.162 21.487 219.38 20.015ZM204.545 5.479C203.579 7.618 202.061 9.504 200.037 11.137L200.681 13.253C203.395 11.206 205.327 8.906 206.477 6.376L204.545 5.479ZM205.097 11.39C204.039 13.667 202.406 15.668 200.175 17.37L200.819 19.463C201.578 18.888 202.291 18.29 202.958 17.692V26.892H205.074V15.392C205.833 14.403 206.477 13.368 206.983 12.264L205.097 11.39ZM207.19 20.544C206.868 22.131 206.316 23.626 205.58 25.006L207.351 26.133C208.133 24.661 208.731 22.936 209.145 20.935L207.19 20.544ZM215.838 26.685C216.574 26.685 217.149 26.524 217.517 26.248C217.908 25.926 218.184 24.983 218.345 23.396L216.436 22.775C216.367 23.741 216.252 24.316 216.091 24.5C215.976 24.638 215.769 24.73 215.47 24.73H212.802C212.227 24.73 211.951 24.454 211.951 23.902V20.383H209.95V24.316C209.95 25.88 210.686 26.685 212.158 26.685H215.838ZM214.435 19.693L212.871 20.682C213.722 21.648 214.412 22.545 214.918 23.373L216.528 22.269C216.022 21.533 215.332 20.659 214.435 19.693ZM207.834 17.37V19.348H219.725V17.37H207.834ZM224.966 20.383V22.407H231.981V24.155H222.942V26.202H243.182V24.155H234.143V22.407H241.158V20.383H234.143V18.773H238.927V12.931H227.243V18.773H231.981V20.383H224.966ZM236.788 16.818H229.382V14.886H236.788V16.818ZM231.981 5.755V9.32H229.543L230.21 8.86C229.658 8.055 228.876 7.112 227.841 6.054L226.139 7.112C226.921 7.894 227.588 8.63 228.14 9.32H223.287V15.208H225.472V11.436H240.698V15.208H242.86V9.32H238.352C239.019 8.607 239.617 7.802 240.146 6.905L238.329 6.008C237.754 7.066 237.064 7.963 236.282 8.722L237.11 9.32H234.143V5.755H231.981Z" fill="white"/>
<path d="M46.298 42.612C45.598 42.612 44.982 42.4767 44.45 42.206C43.918 41.926 43.5073 41.5387 43.218 41.044C42.9287 40.5493 42.784 39.9753 42.784 39.322V35.864C42.784 35.2107 42.9287 34.6367 43.218 34.142C43.5073 33.6473 43.918 33.2647 44.45 32.994C44.982 32.7233 45.598 32.588 46.298 32.588C46.9887 32.588 47.6 32.7187 48.132 32.98C48.664 33.2413 49.0747 33.61 49.364 34.086C49.6533 34.562 49.798 35.1127 49.798 35.738C49.798 35.7847 49.7793 35.8267 49.742 35.864C49.714 35.892 49.6767 35.906 49.63 35.906L48.342 35.976C48.23 35.976 48.174 35.9247 48.174 35.822C48.174 35.2713 48.0013 34.828 47.656 34.492C47.32 34.156 46.8673 33.988 46.298 33.988C45.7287 33.988 45.2713 34.156 44.926 34.492C44.5807 34.828 44.408 35.2713 44.408 35.822V39.392C44.408 39.9333 44.5807 40.372 44.926 40.708C45.2713 41.044 45.7287 41.212 46.298 41.212C46.8673 41.212 47.32 41.0487 47.656 40.722C48.0013 40.386 48.174 39.9427 48.174 39.392C48.174 39.2893 48.23 39.238 48.342 39.238L49.63 39.294C49.6767 39.294 49.714 39.308 49.742 39.336C49.7793 39.364 49.798 39.3967 49.798 39.434C49.798 40.0687 49.6533 40.6287 49.364 41.114C49.0747 41.59 48.664 41.9587 48.132 42.22C47.6 42.4813 46.9887 42.612 46.298 42.612ZM59.0762 42.29C59.1042 42.3273 59.1182 42.3647 59.1182 42.402C59.1182 42.4673 59.0715 42.5 58.9782 42.5H57.5362C57.4522 42.5 57.3822 42.4673 57.3262 42.402L56.6962 41.702C56.6682 41.674 56.6355 41.674 56.5982 41.702C55.7395 42.3087 54.7968 42.612 53.7702 42.612C52.9115 42.612 52.2022 42.4113 51.6422 42.01C51.0915 41.5993 50.8162 41.002 50.8162 40.218C50.8162 39.5833 50.9888 39.0467 51.3342 38.608C51.6888 38.1693 52.1648 37.7633 52.7622 37.39C52.8182 37.3527 52.8228 37.32 52.7762 37.292C52.2815 36.6947 51.9548 36.2327 51.7962 35.906C51.6375 35.5793 51.5582 35.2387 51.5582 34.884C51.5582 34.4547 51.6702 34.0673 51.8942 33.722C52.1182 33.3673 52.4308 33.092 52.8322 32.896C53.2428 32.6907 53.7095 32.588 54.2322 32.588C54.7735 32.588 55.2542 32.6907 55.6742 32.896C56.0942 33.092 56.4208 33.372 56.6542 33.736C56.8968 34.1 57.0182 34.52 57.0182 34.996C57.0182 35.5653 56.8502 36.0647 56.5142 36.494C56.1782 36.9233 55.7255 37.3153 55.1562 37.67C55.1095 37.698 55.1048 37.7307 55.1422 37.768C55.5715 38.272 56.0942 38.8647 56.7102 39.546C56.7382 39.5833 56.7708 39.5833 56.8082 39.546C57.0322 39.3033 57.3215 38.93 57.6762 38.426C57.7322 38.3233 57.8068 38.3047 57.9002 38.37L58.8522 38.916C58.9642 38.9813 58.9828 39.056 58.9082 39.14C58.5162 39.7373 58.1288 40.2507 57.7462 40.68L57.7322 40.708C57.7322 40.7453 57.7508 40.7827 57.7882 40.82C58.1242 41.212 58.4508 41.5853 58.7682 41.94C58.8335 42.024 58.8895 42.094 58.9362 42.15C58.9922 42.206 59.0388 42.2527 59.0762 42.29ZM54.2742 34.072C53.9475 34.072 53.6815 34.1607 53.4762 34.338C53.2802 34.5153 53.1822 34.7487 53.1822 35.038C53.1822 35.1967 53.2382 35.374 53.3502 35.57C53.4622 35.766 53.7002 36.0833 54.0642 36.522C54.0922 36.5593 54.1248 36.564 54.1622 36.536C54.5635 36.284 54.8668 36.0413 55.0722 35.808C55.2868 35.5653 55.3942 35.304 55.3942 35.024C55.3942 34.7347 55.2915 34.506 55.0862 34.338C54.8808 34.1607 54.6102 34.072 54.2742 34.072ZM53.7842 41.24C54.3628 41.24 54.9742 41.03 55.6182 40.61C55.6555 40.5727 55.6555 40.54 55.6182 40.512C55.5715 40.4653 55.5248 40.414 55.4782 40.358C55.4315 40.302 55.3848 40.246 55.3382 40.19C55.2168 40.05 55.0162 39.8213 54.7362 39.504L54.4142 39.14C54.2648 38.9813 54.0828 38.776 53.8682 38.524C53.8495 38.496 53.8168 38.4913 53.7702 38.51C53.3502 38.7807 53.0282 39.0467 52.8042 39.308C52.5802 39.5693 52.4682 39.8633 52.4682 40.19C52.4682 40.5073 52.5848 40.764 52.8182 40.96C53.0608 41.1467 53.3828 41.24 53.7842 41.24ZM66.6754 42.5C66.5821 42.5 66.5214 42.4533 66.4934 42.36L66.0314 40.862C66.0128 40.8247 65.9894 40.806 65.9614 40.806H62.2654C62.2374 40.806 62.2141 40.8247 62.1954 40.862L61.7334 42.36C61.7054 42.4533 61.6448 42.5 61.5514 42.5H60.1514C60.0954 42.5 60.0534 42.486 60.0254 42.458C59.9974 42.4207 59.9928 42.3693 60.0114 42.304L63.0494 32.84C63.0774 32.7467 63.1381 32.7 63.2314 32.7H64.9814C65.0748 32.7 65.1354 32.7467 65.1634 32.84L68.2154 42.304C68.2248 42.3227 68.2294 42.346 68.2294 42.374C68.2294 42.458 68.1781 42.5 68.0754 42.5H66.6754ZM62.6294 39.448C62.6201 39.504 62.6388 39.532 62.6854 39.532H65.5274C65.5834 39.532 65.6021 39.504 65.5834 39.448L64.1414 34.758C64.1321 34.7207 64.1181 34.702 64.0994 34.702C64.0808 34.702 64.0668 34.7207 64.0574 34.758L62.6294 39.448ZM77.2355 32.868C77.2355 32.8213 77.2495 32.784 77.2775 32.756C77.3148 32.7187 77.3568 32.7 77.4035 32.7H78.6915C78.7381 32.7 78.7755 32.7187 78.8035 32.756C78.8408 32.784 78.8595 32.8213 78.8595 32.868V42.332C78.8595 42.3787 78.8408 42.4207 78.8035 42.458C78.7755 42.486 78.7381 42.5 78.6915 42.5H77.4035C77.3568 42.5 77.3148 42.486 77.2775 42.458C77.2495 42.4207 77.2355 42.3787 77.2355 42.332V38.328C77.2355 38.2813 77.2121 38.258 77.1655 38.258H73.5955C73.5488 38.258 73.5255 38.2813 73.5255 38.328V42.332C73.5255 42.3787 73.5068 42.4207 73.4695 42.458C73.4415 42.486 73.4041 42.5 73.3575 42.5H72.0695C72.0228 42.5 71.9808 42.486 71.9435 42.458C71.9155 42.4207 71.9015 42.3787 71.9015 42.332V32.868C71.9015 32.8213 71.9155 32.784 71.9435 32.756C71.9808 32.7187 72.0228 32.7 72.0695 32.7H73.3575C73.4041 32.7 73.4415 32.7187 73.4695 32.756C73.5068 32.784 73.5255 32.8213 73.5255 32.868V36.788C73.5255 36.8347 73.5488 36.858 73.5955 36.858H77.1655C77.2121 36.858 77.2355 36.8347 77.2355 36.788V32.868ZM83.1021 35.234C83.6901 35.234 84.2081 35.3367 84.6561 35.542C85.1041 35.7473 85.4494 36.032 85.6921 36.396C85.9348 36.7507 86.0561 37.1567 86.0561 37.614V42.332C86.0561 42.3787 86.0374 42.4207 86.0001 42.458C85.9721 42.486 85.9348 42.5 85.8881 42.5H84.6001C84.5534 42.5 84.5114 42.486 84.4741 42.458C84.4461 42.4207 84.4321 42.3787 84.4321 42.332V41.884C84.4321 41.856 84.4228 41.842 84.4041 41.842C84.3854 41.8327 84.3668 41.8373 84.3481 41.856C83.8908 42.36 83.2281 42.612 82.3601 42.612C81.6601 42.612 81.0814 42.4347 80.6241 42.08C80.1761 41.7253 79.9521 41.198 79.9521 40.498C79.9521 39.77 80.2041 39.2053 80.7081 38.804C81.2214 38.3933 81.9401 38.188 82.8641 38.188H84.3621C84.4088 38.188 84.4321 38.1647 84.4321 38.118V37.782C84.4321 37.418 84.3248 37.138 84.1101 36.942C83.8954 36.7367 83.5734 36.634 83.1441 36.634C82.7894 36.634 82.5001 36.6993 82.2761 36.83C82.0614 36.9513 81.9261 37.124 81.8701 37.348C81.8421 37.46 81.7768 37.5067 81.6741 37.488L80.3161 37.32C80.2694 37.3107 80.2274 37.2967 80.1901 37.278C80.1621 37.25 80.1528 37.2173 80.1621 37.18C80.2368 36.6107 80.5401 36.144 81.0721 35.78C81.6134 35.416 82.2901 35.234 83.1021 35.234ZM82.7661 41.324C83.2234 41.324 83.6154 41.2027 83.9421 40.96C84.2688 40.7173 84.4321 40.4093 84.4321 40.036V39.378C84.4321 39.3313 84.4088 39.308 84.3621 39.308H83.1861C82.6914 39.308 82.2994 39.4013 82.0101 39.588C81.7301 39.7747 81.5901 40.0407 81.5901 40.386C81.5901 40.6847 81.6974 40.918 81.9121 41.086C82.1361 41.2447 82.4208 41.324 82.7661 41.324ZM91.6252 35.514C91.6252 35.4673 91.6392 35.43 91.6672 35.402C91.7045 35.3647 91.7465 35.346 91.7932 35.346H93.0672C93.1138 35.346 93.1512 35.3647 93.1792 35.402C93.2165 35.43 93.2352 35.4673 93.2352 35.514V42.332C93.2352 42.3787 93.2165 42.4207 93.1792 42.458C93.1512 42.486 93.1138 42.5 93.0672 42.5H91.7932C91.7465 42.5 91.7045 42.486 91.6672 42.458C91.6392 42.4207 91.6252 42.3787 91.6252 42.332V41.884C91.6252 41.856 91.6158 41.8373 91.5972 41.828C91.5785 41.8187 91.5598 41.828 91.5412 41.856C91.1585 42.3507 90.5845 42.598 89.8192 42.598C89.1098 42.598 88.5125 42.3927 88.0272 41.982C87.5512 41.5713 87.3132 40.988 87.3132 40.232V35.514C87.3132 35.4673 87.3272 35.43 87.3552 35.402C87.3925 35.3647 87.4345 35.346 87.4812 35.346H88.7692C88.8158 35.346 88.8532 35.3647 88.8812 35.402C88.9185 35.43 88.9372 35.4673 88.9372 35.514V39.77C88.9372 40.2087 89.0492 40.5587 89.2732 40.82C89.5065 41.0813 89.8285 41.212 90.2392 41.212C90.6592 41.212 90.9952 41.0813 91.2472 40.82C91.4992 40.5587 91.6252 40.2087 91.6252 39.77V35.514ZM103.789 32.7C103.836 32.7 103.873 32.7187 103.901 32.756C103.939 32.784 103.957 32.8213 103.957 32.868V33.946C103.957 33.9927 103.939 34.0347 103.901 34.072C103.873 34.1 103.836 34.114 103.789 34.114H101.213C101.167 34.114 101.143 34.1373 101.143 34.184V42.332C101.143 42.3787 101.125 42.4207 101.087 42.458C101.059 42.486 101.022 42.5 100.975 42.5H99.6873C99.6406 42.5 99.5986 42.486 99.5613 42.458C99.5333 42.4207 99.5193 42.3787 99.5193 42.332V34.184C99.5193 34.1373 99.4959 34.114 99.4493 34.114H96.9713C96.9246 34.114 96.8826 34.1 96.8453 34.072C96.8173 34.0347 96.8033 33.9927 96.8033 33.946V32.868C96.8033 32.8213 96.8173 32.784 96.8453 32.756C96.8826 32.7187 96.9246 32.7 96.9713 32.7H103.789ZM107.347 35.234C107.935 35.234 108.453 35.3367 108.901 35.542C109.349 35.7473 109.694 36.032 109.937 36.396C110.179 36.7507 110.301 37.1567 110.301 37.614V42.332C110.301 42.3787 110.282 42.4207 110.245 42.458C110.217 42.486 110.179 42.5 110.133 42.5H108.845C108.798 42.5 108.756 42.486 108.719 42.458C108.691 42.4207 108.677 42.3787 108.677 42.332V41.884C108.677 41.856 108.667 41.842 108.649 41.842C108.63 41.8327 108.611 41.8373 108.593 41.856C108.135 42.36 107.473 42.612 106.605 42.612C105.905 42.612 105.326 42.4347 104.869 42.08C104.421 41.7253 104.197 41.198 104.197 40.498C104.197 39.77 104.449 39.2053 104.953 38.804C105.466 38.3933 106.185 38.188 107.109 38.188H108.607C108.653 38.188 108.677 38.1647 108.677 38.118V37.782C108.677 37.418 108.569 37.138 108.355 36.942C108.14 36.7367 107.818 36.634 107.389 36.634C107.034 36.634 106.745 36.6993 106.521 36.83C106.306 36.9513 106.171 37.124 106.115 37.348C106.087 37.46 106.021 37.5067 105.919 37.488L104.561 37.32C104.514 37.3107 104.472 37.2967 104.435 37.278C104.407 37.25 104.397 37.2173 104.407 37.18C104.481 36.6107 104.785 36.144 105.317 35.78C105.858 35.416 106.535 35.234 107.347 35.234ZM107.011 41.324C107.468 41.324 107.86 41.2027 108.187 40.96C108.513 40.7173 108.677 40.4093 108.677 40.036V39.378C108.677 39.3313 108.653 39.308 108.607 39.308H107.431C106.936 39.308 106.544 39.4013 106.255 39.588C105.975 39.7747 105.835 40.0407 105.835 40.386C105.835 40.6847 105.942 40.918 106.157 41.086C106.381 41.2447 106.665 41.324 107.011 41.324ZM111.81 42.5C111.763 42.5 111.721 42.486 111.684 42.458C111.656 42.4207 111.642 42.3787 111.642 42.332V32.868C111.642 32.8213 111.656 32.784 111.684 32.756C111.721 32.7187 111.763 32.7 111.81 32.7H113.098C113.145 32.7 113.182 32.7187 113.21 32.756C113.247 32.784 113.266 32.8213 113.266 32.868V37.922C113.266 37.95 113.275 37.9687 113.294 37.978C113.313 37.9873 113.331 37.978 113.35 37.95L115.618 35.444C115.683 35.3787 115.753 35.346 115.828 35.346H117.312C117.405 35.346 117.452 35.3787 117.452 35.444C117.452 35.472 117.438 35.5093 117.41 35.556L115.632 37.684C115.604 37.712 115.599 37.7447 115.618 37.782L117.718 42.304C117.737 42.3413 117.746 42.3693 117.746 42.388C117.746 42.4627 117.695 42.5 117.592 42.5H116.234C116.141 42.5 116.075 42.458 116.038 42.374L114.512 38.818C114.503 38.7993 114.484 38.79 114.456 38.79C114.437 38.7807 114.423 38.7853 114.414 38.804L113.294 40.092C113.275 40.1293 113.266 40.162 113.266 40.19V42.332C113.266 42.3787 113.247 42.4207 113.21 42.458C113.182 42.486 113.145 42.5 113.098 42.5H111.81ZM127.41 42.5C127.317 42.5 127.256 42.4533 127.228 42.36L126.766 40.862C126.748 40.8247 126.724 40.806 126.696 40.806H123C122.972 40.806 122.949 40.8247 122.93 40.862L122.468 42.36C122.44 42.4533 122.38 42.5 122.286 42.5H120.886C120.83 42.5 120.788 42.486 120.76 42.458C120.732 42.4207 120.728 42.3693 120.746 42.304L123.784 32.84C123.812 32.7467 123.873 32.7 123.966 32.7H125.716C125.81 32.7 125.87 32.7467 125.898 32.84L128.95 42.304C128.96 42.3227 128.964 42.346 128.964 42.374C128.964 42.458 128.913 42.5 128.81 42.5H127.41ZM123.364 39.448C123.355 39.504 123.374 39.532 123.42 39.532H126.262C126.318 39.532 126.337 39.504 126.318 39.448L124.876 34.758C124.867 34.7207 124.853 34.702 124.834 34.702C124.816 34.702 124.802 34.7207 124.792 34.758L123.364 39.448ZM130.137 42.5C130.09 42.5 130.048 42.486 130.011 42.458C129.983 42.4207 129.969 42.3787 129.969 42.332V32.868C129.969 32.8213 129.983 32.784 130.011 32.756C130.048 32.7187 130.09 32.7 130.137 32.7H131.425C131.472 32.7 131.509 32.7187 131.537 32.756C131.574 32.784 131.593 32.8213 131.593 32.868V42.332C131.593 42.3787 131.574 42.4207 131.537 42.458C131.509 42.486 131.472 42.5 131.425 42.5H130.137ZM133.197 42.5C133.15 42.5 133.108 42.486 133.071 42.458C133.043 42.4207 133.029 42.3787 133.029 42.332V32.868C133.029 32.8213 133.043 32.784 133.071 32.756C133.108 32.7187 133.15 32.7 133.197 32.7H134.485C134.532 32.7 134.569 32.7187 134.597 32.756C134.634 32.784 134.653 32.8213 134.653 32.868V42.332C134.653 42.3787 134.634 42.4207 134.597 42.458C134.569 42.486 134.532 42.5 134.485 42.5H133.197ZM137.013 34.366C136.724 34.366 136.486 34.2727 136.299 34.086C136.113 33.8993 136.019 33.6613 136.019 33.372C136.019 33.0827 136.113 32.8447 136.299 32.658C136.486 32.4713 136.724 32.378 137.013 32.378C137.303 32.378 137.541 32.4713 137.727 32.658C137.914 32.8447 138.007 33.0827 138.007 33.372C138.007 33.6613 137.914 33.8993 137.727 34.086C137.541 34.2727 137.303 34.366 137.013 34.366ZM136.341 42.5C136.295 42.5 136.253 42.486 136.215 42.458C136.187 42.4207 136.173 42.3787 136.173 42.332V35.5C136.173 35.4533 136.187 35.416 136.215 35.388C136.253 35.3507 136.295 35.332 136.341 35.332H137.629C137.676 35.332 137.713 35.3507 137.741 35.388C137.779 35.416 137.797 35.4533 137.797 35.5V42.332C137.797 42.3787 137.779 42.4207 137.741 42.458C137.713 42.486 137.676 42.5 137.629 42.5H136.341ZM142.098 35.234C142.686 35.234 143.204 35.3367 143.652 35.542C144.1 35.7473 144.446 36.032 144.688 36.396C144.931 36.7507 145.052 37.1567 145.052 37.614V42.332C145.052 42.3787 145.034 42.4207 144.996 42.458C144.968 42.486 144.931 42.5 144.884 42.5H143.596C143.55 42.5 143.508 42.486 143.47 42.458C143.442 42.4207 143.428 42.3787 143.428 42.332V41.884C143.428 41.856 143.419 41.842 143.4 41.842C143.382 41.8327 143.363 41.8373 143.344 41.856C142.887 42.36 142.224 42.612 141.356 42.612C140.656 42.612 140.078 42.4347 139.62 42.08C139.172 41.7253 138.948 41.198 138.948 40.498C138.948 39.77 139.2 39.2053 139.704 38.804C140.218 38.3933 140.936 38.188 141.86 38.188H143.358C143.405 38.188 143.428 38.1647 143.428 38.118V37.782C143.428 37.418 143.321 37.138 143.106 36.942C142.892 36.7367 142.57 36.634 142.14 36.634C141.786 36.634 141.496 36.6993 141.272 36.83C141.058 36.9513 140.922 37.124 140.866 37.348C140.838 37.46 140.773 37.5067 140.67 37.488L139.312 37.32C139.266 37.3107 139.224 37.2967 139.186 37.278C139.158 37.25 139.149 37.2173 139.158 37.18C139.233 36.6107 139.536 36.144 140.068 35.78C140.61 35.416 141.286 35.234 142.098 35.234ZM141.762 41.324C142.22 41.324 142.612 41.2027 142.938 40.96C143.265 40.7173 143.428 40.4093 143.428 40.036V39.378C143.428 39.3313 143.405 39.308 143.358 39.308H142.182C141.688 39.308 141.296 39.4013 141.006 39.588C140.726 39.7747 140.586 40.0407 140.586 40.386C140.586 40.6847 140.694 40.918 140.908 41.086C141.132 41.2447 141.417 41.324 141.762 41.324ZM149.823 35.234C150.579 35.234 151.181 35.458 151.629 35.906C152.087 36.354 152.315 36.9653 152.315 37.74V42.332C152.315 42.3787 152.297 42.4207 152.259 42.458C152.231 42.486 152.194 42.5 152.147 42.5H150.859C150.813 42.5 150.771 42.486 150.733 42.458C150.705 42.4207 150.691 42.3787 150.691 42.332V38.076C150.691 37.6467 150.57 37.3013 150.327 37.04C150.085 36.7693 149.763 36.634 149.361 36.634C148.96 36.634 148.633 36.7647 148.381 37.026C148.139 37.2873 148.017 37.6327 148.017 38.062V42.332C148.017 42.3787 147.999 42.4207 147.961 42.458C147.933 42.486 147.896 42.5 147.849 42.5H146.561C146.515 42.5 146.473 42.486 146.435 42.458C146.407 42.4207 146.393 42.3787 146.393 42.332V35.514C146.393 35.4673 146.407 35.43 146.435 35.402C146.473 35.3647 146.515 35.346 146.561 35.346H147.849C147.896 35.346 147.933 35.3647 147.961 35.402C147.999 35.43 148.017 35.4673 148.017 35.514V35.962C148.017 35.99 148.027 36.0087 148.045 36.018C148.064 36.0273 148.078 36.018 148.087 35.99C148.47 35.486 149.049 35.234 149.823 35.234ZM156.646 42.612C155.928 42.612 155.307 42.43 154.784 42.066C154.262 41.6927 153.898 41.1933 153.692 40.568C153.543 40.148 153.468 39.588 153.468 38.888C153.468 38.216 153.543 37.6653 153.692 37.236C153.888 36.62 154.248 36.1347 154.77 35.78C155.302 35.416 155.928 35.234 156.646 35.234C157.374 35.234 158.009 35.416 158.55 35.78C159.092 36.144 159.451 36.6013 159.628 37.152C159.675 37.3013 159.708 37.4507 159.726 37.6V37.628C159.726 37.7213 159.675 37.7773 159.572 37.796L158.312 37.978H158.284C158.2 37.978 158.144 37.9313 158.116 37.838C158.116 37.7913 158.112 37.754 158.102 37.726C158.084 37.6513 158.065 37.586 158.046 37.53C157.962 37.2687 157.794 37.054 157.542 36.886C157.29 36.718 156.992 36.634 156.646 36.634C156.292 36.634 155.988 36.7273 155.736 36.914C155.494 37.0913 155.33 37.3387 155.246 37.656C155.153 37.9547 155.106 38.37 155.106 38.902C155.106 39.4153 155.148 39.8307 155.232 40.148C155.326 40.4747 155.494 40.736 155.736 40.932C155.979 41.1187 156.282 41.212 156.646 41.212C157.001 41.212 157.304 41.1233 157.556 40.946C157.818 40.7593 157.986 40.512 158.06 40.204C158.07 40.1853 158.074 40.162 158.074 40.134C158.084 40.1247 158.088 40.1107 158.088 40.092C158.116 39.98 158.182 39.9333 158.284 39.952L159.544 40.148C159.591 40.1573 159.628 40.1807 159.656 40.218C159.694 40.246 159.708 40.288 159.698 40.344C159.67 40.4933 159.647 40.6007 159.628 40.666C159.451 41.2633 159.092 41.7393 158.55 42.094C158.009 42.4393 157.374 42.612 156.646 42.612ZM166.778 38.118C166.816 38.3513 166.834 38.6127 166.834 38.902L166.82 39.336C166.82 39.448 166.764 39.504 166.652 39.504H162.27C162.224 39.504 162.2 39.5273 162.2 39.574C162.228 39.882 162.27 40.092 162.326 40.204C162.55 40.876 163.096 41.2167 163.964 41.226C164.599 41.226 165.103 40.9647 165.476 40.442C165.514 40.386 165.56 40.358 165.616 40.358C165.654 40.358 165.686 40.372 165.714 40.4L166.582 41.114C166.666 41.1793 166.68 41.254 166.624 41.338C166.335 41.7487 165.948 42.066 165.462 42.29C164.986 42.514 164.454 42.626 163.866 42.626C163.138 42.626 162.518 42.4627 162.004 42.136C161.5 41.8093 161.132 41.352 160.898 40.764C160.684 40.26 160.576 39.56 160.576 38.664C160.576 38.1227 160.632 37.684 160.744 37.348C160.931 36.6947 161.281 36.1813 161.794 35.808C162.317 35.4253 162.942 35.234 163.67 35.234C165.509 35.234 166.545 36.1953 166.778 38.118ZM163.67 36.634C163.325 36.634 163.036 36.7227 162.802 36.9C162.578 37.068 162.42 37.306 162.326 37.614C162.27 37.7727 162.233 37.978 162.214 38.23C162.196 38.2767 162.214 38.3 162.27 38.3H165.112C165.159 38.3 165.182 38.2767 165.182 38.23C165.164 37.9967 165.136 37.8193 165.098 37.698C165.014 37.362 164.846 37.1007 164.594 36.914C164.352 36.7273 164.044 36.634 163.67 36.634ZM173.972 42.612C173.272 42.612 172.656 42.4767 172.124 42.206C171.592 41.926 171.182 41.5387 170.892 41.044C170.603 40.5493 170.458 39.9753 170.458 39.322V35.864C170.458 35.2107 170.603 34.6367 170.892 34.142C171.182 33.6473 171.592 33.2647 172.124 32.994C172.656 32.7233 173.272 32.588 173.972 32.588C174.663 32.588 175.274 32.7187 175.806 32.98C176.338 33.2413 176.749 33.61 177.038 34.086C177.328 34.562 177.472 35.1127 177.472 35.738C177.472 35.7847 177.454 35.8267 177.416 35.864C177.388 35.892 177.351 35.906 177.304 35.906L176.016 35.976C175.904 35.976 175.848 35.9247 175.848 35.822C175.848 35.2713 175.676 34.828 175.33 34.492C174.994 34.156 174.542 33.988 173.972 33.988C173.403 33.988 172.946 34.156 172.6 34.492C172.255 34.828 172.082 35.2713 172.082 35.822V39.392C172.082 39.9333 172.255 40.372 172.6 40.708C172.946 41.044 173.403 41.212 173.972 41.212C174.542 41.212 174.994 41.0487 175.33 40.722C175.676 40.386 175.848 39.9427 175.848 39.392C175.848 39.2893 175.904 39.238 176.016 39.238L177.304 39.294C177.351 39.294 177.388 39.308 177.416 39.336C177.454 39.364 177.472 39.3967 177.472 39.434C177.472 40.0687 177.328 40.6287 177.038 41.114C176.749 41.59 176.338 41.9587 175.806 42.22C175.274 42.4813 174.663 42.612 173.972 42.612ZM182.2 35.234C182.956 35.234 183.558 35.458 184.006 35.906C184.464 36.354 184.692 36.9653 184.692 37.74V42.332C184.692 42.3787 184.674 42.4207 184.636 42.458C184.608 42.486 184.571 42.5 184.524 42.5H183.236C183.19 42.5 183.148 42.486 183.11 42.458C183.082 42.4207 183.068 42.3787 183.068 42.332V38.076C183.068 37.6467 182.947 37.3013 182.704 37.04C182.462 36.7693 182.14 36.634 181.738 36.634C181.337 36.634 181.01 36.7647 180.758 37.026C180.516 37.2873 180.394 37.6327 180.394 38.062V42.332C180.394 42.3787 180.376 42.4207 180.338 42.458C180.31 42.486 180.273 42.5 180.226 42.5H178.938C178.892 42.5 178.85 42.486 178.812 42.458C178.784 42.4207 178.77 42.3787 178.77 42.332V32.868C178.77 32.8213 178.784 32.784 178.812 32.756C178.85 32.7187 178.892 32.7 178.938 32.7H180.226C180.273 32.7 180.31 32.7187 180.338 32.756C180.376 32.784 180.394 32.8213 180.394 32.868V35.962C180.394 35.99 180.404 36.0087 180.422 36.018C180.441 36.0273 180.455 36.018 180.464 35.99C180.847 35.486 181.426 35.234 182.2 35.234ZM190.324 35.514C190.324 35.4673 190.338 35.43 190.366 35.402C190.404 35.3647 190.446 35.346 190.492 35.346H191.766C191.813 35.346 191.85 35.3647 191.878 35.402C191.916 35.43 191.934 35.4673 191.934 35.514V42.332C191.934 42.3787 191.916 42.4207 191.878 42.458C191.85 42.486 191.813 42.5 191.766 42.5H190.492C190.446 42.5 190.404 42.486 190.366 42.458C190.338 42.4207 190.324 42.3787 190.324 42.332V41.884C190.324 41.856 190.315 41.8373 190.296 41.828C190.278 41.8187 190.259 41.828 190.24 41.856C189.858 42.3507 189.284 42.598 188.518 42.598C187.809 42.598 187.212 42.3927 186.726 41.982C186.25 41.5713 186.012 40.988 186.012 40.232V35.514C186.012 35.4673 186.026 35.43 186.054 35.402C186.092 35.3647 186.134 35.346 186.18 35.346H187.468C187.515 35.346 187.552 35.3647 187.58 35.402C187.618 35.43 187.636 35.4673 187.636 35.514V39.77C187.636 40.2087 187.748 40.5587 187.972 40.82C188.206 41.0813 188.528 41.212 188.938 41.212C189.358 41.212 189.694 41.0813 189.946 40.82C190.198 40.5587 190.324 40.2087 190.324 39.77V35.514ZM196.713 35.262C197.012 35.262 197.273 35.3227 197.497 35.444C197.572 35.4813 197.6 35.5513 197.581 35.654L197.343 36.914C197.334 37.026 197.268 37.0587 197.147 37.012C197.007 36.9653 196.844 36.942 196.657 36.942C196.536 36.942 196.442 36.9467 196.377 36.956C195.985 36.9747 195.658 37.1147 195.397 37.376C195.136 37.628 195.005 37.9593 195.005 38.37V42.332C195.005 42.3787 194.986 42.4207 194.949 42.458C194.921 42.486 194.884 42.5 194.837 42.5H193.549C193.502 42.5 193.46 42.486 193.423 42.458C193.395 42.4207 193.381 42.3787 193.381 42.332V35.514C193.381 35.4673 193.395 35.43 193.423 35.402C193.46 35.3647 193.502 35.346 193.549 35.346H194.837C194.884 35.346 194.921 35.3647 194.949 35.402C194.986 35.43 195.005 35.4673 195.005 35.514V36.144C195.005 36.1813 195.01 36.2047 195.019 36.214C195.038 36.214 195.056 36.2 195.075 36.172C195.467 35.5653 196.013 35.262 196.713 35.262ZM201.201 42.612C200.482 42.612 199.861 42.43 199.339 42.066C198.816 41.6927 198.452 41.1933 198.247 40.568C198.097 40.148 198.023 39.588 198.023 38.888C198.023 38.216 198.097 37.6653 198.247 37.236C198.443 36.62 198.802 36.1347 199.325 35.78C199.857 35.416 200.482 35.234 201.201 35.234C201.929 35.234 202.563 35.416 203.105 35.78C203.646 36.144 204.005 36.6013 204.183 37.152C204.229 37.3013 204.262 37.4507 204.281 37.6V37.628C204.281 37.7213 204.229 37.7773 204.127 37.796L202.867 37.978H202.839C202.755 37.978 202.699 37.9313 202.671 37.838C202.671 37.7913 202.666 37.754 202.657 37.726C202.638 37.6513 202.619 37.586 202.601 37.53C202.517 37.2687 202.349 37.054 202.097 36.886C201.845 36.718 201.546 36.634 201.201 36.634C200.846 36.634 200.543 36.7273 200.291 36.914C200.048 37.0913 199.885 37.3387 199.801 37.656C199.707 37.9547 199.661 38.37 199.661 38.902C199.661 39.4153 199.703 39.8307 199.787 40.148C199.88 40.4747 200.048 40.736 200.291 40.932C200.533 41.1187 200.837 41.212 201.201 41.212C201.555 41.212 201.859 41.1233 202.111 40.946C202.372 40.7593 202.54 40.512 202.615 40.204C202.624 40.1853 202.629 40.162 202.629 40.134C202.638 40.1247 202.643 40.1107 202.643 40.092C202.671 39.98 202.736 39.9333 202.839 39.952L204.099 40.148C204.145 40.1573 204.183 40.1807 204.211 40.218C204.248 40.246 204.262 40.288 204.253 40.344C204.225 40.4933 204.201 40.6007 204.183 40.666C204.005 41.2633 203.646 41.7393 203.105 42.094C202.563 42.4393 201.929 42.612 201.201 42.612ZM208.797 35.234C209.553 35.234 210.155 35.458 210.603 35.906C211.06 36.354 211.289 36.9653 211.289 37.74V42.332C211.289 42.3787 211.27 42.4207 211.233 42.458C211.205 42.486 211.167 42.5 211.121 42.5H209.833C209.786 42.5 209.744 42.486 209.707 42.458C209.679 42.4207 209.665 42.3787 209.665 42.332V38.076C209.665 37.6467 209.543 37.3013 209.301 37.04C209.058 36.7693 208.736 36.634 208.335 36.634C207.933 36.634 207.607 36.7647 207.355 37.026C207.112 37.2873 206.991 37.6327 206.991 38.062V42.332C206.991 42.3787 206.972 42.4207 206.935 42.458C206.907 42.486 206.869 42.5 206.823 42.5H205.535C205.488 42.5 205.446 42.486 205.409 42.458C205.381 42.4207 205.367 42.3787 205.367 42.332V32.868C205.367 32.8213 205.381 32.784 205.409 32.756C205.446 32.7187 205.488 32.7 205.535 32.7H206.823C206.869 32.7 206.907 32.7187 206.935 32.756C206.972 32.784 206.991 32.8213 206.991 32.868V35.962C206.991 35.99 207 36.0087 207.019 36.018C207.037 36.0273 207.051 36.018 207.061 35.99C207.443 35.486 208.022 35.234 208.797 35.234Z" fill="white"/>
</g>
<defs>
<clipPath id="clip0_914_101">
<rect width="245" height="45" fill="white" transform="translate(0 0.5)"/>
</clipPath>
</defs>
</svg>
