<svg width="48" height="65" viewBox="0 0 48 65" fill="none" xmlns="http://www.w3.org/2000/svg">
<path fill-rule="evenodd" clip-rule="evenodd" d="M1.92684 0.00526428H34.5277L48 14.8386V62.8755C48 64.0441 47.1298 64.9945 46.0732 64.9945H1.92684C0.870184 64.9945 0 64.0441 0 62.8755V2.12431C0 0.955719 0.870184 0.00526428 1.92684 0.00526428Z" fill="#FF9999"/>
<path fill-rule="evenodd" clip-rule="evenodd" d="M47.9997 14.8386H36.4542C35.3975 14.8386 34.5273 13.8882 34.5273 12.7196V0.00532532L47.9997 14.8386Z" fill="#FF6666"/>
<path d="M11.406 34.5801C11.7634 34.5801 12.0587 34.7047 12.3073 34.954C12.5559 35.1877 12.6802 35.4994 12.6802 35.8421C12.6802 36.2005 12.5559 36.4966 12.3073 36.7459C12.0587 37.0107 11.7634 37.1354 11.406 37.1354C11.0642 37.1354 10.7534 37.0107 10.5048 36.7459C10.2561 36.4966 10.1318 36.2005 10.1318 35.8421C10.1318 35.4994 10.2561 35.1877 10.5048 34.954C10.7534 34.7047 11.0642 34.5801 11.406 34.5801ZM17.0622 28.0671V29.0332C17.4662 28.6436 17.9013 28.332 18.3675 28.145C18.8337 27.9425 19.3309 27.849 19.8593 27.849C21.0091 27.849 21.9881 28.2853 22.7961 29.1422C23.6042 30.0148 23.9926 31.1366 23.9926 32.5078C23.9926 33.8166 23.5886 34.9229 22.7495 35.7954C21.9104 36.6835 20.9314 37.1354 19.7971 37.1354C19.2843 37.1354 18.8026 37.0419 18.3675 36.8549C17.9324 36.668 17.4973 36.3719 17.0622 35.9668V40.1426H14.8557V28.0671H17.0622ZM19.3931 29.8745C18.6938 29.8745 18.1189 30.1238 17.6527 30.5913C17.2021 31.0743 16.969 31.6975 16.969 32.461C16.969 33.2401 17.2021 33.8789 17.6527 34.3619C18.1189 34.8605 18.6938 35.0942 19.3931 35.0942C20.0613 35.0942 20.6362 34.8449 21.0868 34.3619C21.553 33.8633 21.7861 33.2401 21.7861 32.4766C21.7861 31.7131 21.553 31.0899 21.1024 30.6069C20.6517 30.1238 20.0768 29.8745 19.3931 29.8745ZM32.3682 24.6392H34.5747V36.9173H32.3682V35.9668C31.9331 36.3875 31.498 36.668 31.0629 36.8549C30.6278 37.0419 30.1461 37.1354 29.6488 37.1354C28.4989 37.1354 27.52 36.6835 26.6809 35.7954C25.8418 34.9229 25.4378 33.8166 25.4378 32.5078C25.4378 31.1366 25.8418 30.0148 26.6343 29.1422C27.4423 28.2853 28.4212 27.849 29.5711 27.849C30.115 27.849 30.6122 27.9425 31.0784 28.145C31.5446 28.3476 31.9641 28.6436 32.3682 29.0332V24.6392ZM30.0373 29.8745C29.3381 29.8745 28.7786 30.1238 28.328 30.6069C27.8618 31.0899 27.6443 31.7131 27.6443 32.4766C27.6443 33.2401 27.8774 33.8633 28.328 34.3619C28.7942 34.8449 29.3691 35.0942 30.0373 35.0942C30.7366 35.0942 31.3115 34.8605 31.7777 34.3619C32.2283 33.8789 32.4614 33.2401 32.4614 32.461C32.4614 31.6975 32.2283 31.0743 31.7777 30.5913C31.3115 30.1238 30.7366 29.8745 30.0373 29.8745ZM35.7557 28.0671H36.5326C36.5482 26.8985 36.5637 26.213 36.5948 26.0104C36.6569 25.5274 36.8589 25.1378 37.2008 24.8574C37.5582 24.5613 38.0399 24.4211 38.677 24.4211C39.1432 24.4211 39.656 24.5302 40.2309 24.7483V26.4311C39.9046 26.3376 39.656 26.2909 39.4384 26.2909C39.1898 26.2909 39.0033 26.3532 38.879 26.4623C38.7858 26.5402 38.7547 26.7116 38.7547 26.9609L38.7392 28.0671H40.1377V29.9369H38.7547V36.9173H36.5326V29.9369H35.7557V28.0671Z" fill="white"/>
</svg>
